<svg width="43" xmlns="http://www.w3.org/2000/svg" height="41" fill="none"><g data-testid="facebook" style="fill: rgb(0, 0, 0);"><path d="M21.75 3.57c-9.625 0-17.5 7.858-17.5 17.535 0 8.75 6.405 16.013 14.77 17.325V26.18h-4.445v-5.075h4.445v-3.868c0-4.392 2.608-6.807 6.615-6.807 1.908 0 3.903.333 3.903.333v4.322h-2.206c-2.169 0-2.852 1.347-2.852 2.73v3.29h4.865l-.787 5.075H24.48v12.25a17.495 17.495 0 0 0 14.77-17.325c0-9.677-7.875-17.535-17.5-17.535Z" style="fill: rgb(38, 34, 34); fill-opacity: 1;" class="fills" data-testid="svg-path"/></g></svg>