<svg width="43" xmlns="http://www.w3.org/2000/svg" height="41" fill="none"><g data-testid="playlist" style="fill: rgb(0, 0, 0);"><path d="M31.575 19.075c-5.6-3.325-14.963-3.675-20.3-2.012-.875.262-1.75-.263-2.012-1.05-.263-.875.262-1.75 1.05-2.013 6.212-1.837 16.45-1.487 22.924 2.362.788.438 1.051 1.488.613 2.276-.437.612-1.488.875-2.275.437Zm-.175 4.9c-.438.613-1.225.875-1.837.437-4.726-2.887-11.9-3.762-17.413-2.012-.7.175-1.487-.175-1.663-.875-.174-.7.176-1.488.875-1.663 6.388-1.924 14.263-.962 19.688 2.363.525.262.787 1.137.35 1.75Zm-2.1 4.812c-.35.526-.963.7-1.487.351-4.113-2.538-9.275-3.063-15.4-1.663-.613.175-1.138-.262-1.313-.787-.175-.613.262-1.138.788-1.313 6.65-1.487 12.425-.875 16.974 1.925.613.263.701.963.438 1.487ZM21.25 3.5A17.508 17.508 0 0 0 8.876 8.626 17.5 17.5 0 1 0 21.25 3.5Z" style="fill: rgb(38, 34, 34); fill-opacity: 1;" class="fills" data-testid="svg-path"/></g></svg>