<svg xmlns="http://www.w3.org/2000/svg" width="739.993" height="666.064" viewBox="0 0 739.993 666.064">
  <g>
    <g>
      <path d="M613.891,163.023c-1.211-3.364-.343-5.2,1.958-9.376,3.044-5.518,6.094-11.034,9.024-16.622,1.858-3.543,5.553-7.88,4.768-10.68-1.249-4.451-5.175-8.422-8.78-11.5-1.137-.973-4.952,1.355-7.4,2.517-4.481,2.126-8.933,4.354-13.263,6.811-12.076,6.85-19.605,3.175-26.467-3.7-5.057-5.068-5.531-14.641-1.473-24.368,2.1-5.028,3.8-10.248,5.964-15.242,1.587-3.666,1.457-7.337-1.915-8.754-4.413-1.852-7.844-9.508-14.127-3.255-4.395,4.375-9.178,8.314-13.89,12.309-6.69,5.673-16.128,6.991-22,3.234-9.174-5.873-12.175-13.24-10-24.508,1.036-5.368,1.821-10.807,3.137-16.095,1.447-5.812-1.936-8.139-5.87-9.683-3.626-1.424-7.34-5.523-11.265.5-3.429,5.259-7.9,9.735-11.927,14.546C480.2,61.311,465.345,58.9,458.418,48.077c-6.055-9.461-3.2-19.735-3.523-29.614-.138-4.219.454-7.851-4.043-8.185-4.76-.353-10.252-6.626-14.387,2.2-3.821,8.157-8.082,16.348-13.512,23.3-6.289,8.048-21.625,7.3-27.01-1.327-3.387-5.425-5.049-12.491-6.144-19.077C387.6,2.132,387.7,1.8,375.25,1.012A33.166,33.166,0,0,1,370.789,0c-2.337,7.286-4.7,14.292-6.827,21.381-2.379,7.937-6.626,14.159-14.308,16.383-8.636,2.5-16.623.785-21.487-8.026-3.429-6.208-6.821-12.837-8.358-19.757-2.177-9.8-7.952-5.238-12.934-5.388-6.068-.183-6.225,4.393-6.729,8.71-.793,6.791-.654,13.8-2.183,20.381-3.693,15.888-22,21.539-31,11.847a111.569,111.569,0,0,1-12.152-15.9c-5.224-8.186-6.1-8.537-14.707-4.745-4.365,1.923-5.492,4.539-5.121,9.554.621,8.417,1.856,17.409-.144,25.29-4,15.753-23.823,20.7-35.718,6.018-4.278-5.282-9.243-9.923-13.687-14.637-3.929,2.608-7.234,4.379-10.018,6.831-1.354,1.193-2.7,3.883-2.378,5.506a158.33,158.33,0,0,0,4.467,15.716c3.423,11.012,1.211,21.072-5.349,27.024a19.752,19.752,0,0,1-26.584.072c-3.624-3.176-8.067-5.254-11.989-8.071-6.2-4.449-9.267,1.766-12.358,4.909-1.762,1.792-1.96,6.936-1.006,9.877,1.72,5.308,4.829,10.1,7.363,15.1,3.952,7.8,3.63,15.7-1.513,22.345-5.793,7.489-13.451,11.384-22.841,8.043a127.577,127.577,0,0,1-13.791-5.623c-9.123-4.507-12.274-3.661-16.311,6.119-.827,2-.055,5.651,1.221,7.608,3.911,6,9,11.155,12.589,17.338,8.01,13.805.181,31.064-14.842,31.932-8.172.472-16.464-2-24.737-2.592-1.834-.131-4.965,1.638-5.5,3.279-1.326,4.078-6.967,7.807-2.669,12.678,4.65,5.271,10.329,9.484,15.123,14.626,3.59,3.852,5.805,7.212,6.719,10.649,5.594-.906,79.344-13.245,83.6-13.691,5.952-9.714,12.126-19.291,18.705-28.51,16.467-23.075,36.76-41.92,59.264-57.818,8.771-6.195,18.74-10.64,28.561-14.8,3.035-1.286,8.126-.2,11,1.851,13.962,9.959,28.314,7.145,42.862,2.7,5.935-1.812,11.7-4.381,17.721-5.708,8.564-1.889,14.057-8.33,18.194-15.216,7.536-12.544,17.6-15.376,30.747-15.075a239.613,239.613,0,0,1,59.48,9.222c23.086,6.472,45.239,15.787,65.187,29.951a425.267,425.267,0,0,1,35.873,29.232C539.392,175.273,602.576,165.413,613.891,163.023ZM297.253,124.208c-13.986,1.6-25.38-6.375-26.588-19.379C269.035,87.284,280.529,75,295.538,73.4c14.346-1.525,23.424,7.47,25.324,25.047C321.959,108.594,308.866,122.88,297.253,124.208Z"/>
      <path d="M650.145,458.609a25.1,25.1,0,0,1-2.834-23.991c-3.193.229-92.839,15.178-100.223,16.4-19.638,21.878-41.834,40.657-67.1,55.214-3.23,1.861-6.953,2.74-12.185,4.738-4.86-1.482-11.459-2.106-16.6-5.372-8.7-5.528-17.36-8.717-27.33-6.143-13.648,3.522-27.614,6.189-40.712,11.358-6.205,2.449-11.982,8.97-15.73,15.189-7.972,13.228-17.8,19.979-32.845,17.7-17.264-2.612-34.851-3.233-51.91-6.834-23.229-4.9-46.4-19-67.221-30.667-4.643.488-102.383,16.471-109.023,17.675,3.421,4.345,6.5,10.737,5.4,16.738-1.634,8.941-4.908,17.637-8.21,26.1-3.484,8.929-3.425,10.537,4.178,15.959.931.665,1.854,1.343,2.777,2.019,3.69,2.7,6.675,3.088,10.438-.853,5.306-5.561,11.42-10.279,17.416-15.026,6.519-5.16,13.963-6.8,21.053-2.189,8.116,5.282,12.93,12.948,10.809,24.036-1.494,7.81-1.97,15.888-3.95,23.534-1.607,6.2,1.639,8.55,5.546,10,4.5,1.673,9.251,7.284,14.18.352A188.154,188.154,0,0,1,197.8,609.136c7.115-8.086,15.469-14.573,26.3-9.6,8.846,4.062,13.262,12.516,13.5,22.939.131,5.75-.4,11.517-.616,17.278-.216,5.778-.935,11.055,6.792,12.948,10.484,2.567,12.657,2.6,16.465-5.179,2.492-5.091,4.292-10.711,7.457-15.246,3.425-4.908,7.381-10.636,12.328-12.832,12.961-5.752,24.46,1.907,27.758,15.617,1.925,8,3.9,16.035,5.094,24.183.661,4.52,2.46,6.065,6.329,6.136,2.08.038,4.152.673,6.229.682,4.8.022,8.093-.964,9.484-7.47a102.922,102.922,0,0,1,8.963-25.808c7.46-14.308,24.233-15.7,33.338-3.259,5.264,7.192,8.076,16.605,11.293,25.316,2.613,7.076,6.775,8.652,13.307,7.368,6.578-1.293,8.812-5.121,9.55-12a160.022,160.022,0,0,1,5.319-28.485c2.746-9.217,15.17-14.206,23.905-11.779,10.671,2.966,14.5,12.854,19.778,21.23,7.332,11.635,7.1,11.485,19.105,8.365,5.116-1.329,6.46-4.131,5.849-9.225-.85-7.084-1.525-14.2-2.108-21.312-.864-10.539,4.841-20.912,13.45-24.746,9.364-4.171,19.438-1.55,26.236,6.566,3.433,4.1,7.713,7.483,10.658,11.919,5.187,7.814,10.251,5.215,15.676.869,1.5-1.2,3.209-2.278,4.284-3.839a6.759,6.759,0,0,0,1.215-4.74c-1.455-5.489-3.947-10.72-4.947-16.276-1.237-6.879-3.2-14.5-1.633-20.894,4.142-16.831,22.516-22.395,35.657-12.013,4.894,3.866,10.449,6.805,15.17,10.877,6.158,5.312,9.344-.027,13.01-3.5,3.867-3.66,5.171-7.424,2.111-13.2-5.251-9.9-11.649-19.4-11.8-31.742-.137-11.6,11.689-24.175,22.155-21.534,9.428,2.38,18.572,6.269,27.624,10.083,7.906,3.333,8.864-4.609,12.384-8.163,3.011-3.039,3.379-6.663.289-10.525C659.7,471.816,654.932,465.2,650.145,458.609ZM413.034,592.031c-14.065,1.8-29.932-9.323-31.284-26.751-1.293-16.651,10.664-34.034,25.082-35.573,13.791-1.472,30.614,10.365,30.613,27.709C439.128,574.615,428.089,590.106,413.034,592.031Z"/>
    </g>
    <g>
      <path d="M76.47,365.28a67.076,67.076,0,0,1-6.641,8.524,57.4,57.4,0,0,1-8.552,7.689,56.585,56.585,0,0,1-10.306,5.976,46.154,46.154,0,0,1-11.763,3.5l-.142.023a40.039,40.039,0,0,1-16.833-.46,26.918,26.918,0,0,1-12.087-6.761A31.394,31.394,0,0,1,2.718,371.72,50.694,50.694,0,0,1,0,355.362l.377-21.974a55.367,55.367,0,0,1,2.855-16.672,49,49,0,0,1,7.817-14.688A46.207,46.207,0,0,1,40.889,284.7l.142-.022q9.721-1.116,15.757.843a25.977,25.977,0,0,1,9.614,5.232,24.048,24.048,0,0,1,5.377,6.831,40.793,40.793,0,0,0,3.189,5.47L55,319.173q-.693-1.455-1.586-3.307a10.715,10.715,0,0,0-2.512-3.3,11.566,11.566,0,0,0-4.029-2.278,12.93,12.93,0,0,0-6.132-.236,17.564,17.564,0,0,0-11.46,6.585,21.42,21.42,0,0,0-4.438,13.3l-.354,20.687a18.216,18.216,0,0,0,1.163,7,13.112,13.112,0,0,0,8.568,8.1,14.077,14.077,0,0,0,6.558.383,16.867,16.867,0,0,0,8.114-3,16.216,16.216,0,0,0,4.733-5.447l.091-5.279-11.307,1.795.353-20.545,34.346-5.451Z"/>
      <path d="M164.868,328.772a58.955,58.955,0,0,1-2.629,16,42.272,42.272,0,0,1-8.325,15.194,51.726,51.726,0,0,1-13.545,11.683,45.073,45.073,0,0,1-16.013,5.814l-.142.022a36.508,36.508,0,0,1-15.758-.771A33.88,33.88,0,0,1,95.1,369.439a27.773,27.773,0,0,1-7.71-12.294,52.639,52.639,0,0,1-2.228-15.724l.426-24.826a42.511,42.511,0,0,1,2.957-14.343,48.648,48.648,0,0,1,7.942-13.71A55.416,55.416,0,0,1,110.1,276.991a44.573,44.573,0,0,1,15.941-5.8l.142-.023a36.915,36.915,0,0,1,15.9.75,32.609,32.609,0,0,1,13.22,7.293,28.452,28.452,0,0,1,7.518,11.043,38.416,38.416,0,0,1,2.477,13.7Z"/>
      <path d="M252.162,314.919a58.932,58.932,0,0,1-2.63,16,42.25,42.25,0,0,1-8.325,15.194,51.743,51.743,0,0,1-13.544,11.683,45.1,45.1,0,0,1-16.013,5.814l-.142.022a36.524,36.524,0,0,1-15.758-.772,33.878,33.878,0,0,1-13.361-7.27,27.779,27.779,0,0,1-7.71-12.294,52.675,52.675,0,0,1-2.229-15.724l.426-24.826a42.484,42.484,0,0,1,2.958-14.343,48.606,48.606,0,0,1,7.942-13.71,55.386,55.386,0,0,1,13.614-11.553,44.555,44.555,0,0,1,15.941-5.8l.142-.023a36.886,36.886,0,0,1,15.9.749,32.594,32.594,0,0,1,13.22,7.294,28.455,28.455,0,0,1,7.518,11.043,38.4,38.4,0,0,1,2.477,13.694Z"/>
      <path d="M331.338,291.54a88.3,88.3,0,0,1-2.78,20.717,56.01,56.01,0,0,1-8.3,18.178,50.639,50.639,0,0,1-14.8,13.873q-9.089,5.711-22.112,7.778l-3.149.5-21.465,3.407,1.82-106.151,21.466-3.407q12.45-1.976,21.826.592a34.883,34.883,0,0,1,15.551,8.63,36.886,36.886,0,0,1,9.156,15.337A63.373,63.373,0,0,1,331.338,291.54Z"/>
      <polygon points="477.215 215.459 475.394 321.609 449.922 325.652 450.558 288.557 436.899 327.718 421.443 330.171 408.789 294.047 408.133 332.283 382.661 336.325 384.482 230.175 408.953 226.291 429.934 284.43 453.173 219.274 477.215 215.459"/>
      <path d="M566.418,265.048a58.929,58.929,0,0,1-2.629,16,42.237,42.237,0,0,1-8.326,15.194,51.7,51.7,0,0,1-13.544,11.683,45.082,45.082,0,0,1-16.012,5.814l-.143.022a36.5,36.5,0,0,1-15.757-.772,33.878,33.878,0,0,1-13.361-7.27,27.791,27.791,0,0,1-7.712-12.294,52.708,52.708,0,0,1-2.227-15.724l.425-24.825a42.538,42.538,0,0,1,2.958-14.344,48.637,48.637,0,0,1,7.943-13.71,55.391,55.391,0,0,1,13.613-11.551,44.573,44.573,0,0,1,15.941-5.8l.143-.023a36.9,36.9,0,0,1,15.9.75,32.614,32.614,0,0,1,13.218,7.293,28.433,28.433,0,0,1,7.519,11.043,38.388,38.388,0,0,1,2.477,13.694Z"/>
      <path d="M653.712,251.2a58.955,58.955,0,0,1-2.629,16,42.274,42.274,0,0,1-8.326,15.194,51.726,51.726,0,0,1-13.545,11.683,45.068,45.068,0,0,1-16.012,5.814l-.142.022a36.507,36.507,0,0,1-15.758-.772,33.876,33.876,0,0,1-13.362-7.27,27.782,27.782,0,0,1-7.71-12.294A52.671,52.671,0,0,1,574,263.845l.426-24.826a42.533,42.533,0,0,1,2.958-14.343,48.634,48.634,0,0,1,7.942-13.71,55.435,55.435,0,0,1,13.613-11.552,44.6,44.6,0,0,1,15.942-5.8l.142-.023a36.9,36.9,0,0,1,15.9.75,32.6,32.6,0,0,1,13.219,7.293,28.437,28.437,0,0,1,7.518,11.044,38.377,38.377,0,0,1,2.478,13.694Z"/>
      <path d="M732.89,227.816a88.294,88.294,0,0,1-2.782,20.717,55.971,55.971,0,0,1-8.3,18.179,50.639,50.639,0,0,1-14.795,13.873q-9.09,5.709-22.113,7.777l-3.148.5-21.466,3.407L662.1,186.118l21.466-3.406q12.45-1.977,21.826.592a34.868,34.868,0,0,1,15.551,8.63,36.891,36.891,0,0,1,9.156,15.337A63.366,63.366,0,0,1,732.89,227.816Z"/>
      <path d="M41.573,447.536a14.786,14.786,0,0,1,9,1,15.053,15.053,0,0,1,5.81,5.081,21.365,21.365,0,0,1,3.107,7.354,30.118,30.118,0,0,1,.776,7.709,36.649,36.649,0,0,1-1.879,10.3,32.5,32.5,0,0,1-4.747,9.13,27.448,27.448,0,0,1-7.577,6.93,27.152,27.152,0,0,1-10.364,3.7l-.6.091-28.46,4.338,3.667-96.03,21.284-3.244-1.2.182.6-.092a31.561,31.561,0,0,1,11.411.057,17.233,17.233,0,0,1,7.823,3.685,15.442,15.442,0,0,1,4.388,6.516,22.95,22.95,0,0,1,1.215,8.67,34.206,34.206,0,0,1-1.605,9.355,33.254,33.254,0,0,1-3.5,7.591,22.687,22.687,0,0,1-4.543,5.313A9.75,9.75,0,0,1,41.573,447.536Z"/>
      <polygon points="108.384 461.8 91.046 464.443 82.187 490.944 59.348 494.425 89.081 394.421 115.868 390.339 138.269 482.396 115.43 485.877 108.384 461.8"/>
      <path d="M204.027,424.446a86.572,86.572,0,0,1-2.736,18.7,53.006,53.006,0,0,1-7.28,16.316,44.012,44.012,0,0,1-12.6,12.314,46.264,46.264,0,0,1-18.563,6.679l-2.631.4-17.936,2.734,3.666-96.03,17.937-2.734q10.4-1.585,18.155.89a28.374,28.374,0,0,1,12.769,8.062,33.93,33.93,0,0,1,7.311,14.029A61.974,61.974,0,0,1,204.027,424.446Z"/>
      <polygon points="296.436 433.904 279.097 436.547 270.239 463.048 247.399 466.529 277.134 366.525 303.919 362.442 326.322 454.499 303.482 457.98 296.436 433.904"/>
      <polygon points="384.701 349.898 385.372 371.269 361.779 375.54 358.941 449.886 338.851 452.948 341.689 378.602 321.48 381.683 322.308 359.998 384.701 349.898"/>
      <polygon points="445.092 340.733 444.264 362.417 424.056 365.497 421.217 439.843 401.128 442.906 403.967 368.56 383.758 371.64 384.586 349.955 445.092 340.733"/>
      <polygon points="471.638 336.687 467.971 432.717 447.883 435.779 451.55 339.748 471.638 336.687"/>
      <polygon points="539.319 326.371 538.491 348.055 518.283 351.135 515.445 425.481 495.354 428.544 498.193 354.198 477.985 357.277 478.813 335.593 539.319 326.371"/>
      <path d="M607.906,373.277a59.877,59.877,0,0,1-2.687,15.935,45.031,45.031,0,0,1-6.566,13.128,35.393,35.393,0,0,1-10.284,9.4A36.046,36.046,0,0,1,574.4,416.5l-.119.018q-8.736,1.457-14.715-.709a20.537,20.537,0,0,1-9.6-6.94,28.924,28.924,0,0,1-5.09-11.48,56.657,56.657,0,0,1-1.176-14.32l2.208-57.827,20.687-3.152-2.144,56.147a30.068,30.068,0,0,0,.406,6.482,13.939,13.939,0,0,0,1.885,5.1,7.948,7.948,0,0,0,8.537,3.7,11.18,11.18,0,0,0,5.194-2.138,14.137,14.137,0,0,0,3.668-4.216,21.58,21.58,0,0,0,2.239-5.732,33.785,33.785,0,0,0,.909-6.681l2.144-56.148,20.687-3.154Z"/>
      <path d="M676.076,353.261a86.58,86.58,0,0,1-2.734,18.7,53.032,53.032,0,0,1-7.281,16.316,44,44,0,0,1-12.6,12.314,46.249,46.249,0,0,1-18.562,6.68l-2.631.4-17.937,2.734L618,314.378l17.937-2.735q10.4-1.585,18.154.891a28.376,28.376,0,0,1,12.769,8.063,33.893,33.893,0,0,1,7.311,14.027A61.921,61.921,0,0,1,676.076,353.261Z"/>
      <polygon points="739.165 317.084 704.726 322.334 704.134 337.823 729.485 333.959 728.657 355.643 703.306 359.507 702.715 374.995 737.154 369.746 736.326 391.43 681.798 399.742 685.464 303.711 739.993 295.4 739.165 317.084"/>
    </g>
  </g>
</svg>
