<?xml version="1.0" standalone="no"?>
<!DOCTYPE svg PUBLIC "-//W3C//DTD SVG 20010904//EN"
 "http://www.w3.org/TR/2001/REC-SVG-20010904/DTD/svg10.dtd">
<svg version="1.0" xmlns="http://www.w3.org/2000/svg"
 width="1000.000000pt" height="1000.000000pt" viewBox="0 0 1000.000000 1000.000000"
 preserveAspectRatio="xMidYMid meet">
<metadata>
Created by potrace 1.14, written by Peter Selinger 2001-2017
</metadata>
<g transform="translate(0.000000,1000.000000) scale(0.100000,-0.100000)"
fill="#000000" stroke="none">
<path d="M4896 8748 c-22 -62 -47 -130 -57 -150 -26 -51 -76 -86 -142 -100
-47 -10 -61 -9 -101 6 -26 10 -57 31 -70 49 -33 44 -85 151 -102 209 -18 58
-39 71 -102 63 -105 -14 -106 -16 -117 -151 -10 -135 -27 -184 -79 -232 -70
-65 -150 -77 -222 -33 -17 11 -60 56 -95 102 -103 132 -114 142 -152 134 -44
-10 -107 -43 -109 -58 -1 -6 -2 -75 -2 -152 -1 -161 -14 -199 -82 -248 -60
-42 -129 -47 -198 -13 -31 15 -70 44 -88 65 -18 21 -57 60 -86 86 -53 48 -53
48 -85 33 -18 -9 -47 -28 -65 -43 -40 -33 -41 -64 -8 -163 33 -96 40 -150 26
-200 -22 -82 -110 -151 -193 -152 -48 0 -81 14 -191 84 -49 31 -100 56 -114
56 -15 0 -39 -15 -64 -40 -39 -38 -40 -42 -36 -93 3 -38 15 -71 46 -123 22
-39 46 -91 52 -116 10 -40 9 -52 -8 -89 -23 -54 -85 -115 -130 -130 -53 -17
-117 -6 -235 41 -88 35 -113 42 -135 34 -34 -12 -72 -69 -72 -108 1 -38 10
-53 81 -142 31 -38 64 -83 73 -101 25 -49 21 -128 -9 -179 -50 -85 -125 -105
-305 -81 -58 8 -114 11 -126 7 -28 -11 -74 -84 -74 -119 0 -25 14 -42 83 -102
73 -64 123 -117 152 -163 9 -13 57 -8 441 51 l431 67 39 60 c239 370 582 687
913 844 152 72 176 75 271 26 68 -34 84 -39 169 -42 104 -5 151 3 316 53 61
18 121 35 136 39 43 9 107 60 150 116 63 85 97 117 153 142 46 21 65 23 191
22 237 -2 506 -50 774 -139 261 -87 481 -211 740 -418 l114 -91 191 27 c105
16 296 45 424 64 l232 37 0 27 c0 23 94 199 146 273 22 31 17 69 -14 112 -54
74 -62 75 -210 5 -71 -34 -146 -65 -166 -68 -42 -7 -108 16 -146 50 -77 68
-80 131 -15 292 61 149 60 162 -12 209 -32 20 -65 36 -74 36 -9 0 -54 -32
-100 -71 -105 -88 -164 -119 -225 -119 -84 0 -160 57 -185 139 -10 34 -9 57
10 148 33 169 31 178 -52 216 -66 30 -76 25 -166 -76 -46 -52 -98 -103 -115
-115 -72 -49 -167 -44 -233 13 -62 53 -75 97 -74 246 1 91 -2 129 -11 136 -24
19 -119 45 -143 39 -17 -4 -36 -30 -69 -89 -66 -121 -121 -192 -166 -212 -50
-23 -139 -17 -178 12 -42 30 -78 109 -101 217 -11 54 -26 105 -32 112 -11 14
-32 18 -124 29 l-50 5 -39 -112z m-580 -629 c52 -35 94 -113 101 -189 5 -51 2
-65 -21 -104 -30 -51 -95 -108 -152 -132 -45 -20 -144 -22 -189 -4 -87 34
-135 104 -135 197 0 110 76 215 180 248 70 23 169 15 216 -16z"/>
<path d="M9170 7303 c-80 -14 -150 -29 -155 -34 -6 -4 -42 -76 -79 -158 -38
-83 -72 -151 -75 -151 -3 0 -34 51 -68 113 -93 168 -63 153 -243 122 -85 -14
-163 -29 -172 -33 -15 -6 9 -53 157 -306 l175 -298 0 -319 c0 -297 1 -319 18
-319 9 0 74 10 145 22 l127 22 0 324 0 324 178 351 c97 193 179 355 180 359 5
12 -28 8 -188 -19z"/>
<path d="M7820 7070 c-245 -44 -446 -79 -447 -79 -2 -1 -3 -68 -3 -151 0 -116
3 -150 13 -150 12 0 220 36 265 45 l22 5 0 -500 c0 -475 1 -500 18 -500 10 0
81 11 158 25 76 14 140 25 142 25 1 0 1 225 0 500 -2 327 0 501 7 503 6 2 74
15 153 28 l142 23 0 153 c0 116 -3 153 -12 152 -7 -1 -213 -36 -458 -79z"/>
<path d="M7095 6945 c-71 -13 -131 -24 -132 -24 -2 -1 -3 -296 -3 -657 0 -546
2 -655 13 -651 8 3 78 16 155 28 l142 23 0 653 0 653 -22 -1 c-13 -1 -81 -12
-153 -24z"/>
<path d="M6345 6814 c-221 -43 -406 -227 -459 -454 -12 -48 -16 -123 -16 -281
0 -183 3 -228 20 -294 47 -183 150 -271 331 -282 255 -16 485 107 595 317 18
36 30 67 26 71 -4 4 -56 25 -117 47 -60 22 -118 43 -127 47 -12 5 -21 -2 -33
-25 -26 -50 -87 -112 -130 -131 -99 -46 -210 0 -244 100 -15 46 -13 375 2 418
38 102 144 181 228 170 46 -6 104 -47 128 -89 34 -62 27 -64 159 31 68 49 128
93 134 99 14 14 -34 104 -85 159 -92 100 -232 133 -412 97z"/>
<path d="M4765 6544 c-44 -8 -104 -19 -132 -25 l-53 -10 0 -654 0 -654 28 5
c15 3 164 29 332 58 l305 52 3 152 c1 84 -1 152 -5 152 -5 0 -84 -14 -178 -30
-93 -16 -171 -30 -172 -30 -2 0 -3 225 -3 500 l0 500 -22 -1 c-13 -1 -59 -8
-103 -15z"/>
<path d="M4130 6434 c-168 -29 -347 -61 -397 -70 l-93 -16 0 -655 0 -655 28 6
c47 10 783 136 793 136 5 0 9 68 9 156 0 143 -1 155 -17 150 -10 -3 -112 -21
-228 -41 -115 -19 -222 -38 -237 -41 l-28 -6 0 100 0 99 123 21 c67 12 152 26
190 33 l67 11 0 149 c0 148 0 149 -22 149 -13 0 -99 -14 -193 -30 -93 -16
-171 -30 -172 -30 -2 0 -3 45 -3 99 l0 99 73 12 c39 7 155 27 257 44 l185 32
3 152 c2 140 1 152 -15 151 -10 -1 -155 -25 -323 -55z"/>
<path d="M3295 6290 c-115 -20 -297 -52 -403 -70 l-193 -33 7 -651 c3 -358 7
-652 8 -653 1 -1 184 29 406 67 223 39 408 70 412 70 5 0 8 68 8 150 0 149 0
150 -22 150 -13 0 -126 -18 -253 -40 -126 -22 -233 -40 -237 -40 -5 0 -8 44
-8 98 l0 97 168 29 c92 15 177 30 190 33 22 5 22 8 22 154 0 135 -2 149 -17
149 -10 0 -94 -14 -188 -30 -93 -16 -171 -30 -172 -30 -2 0 -3 44 -3 98 l0 99
123 21 c67 12 182 32 255 44 l132 23 0 152 c0 116 -3 153 -12 152 -7 -1 -107
-18 -223 -39z"/>
<path d="M2138 6091 l-438 -76 0 -152 c0 -84 1 -153 3 -153 2 0 66 11 143 25
76 14 142 25 147 25 4 0 7 -225 7 -500 0 -275 3 -500 8 -500 4 0 72 11 152 25
80 14 148 25 152 25 4 0 4 226 1 503 l-6 502 144 24 c79 13 150 26 157 29 9 3
12 43 12 153 0 148 0 149 -22 148 -13 -1 -220 -36 -460 -78z"/>
<path d="M1122 5911 c-152 -44 -282 -142 -338 -257 -26 -53 -29 -69 -29 -159
0 -91 2 -104 27 -146 47 -80 58 -87 358 -226 89 -41 130 -77 130 -113 0 -51
-58 -100 -119 -100 -32 0 -84 38 -110 81 l-16 27 -143 -83 c-79 -45 -145 -85
-148 -88 -10 -10 33 -94 70 -134 111 -123 358 -137 574 -33 190 91 281 238
253 408 -24 152 -112 241 -320 323 -123 49 -206 98 -213 127 -8 30 17 79 51
96 66 35 133 11 169 -59 l17 -34 132 72 c151 82 153 85 105 172 -33 60 -95
109 -164 130 -69 20 -207 18 -286 -4z"/>
<path d="M8610 5571 l-495 -86 -3 -168 -2 -167 23 0 c12 0 87 11 165 25 78 14
147 25 152 25 6 0 10 -204 10 -560 0 -441 3 -560 13 -560 6 0 86 12 176 27
l164 28 -6 563 -5 562 21 5 c33 7 310 55 319 55 4 0 8 77 8 170 0 170 0 170
-22 169 -13 -1 -246 -40 -518 -88z"/>
<path d="M7616 5399 c-120 -21 -220 -40 -221 -41 -9 -11 -437 -1530 -432
-1534 3 -4 93 9 198 27 l193 34 64 200 c35 110 65 201 66 203 2 1 65 13 141
27 102 18 141 22 146 13 4 -6 35 -87 70 -180 34 -92 67 -168 73 -167 6 0 94
15 196 33 152 27 185 36 184 49 -3 40 -439 1377 -448 1376 -6 0 -109 -18 -230
-40z"/>
<path d="M6380 5185 c-279 -56 -475 -257 -534 -547 -22 -105 -22 -431 -1 -554
30 -171 106 -284 230 -341 51 -23 76 -28 167 -31 142 -5 245 15 367 75 122 58
227 159 286 275 22 42 37 79 34 82 -3 3 -70 30 -149 60 l-145 54 -22 -40 c-53
-94 -111 -142 -189 -158 -39 -8 -64 -8 -96 0 -55 15 -122 81 -137 135 -17 63
-14 390 4 453 39 129 166 219 280 198 44 -9 109 -65 136 -118 11 -21 22 -38
25 -38 16 0 294 206 294 218 0 28 -63 131 -106 175 -103 102 -262 139 -444
102z"/>
<path d="M5708 5070 c-87 -15 -163 -30 -170 -33 -7 -2 -49 -84 -93 -181 -44
-96 -82 -176 -85 -176 -3 0 -39 62 -80 137 -41 75 -79 142 -85 149 -8 11 -42
8 -197 -19 -102 -17 -189 -35 -192 -38 -4 -3 81 -156 189 -340 l195 -333 0
-363 0 -363 23 5 c12 2 76 14 142 25 66 11 130 22 143 25 l22 5 0 365 0 365
200 400 c196 392 200 400 173 399 -16 0 -99 -13 -185 -29z"/>
<path d="M4205 4812 l-440 -77 -3 -732 c-2 -583 0 -733 10 -733 7 0 217 34
466 77 l452 78 0 167 c0 153 -2 168 -17 168 -10 0 -135 -20 -278 -45 -143 -25
-266 -45 -272 -45 -10 0 -13 28 -13 109 0 105 1 109 23 114 12 3 109 20 215
38 l192 32 0 169 c0 128 -3 168 -13 168 -6 0 -102 -16 -212 -35 -110 -19 -201
-35 -203 -35 -1 0 -1 50 0 112 l3 112 95 17 c52 9 182 31 288 49 l192 33 0
169 c0 168 0 168 -22 167 -13 -1 -221 -35 -463 -77z"/>
<path d="M3045 4611 l-150 -26 -3 -732 c-2 -583 0 -733 10 -733 7 0 176 27
376 62 l362 62 0 168 c0 153 -2 168 -17 168 -10 0 -94 -14 -188 -30 -93 -17
-175 -30 -182 -30 -10 0 -13 111 -13 560 l0 560 -22 -1 c-13 -1 -90 -13 -173
-28z"/>
<path d="M2175 4461 l-150 -26 -3 -732 c-2 -583 0 -733 10 -733 7 0 176 27
376 62 l362 62 0 168 c0 153 -2 168 -17 168 -10 0 -94 -14 -188 -30 -93 -17
-175 -30 -182 -30 -10 0 -13 111 -13 560 l0 560 -22 -1 c-13 -1 -90 -13 -173
-28z"/>
<path d="M1248 4302 l-206 -36 -220 -770 c-121 -424 -220 -772 -218 -773 2 -2
326 52 373 62 18 4 32 36 89 208 l67 204 131 22 c72 12 136 21 142 21 6 0 40
-75 74 -167 34 -93 66 -172 71 -177 5 -6 83 3 201 23 106 18 194 34 195 35 1
1 -98 313 -220 694 -217 679 -222 692 -247 691 -14 -1 -118 -17 -232 -37z"/>
<path d="M7590 3533 c-14 -2 -213 -33 -443 -68 l-418 -64 -97 -90 c-130 -121
-214 -187 -352 -279 -249 -166 -298 -177 -461 -101 -127 59 -184 62 -369 19
-281 -64 -328 -87 -413 -202 -30 -40 -65 -83 -78 -95 -42 -38 -109 -63 -174
-63 -93 0 -485 47 -580 69 -112 27 -276 95 -452 187 -108 56 -148 73 -170 69
-15 -3 -239 -37 -498 -75 -258 -39 -477 -73 -487 -76 -14 -4 -13 -10 9 -50 35
-62 28 -116 -32 -277 l-48 -128 20 -27 c30 -40 108 -86 135 -78 13 3 57 34 98
68 122 102 155 121 213 126 45 3 58 0 99 -27 91 -61 104 -109 77 -265 -33
-181 -33 -189 -13 -207 30 -25 123 -61 144 -54 10 3 38 29 61 58 166 203 252
242 365 165 19 -13 45 -44 59 -69 23 -44 25 -56 25 -193 0 -168 -1 -166 103
-187 74 -15 96 -1 143 94 76 151 148 217 238 217 57 0 93 -17 134 -65 34 -38
51 -86 81 -234 11 -52 24 -98 29 -103 5 -5 40 -11 78 -15 90 -7 107 6 134 104
42 152 105 250 177 274 46 15 118 6 152 -18 46 -35 88 -99 127 -198 23 -58 48
-104 62 -116 46 -36 146 -17 172 31 6 12 18 64 26 117 30 205 63 263 162 288
103 27 167 -9 255 -143 35 -53 71 -103 81 -111 21 -18 127 -9 161 13 29 19 31
44 14 193 -12 114 -3 161 44 218 59 72 160 95 243 55 24 -12 80 -60 127 -110
98 -104 114 -108 190 -60 63 40 72 66 47 133 -27 67 -50 177 -50 231 0 120
122 215 239 186 26 -6 93 -42 151 -81 131 -85 150 -88 209 -24 48 52 50 74 16
135 -109 193 -124 267 -70 355 21 34 45 56 79 74 44 23 52 24 100 14 28 -6
102 -30 164 -53 70 -27 121 -40 135 -36 27 6 97 103 97 132 0 10 -37 64 -81
119 -110 136 -123 163 -116 242 5 63 5 63 -22 62 -14 -1 -37 -4 -51 -6z
m-1985 -792 c171 -76 205 -304 65 -439 -79 -78 -189 -91 -292 -35 -156 85
-179 280 -49 416 81 86 171 105 276 58z"/>
</g>
</svg>
