<?xml version="1.0" standalone="no"?>
<!DOCTYPE svg PUBLIC "-//W3C//DTD SVG 20010904//EN"
 "http://www.w3.org/TR/2001/REC-SVG-20010904/DTD/svg10.dtd">
<svg version="1.0" xmlns="http://www.w3.org/2000/svg"
 width="709.000000pt" height="709.000000pt" viewBox="0 0 709.000000 709.000000"
 preserveAspectRatio="xMidYMid meet">
<metadata>
Created by potrace 1.14, written by Peter Selinger 2001-2017
</metadata>
<g transform="translate(0.000000,709.000000) scale(0.100000,-0.100000)"
fill="#000000" stroke="none">
<path d="M3967 6888 c-15 -67 -80 -235 -104 -270 -66 -98 -228 -121 -304 -44
-41 43 -92 137 -119 219 -16 48 -27 68 -43 74 -12 4 -24 7 -27 6 -3 0 -30 -4
-60 -7 -31 -4 -60 -13 -66 -21 -14 -19 -27 -92 -19 -106 4 -5 3 -9 -2 -9 -4 0
-9 -25 -9 -56 -3 -90 -23 -144 -74 -195 -57 -57 -114 -74 -189 -58 -54 11
-106 57 -181 159 -74 103 -76 104 -114 103 -19 -1 -53 -11 -75 -24 -46 -25
-55 -52 -46 -126 9 -71 7 -170 -5 -214 -23 -85 -104 -142 -200 -141 -81 0
-117 21 -224 128 l-97 97 -42 -21 c-62 -31 -101 -75 -93 -104 4 -13 9 -36 12
-53 3 -16 9 -34 14 -40 6 -9 11 -25 28 -90 13 -48 5 -131 -16 -172 -34 -65
-120 -118 -187 -115 -39 2 -82 14 -109 30 -86 53 -143 89 -164 104 -18 12 -31
14 -55 7 -33 -9 -86 -64 -88 -89 0 -8 -2 -23 -4 -34 -2 -10 21 -66 51 -123 83
-158 79 -230 -18 -314 -77 -68 -160 -73 -283 -18 -89 39 -156 58 -179 49 -28
-10 -53 -43 -65 -88 -10 -35 4 -61 104 -187 62 -78 80 -128 72 -198 -9 -75
-73 -148 -145 -165 -23 -5 -147 -3 -180 3 -64 12 -124 17 -146 11 -24 -6 -71
-68 -81 -108 -5 -21 5 -35 67 -91 115 -105 158 -150 164 -174 8 -28 11 -29 89
-18 28 4 64 9 80 11 17 2 55 8 85 14 79 13 131 21 165 25 57 7 100 14 153 24
29 6 56 10 60 10 4 -1 9 0 12 1 3 1 14 3 25 4 11 2 61 9 110 16 50 7 97 14
105 15 16 2 38 29 130 162 188 271 398 476 680 667 83 57 276 156 303 156 7 0
18 5 24 11 22 22 89 11 159 -24 104 -52 167 -61 299 -43 60 9 120 24 205 53
25 8 52 16 60 19 131 32 171 59 246 160 95 128 175 160 385 150 63 -2 114 -5
114 -6 0 0 27 -3 60 -6 33 -3 71 -7 85 -10 14 -2 41 -7 60 -10 249 -39 570
-142 779 -251 76 -39 279 -166 291 -182 3 -4 30 -24 60 -46 30 -22 61 -45 68
-52 8 -8 30 -26 50 -41 21 -15 47 -36 60 -48 25 -22 17 -22 162 1 19 3 53 8
75 11 47 6 90 12 125 19 14 3 45 7 69 10 24 2 51 7 60 9 9 3 40 8 70 11 30 4
63 9 75 11 12 3 39 7 61 10 191 26 189 26 192 57 1 15 40 93 87 172 47 79 86
149 86 155 0 22 -45 88 -72 106 -36 24 -41 23 -168 -38 -96 -46 -180 -76 -205
-73 -41 5 -85 19 -85 26 0 5 -5 9 -10 9 -21 0 -80 63 -91 97 -19 60 -8 114 55
267 24 59 42 115 39 122 -6 16 -100 81 -123 85 -17 3 -59 -17 -75 -36 -26 -32
-168 -135 -202 -146 -45 -15 -124 -14 -154 1 -43 23 -98 83 -110 118 -16 46
-14 88 6 183 26 119 27 130 15 158 -13 30 -107 76 -138 67 -10 -4 -32 -23 -48
-43 -120 -151 -207 -212 -291 -207 -66 3 -133 42 -166 95 -36 58 -38 71 -37
220 0 102 -3 129 -15 139 -9 7 -18 10 -21 7 -3 -3 -25 2 -47 12 -59 25 -87 13
-122 -52 -72 -136 -134 -221 -176 -243 -69 -35 -171 -25 -221 21 -38 35 -66
101 -89 211 -12 57 -28 107 -38 117 -11 11 -37 20 -66 22 -26 2 -60 7 -75 10
-23 5 -28 2 -33 -17z m-648 -730 c69 -39 112 -114 125 -219 9 -77 -76 -188
-181 -236 -47 -22 -65 -25 -122 -21 -142 10 -222 86 -227 214 -4 102 26 164
120 242 8 6 21 12 29 12 7 0 17 4 23 9 33 33 174 32 233 -1z"/>
<path d="M6753 4908 c-16 -5 -48 -11 -73 -14 -25 -3 -54 -8 -65 -11 -64 -14
-209 -37 -227 -36 -10 0 -18 -3 -18 -8 0 -4 -6 -14 -13 -21 -14 -14 -36 -49
-66 -100 -22 -38 -266 -435 -281 -458 -31 -46 -287 -468 -293 -482 -3 -10 -11
-18 -17 -18 -5 0 -10 -4 -10 -10 0 -5 -17 -38 -38 -72 l-38 -63 -3 -125 c-2
-69 -4 -176 -5 -238 -3 -99 -1 -112 13 -108 9 3 70 14 136 25 66 12 131 23
145 26 22 4 69 12 125 21 11 1 43 7 70 13 28 5 70 12 95 16 25 4 64 10 87 14
l42 8 -5 -216 c-3 -119 -6 -238 -7 -264 l-2 -48 45 6 c25 3 56 8 70 10 61 12
78 16 135 25 33 5 69 12 80 14 11 2 52 9 91 16 64 10 72 14 77 36 2 13 0 27
-5 30 -4 3 -6 10 -3 15 4 5 9 94 12 197 3 103 6 205 6 226 2 33 6 40 27 43 14
2 71 12 128 23 57 11 105 20 106 20 3 0 8 69 7 98 -2 26 -1 42 3 205 4 134 3
167 -8 167 -7 0 -38 -5 -67 -11 -67 -13 -127 -22 -158 -23 l-24 -1 2 100 c2
55 4 154 6 220 4 182 16 611 19 693 l3 72 -38 -2 c-22 -2 -51 -6 -66 -10z"/>
<path d="M5490 4662 c-41 -7 -84 -15 -96 -17 -15 -3 -32 -31 -65 -105 -24 -55
-47 -100 -51 -100 -3 0 -28 37 -53 83 -26 45 -48 83 -49 84 -1 1 -33 -4 -71
-11 -39 -8 -87 -16 -107 -20 l-37 -7 68 -117 c38 -64 78 -133 90 -152 64 -108
61 -93 62 -315 0 -113 1 -205 2 -205 27 0 172 32 176 39 3 5 5 98 5 208 l-1
198 44 90 c24 50 48 97 53 105 5 8 32 62 61 120 29 58 56 112 60 121 10 19 6
19 -91 1z"/>
<path d="M4831 4548 c-25 -4 -63 -10 -85 -13 -23 -3 -48 -8 -56 -10 -8 -2 -28
-7 -45 -9 -16 -3 -95 -17 -175 -31 -79 -14 -145 -25 -145 -25 -1 0 3 -175 4
-183 1 -5 4 -6 9 -4 7 5 38 11 120 22 20 3 43 8 50 10 9 3 12 -10 12 -48 0
-72 0 -83 -1 -114 -1 -16 1 -45 3 -66 3 -21 2 -39 -2 -42 -4 -2 -4 -24 0 -48
3 -25 3 -53 -1 -64 -4 -11 -3 -26 1 -33 5 -7 5 -23 0 -34 -4 -12 -4 -30 0 -41
4 -11 4 -33 1 -50 -3 -16 -5 -45 -3 -63 3 -31 5 -33 35 -28 80 12 143 20 150
18 9 -3 9 2 10 356 0 160 3 292 6 293 3 0 13 2 21 4 24 5 72 13 120 20 l45 7
1 93 c2 104 8 98 -75 83z"/>
<path d="M4170 4436 c-120 -23 -106 34 -105 -439 1 -355 3 -411 15 -408 8 2
24 5 35 7 11 1 41 7 68 12 26 5 47 7 47 4 0 -2 6 1 14 7 11 9 13 87 12 418 -1
262 -5 407 -11 408 -5 2 -39 -3 -75 -9z"/>
<path d="M3664 4346 c-50 -12 -120 -44 -150 -69 -70 -57 -125 -149 -141 -237
-8 -39 -7 -260 0 -305 12 -74 16 -85 44 -127 57 -85 170 -113 308 -76 78 21
121 46 178 103 43 43 83 114 70 125 -4 4 -40 19 -80 34 l-72 25 -21 -34 c-45
-73 -124 -97 -188 -59 -43 25 -55 68 -55 196 0 92 4 113 24 155 32 64 79 90
152 84 20 -1 77 -53 77 -70 0 -20 21 -12 96 42 84 59 87 71 35 137 -55 71
-167 102 -277 76z"/>
<path d="M2720 4186 c-3 -2 -25 -7 -50 -11 -25 -3 -63 -9 -85 -13 l-40 -7 0
-410 0 -410 30 1 c27 0 65 5 135 18 14 3 41 7 60 10 48 8 86 15 145 26 l50 10
0 91 1 91 -51 -6 c-27 -4 -70 -11 -95 -16 -94 -19 -85 -50 -85 295 1 280 -3
344 -15 331z"/>
<path d="M2387 4129 c-7 -4 -32 -9 -57 -12 -25 -4 -55 -8 -66 -11 -12 -2 -39
-7 -60 -10 -22 -3 -50 -8 -64 -11 -50 -10 -67 -13 -123 -20 -31 -4 -61 -12
-66 -19 -5 -6 -8 -183 -8 -419 l1 -408 26 7 c14 3 36 8 50 9 58 8 106 16 120
20 8 2 31 7 50 10 19 3 62 11 95 17 33 6 70 12 82 13 13 2 41 6 63 10 l41 7
-2 92 -1 93 -37 -3 c-20 -2 -36 -3 -36 -4 0 -3 -109 -23 -200 -36 -16 -3 -36
-7 -42 -9 -14 -5 -15 -3 -16 75 l-1 55 65 12 c35 6 87 15 114 18 28 4 54 10
58 15 5 4 7 40 5 79 -1 39 0 71 4 71 4 0 5 7 2 15 -6 15 -54 16 -124 1 -13 -3
-42 -8 -64 -12 -22 -3 -44 -8 -47 -10 -11 -6 -15 17 -15 76 1 60 -2 58 106 75
19 3 44 7 55 9 88 15 112 19 125 21 8 2 22 4 30 4 12 1 15 19 16 95 l1 94 -34
-1 c-19 -1 -39 -5 -46 -8z"/>
<path d="M1790 4025 c-36 -7 -87 -16 -114 -19 -27 -4 -52 -9 -55 -10 -3 -2
-26 -7 -51 -10 -25 -3 -56 -8 -70 -11 -26 -5 -49 -9 -116 -20 l-41 -6 1 -414
1 -414 25 4 c14 2 48 7 75 11 28 5 52 9 55 9 3 1 25 4 50 9 25 4 65 11 90 16
25 5 61 12 80 14 19 3 59 10 89 16 29 5 55 10 57 10 2 0 3 42 1 93 -1 54 -6
91 -12 90 -80 -13 -103 -16 -120 -18 -11 -1 -33 -6 -50 -10 -16 -5 -41 -9 -55
-11 -14 -1 -25 -3 -25 -4 0 -6 -65 -8 -66 -2 0 4 -1 33 -2 65 -2 65 -8 61 98
77 108 17 128 20 137 26 4 3 8 46 8 95 l0 90 -47 -7 c-27 -3 -51 -8 -55 -10
-7 -5 -68 -13 -117 -17 -23 -2 -24 1 -25 61 -1 48 2 63 14 66 22 6 69 15 115
22 22 3 47 7 55 9 8 3 33 7 55 10 60 8 69 10 81 18 12 7 16 175 5 181 -3 2
-35 -3 -71 -9z"/>
<path d="M1239 3930 c-15 -4 -46 -10 -70 -13 -24 -4 -55 -9 -69 -11 -14 -3
-65 -12 -115 -21 -49 -8 -103 -18 -120 -20 -53 -10 -77 -14 -120 -20 -28 -5
-41 -12 -42 -23 -1 -10 -2 -22 -3 -27 -1 -6 -2 -41 -1 -78 l1 -69 28 6 c15 3
43 8 62 11 19 3 50 8 68 11 17 4 32 2 33 -2 0 -5 2 -147 3 -316 1 -169 4 -309
7 -312 2 -3 45 3 94 12 l90 18 1 317 c1 175 3 319 5 322 3 2 23 7 44 9 66 9
136 23 142 30 9 9 6 167 -4 176 -4 4 -20 4 -34 0z"/>
<path d="M385 3783 c-203 -37 -329 -187 -282 -338 16 -52 64 -91 173 -140 153
-68 182 -105 120 -157 -34 -28 -84 -18 -114 24 -18 25 -25 23 -96 -18 -118
-71 -108 -60 -90 -96 39 -75 107 -112 203 -110 36 0 73 3 81 5 8 2 29 7 45 12
53 14 123 54 159 91 61 62 78 122 61 213 -11 65 -87 138 -180 175 -118 46
-155 72 -155 107 0 22 8 34 31 48 39 24 79 13 110 -31 12 -16 24 -26 28 -21 6
8 22 17 114 65 20 11 37 26 37 32 0 40 -64 116 -96 116 -8 0 -14 4 -14 8 0 4
-10 9 -22 10 -77 7 -95 8 -113 5z"/>
<path d="M5429 3606 c-2 -2 -24 -7 -49 -10 -38 -4 -94 -13 -305 -50 -43 -8
-91 -16 -115 -20 -14 -2 -41 -7 -60 -11 -65 -12 -75 -13 -89 -14 -8 -1 -11 -8
-8 -21 3 -11 1 -23 -4 -26 -5 -3 -6 -10 -3 -16 4 -6 7 -41 8 -77 1 -64 2 -66
26 -64 50 3 136 16 157 24 12 4 25 4 27 0 3 -5 6 -166 6 -359 1 -192 3 -352 6
-355 3 -3 20 -1 37 3 18 5 50 12 72 15 22 4 47 8 55 10 8 2 22 4 31 4 14 1 16
37 15 357 -1 227 3 358 9 363 6 5 44 14 85 20 41 7 82 14 90 16 8 2 20 4 25 4
14 1 13 203 -1 208 -5 2 -12 1 -15 -1z"/>
<path d="M4515 3449 c-55 -10 -115 -21 -134 -24 -19 -3 -36 -7 -38 -8 -3 -3
-89 -297 -103 -352 -4 -16 -24 -88 -45 -159 -20 -70 -38 -133 -40 -140 -1 -6
-5 -18 -8 -26 -4 -12 -52 -178 -61 -215 -2 -5 -6 -17 -9 -25 -3 -8 -7 -25 -10
-37 -5 -23 5 -24 83 -8 13 2 42 7 65 11 22 3 47 8 55 9 8 2 20 4 27 4 6 1 30
59 53 131 28 87 48 131 59 134 43 12 163 27 169 21 4 -3 26 -55 48 -113 23
-59 46 -106 50 -105 5 1 60 9 121 19 126 20 120 13 90 104 -9 25 -45 140 -82
255 -36 116 -76 237 -87 270 -11 33 -21 65 -22 70 -14 58 -63 195 -71 198 -5
2 -55 -5 -110 -14z"/>
<path d="M3682 3304 c-150 -32 -265 -138 -318 -294 -26 -78 -27 -380 -1 -455
24 -71 61 -120 110 -149 49 -29 84 -37 152 -37 164 2 314 87 388 220 26 47 26
51 10 59 -17 9 -160 62 -167 62 -2 0 -15 -20 -31 -43 -35 -56 -76 -80 -136
-80 -100 -1 -130 50 -131 221 -1 172 24 237 106 276 66 31 135 10 172 -53 21
-36 24 -37 50 -13 10 9 45 35 77 56 79 54 80 56 55 102 -60 114 -183 160 -336
128z"/>
<path d="M3379 3255 c-3 -2 -23 -7 -45 -10 -151 -22 -194 -32 -194 -45 0 -5
-23 -57 -51 -116 l-51 -107 -26 44 c-15 24 -27 46 -27 49 0 3 -13 27 -29 53
l-29 49 -56 -7 c-92 -13 -96 -13 -101 -16 -10 -4 -25 -7 -53 -8 -37 -1 -34
-10 59 -167 41 -69 74 -130 74 -135 0 -5 5 -9 10 -9 6 0 10 -4 10 -10 0 -5 14
-32 30 -60 l30 -51 0 -228 c0 -125 2 -230 5 -233 3 -2 44 3 92 13 48 10 91 15
95 13 11 -7 10 -19 12 246 l2 235 128 249 c109 213 137 274 115 251z"/>
<path d="M2540 3109 c-25 -5 -58 -11 -75 -14 -16 -2 -70 -11 -120 -20 -49 -9
-142 -25 -205 -36 -63 -11 -116 -22 -119 -25 -3 -3 -4 -718 -1 -906 0 -20 16
-19 163 8 17 4 46 8 62 10 34 4 296 50 337 59 l26 6 0 104 0 103 -27 -4 c-23
-4 -54 -9 -116 -20 -154 -26 -202 -34 -215 -34 -12 0 -15 14 -15 65 0 69 6 81
45 88 14 2 71 12 128 22 l102 18 0 104 0 105 -37 -6 c-21 -3 -54 -8 -73 -11
-19 -3 -57 -10 -83 -15 -85 -17 -82 -19 -82 64 l0 74 125 21 c69 11 145 23
169 26 77 10 78 11 78 125 0 65 -4 100 -11 99 -6 -1 -31 -5 -56 -10z"/>
<path d="M1560 2939 c-52 -10 -96 -18 -97 -18 0 -1 -1 -210 0 -466 l1 -465 30
6 c17 2 38 7 46 9 8 2 33 6 55 10 22 3 47 7 55 10 8 2 33 6 55 10 138 20 218
35 225 41 10 11 6 204 -5 204 -5 0 -59 -9 -120 -19 -60 -11 -113 -16 -118 -12
-4 4 -7 48 -7 97 0 49 0 105 -1 124 0 19 -1 136 -2 259 -1 140 -6 225 -12 227
-5 1 -53 -6 -105 -17z"/>
<path d="M1028 2851 c-7 -2 -37 -9 -68 -15 l-55 -11 0 -450 c0 -247 1 -458 3
-467 3 -10 9 -15 16 -11 6 4 27 8 46 9 19 1 35 3 35 4 0 1 8 3 18 5 18 3 152
27 172 30 6 1 12 3 15 4 3 2 14 4 25 5 11 2 43 6 70 11 28 5 55 9 60 9 6 1 10
43 10 106 0 64 -4 104 -10 104 -5 -1 -28 -5 -50 -8 -22 -3 -51 -8 -65 -11 -13
-2 -42 -7 -65 -11 -22 -3 -44 -6 -50 -7 -6 -1 -11 119 -12 343 -1 190 -2 351
-2 358 -1 12 -60 14 -93 3z"/>
<path d="M430 2746 c-63 -12 -118 -22 -122 -24 -5 -1 -12 -2 -18 -2 -5 0 -18
-30 -30 -67 -19 -67 -139 -488 -170 -598 -8 -31 -77 -268 -85 -296 -4 -12 1
-15 22 -13 16 1 28 3 28 4 0 1 9 3 20 4 24 3 117 19 128 22 4 1 15 2 25 3 14
1 27 27 57 121 37 118 57 161 69 149 4 -4 40 2 81 11 54 13 77 14 83 6 5 -6
26 -57 47 -113 35 -96 44 -109 70 -103 6 1 24 4 40 6 17 3 41 7 53 10 13 3 43
7 65 10 23 3 45 9 50 13 6 6 -36 156 -64 226 -4 11 -13 38 -19 60 -6 22 -14
47 -17 55 -3 8 -7 20 -9 25 -1 6 -24 75 -49 155 -26 80 -56 174 -67 210 -34
111 -50 150 -62 149 -6 -1 -63 -11 -126 -23z"/>
<path d="M6446 2273 c-2 -2 -19 -5 -37 -7 -19 -2 -63 -9 -99 -15 -36 -6 -83
-13 -106 -15 -22 -3 -98 -15 -170 -26 -71 -12 -145 -24 -164 -26 -19 -3 -46
-7 -59 -9 -13 -2 -45 -7 -70 -11 -25 -4 -55 -8 -66 -10 -11 -3 -40 -7 -64 -10
-40 -5 -56 -16 -150 -106 -195 -185 -486 -385 -620 -426 -59 -18 -68 -18 -115
-4 -28 8 -72 25 -98 38 -111 58 -191 71 -281 49 -73 -18 -231 -55 -255 -60
-61 -11 -159 -54 -193 -84 -22 -18 -59 -59 -81 -90 -108 -147 -191 -182 -373
-157 -74 10 -123 15 -195 21 -36 3 -76 7 -90 10 -14 2 -45 7 -70 10 -179 21
-347 81 -615 219 -77 39 -144 71 -150 71 -19 -2 -129 -17 -146 -20 -9 -2 -40
-7 -70 -10 -30 -4 -63 -9 -74 -11 -11 -2 -38 -6 -60 -9 -56 -7 -96 -14 -125
-20 -14 -3 -43 -7 -65 -9 -22 -3 -53 -7 -70 -10 -81 -14 -173 -28 -203 -32
-18 -1 -41 -5 -50 -8 -17 -5 -104 -17 -152 -21 -28 -2 -28 -10 -1 -65 29 -60
20 -119 -44 -282 -24 -61 -40 -117 -38 -130 3 -13 27 -40 56 -61 64 -47 98
-45 156 9 23 20 51 44 63 52 13 8 28 20 33 26 17 19 88 62 120 73 82 27 185
-28 229 -121 22 -47 17 -102 -25 -313 -13 -66 -4 -81 69 -112 85 -38 86 -38
166 64 106 134 188 189 268 180 61 -8 128 -52 158 -105 24 -42 25 -54 25 -197
1 -165 4 -177 56 -190 54 -13 120 -15 135 -3 8 7 35 52 59 99 50 96 112 174
157 197 50 26 125 27 174 4 40 -20 103 -94 105 -124 0 -6 2 -18 4 -26 25 -98
37 -150 41 -180 12 -70 31 -85 117 -89 71 -3 91 14 112 96 22 82 84 219 114
250 48 51 132 72 195 50 73 -25 122 -86 172 -212 53 -135 77 -160 147 -151 75
9 104 44 113 141 10 97 46 229 72 264 37 49 100 74 178 69 80 -5 117 -33 192
-144 81 -121 95 -136 128 -137 74 -1 143 27 145 61 2 22 2 16 -6 92 -20 177
-11 241 46 307 40 48 85 67 159 67 84 0 116 -19 230 -136 97 -100 110 -104
181 -60 74 48 76 52 49 135 -31 95 -49 182 -50 235 0 78 41 147 110 182 91 46
165 30 313 -69 124 -83 136 -84 199 -22 41 41 48 77 25 118 -73 128 -107 208
-111 267 -4 55 -1 68 24 113 31 54 65 84 115 99 53 17 79 12 294 -65 59 -21
90 -27 102 -21 24 13 89 104 89 125 0 16 -33 70 -55 90 -7 6 -27 30 -46 55
-18 25 -42 54 -52 65 -43 46 -66 149 -46 203 8 22 7 23 -36 21 -25 -2 -47 -4
-49 -6z m-2111 -786 c83 -12 182 -88 210 -160 16 -43 22 -128 12 -184 -17 -97
-116 -195 -211 -210 -17 -3 -38 -6 -46 -8 -20 -3 -90 13 -120 27 -48 23 -105
76 -128 118 -67 126 -16 302 114 386 26 17 113 43 129 38 6 -2 24 -5 40 -7z"/>
</g>
</svg>
