<svg width="43" height="41" viewBox="0 0 43 41" fill="none" xmlns="http://www.w3.org/2000/svg">
<path d="M33.5 5.25H9C7.075 5.25 5.5 6.825 5.5 8.75V33.25C5.5 35.175 7.075 36.75 9 36.75H33.5C35.425 36.75 37 35.175 37 33.25V8.75C37 6.825 35.425 5.25 33.5 5.25ZM16.875 20.125C16.875 21.525 15.65 22.75 14.25 22.75H12.5V26.25H9.875V15.75H14.25C15.65 15.75 16.875 16.975 16.875 18.375V20.125ZM25.625 23.625C25.625 25.025 24.4 26.25 23 26.25H18.625V15.75H23C24.4 15.75 25.625 16.975 25.625 18.375V23.625ZM32.625 18.375H30V20.125H32.625V22.75H30V26.25H27.375V15.75H32.625V18.375ZM21.25 18.375H23V23.625H21.25V18.375ZM12.5 18.375H14.25V20.125H12.5V18.375Z" fill="#F9F8F7"/>
</svg>
