<svg width="43" height="41" viewBox="0 0 43 41" fill="none" xmlns="http://www.w3.org/2000/svg">
<path d="M23.549 3.5C25.5177 3.50525 26.517 3.51575 27.3797 3.54025L27.7192 3.5525C28.1112 3.5665 28.498 3.584 28.9652 3.605C30.8272 3.6925 32.0977 3.9865 33.2125 4.41875C34.3675 4.86325 35.3405 5.46525 36.3135 6.4365C37.2034 7.31132 37.8919 8.36953 38.3312 9.5375C38.7635 10.6522 39.0575 11.9227 39.145 13.7865C39.166 14.252 39.1835 14.6387 39.1975 15.0325L39.208 15.372C39.2342 16.233 39.2447 17.2322 39.2482 19.201L39.25 20.5065V22.799C39.2543 24.0755 39.2409 25.3519 39.2097 26.628L39.1992 26.9675C39.1852 27.3612 39.1677 27.748 39.1467 28.2135C39.0592 30.0772 38.7617 31.346 38.3312 32.4625C37.8932 33.6311 37.2045 34.6896 36.3135 35.5635C35.4384 36.4531 34.3803 37.1416 33.2125 37.5812C32.0977 38.0135 30.8272 38.3075 28.9652 38.395C28.55 38.4146 28.1347 38.432 27.7192 38.4475L27.3797 38.458C26.517 38.4825 25.5177 38.4947 23.549 38.4982L22.2435 38.5H19.9527C18.6757 38.5044 17.3987 38.491 16.122 38.4597L15.7825 38.4492C15.3671 38.4335 14.9517 38.4154 14.5365 38.395C12.6745 38.3075 11.404 38.0135 10.2875 37.5812C9.11967 37.1427 8.06187 36.454 7.18824 35.5635C6.29757 34.689 5.60839 33.6307 5.16875 32.4625C4.7365 31.3477 4.44249 30.0772 4.35499 28.2135C4.3355 27.7983 4.318 27.3829 4.30249 26.9675L4.29375 26.628C4.2615 25.3519 4.24691 24.0755 4.25 22.799V19.201C4.24511 17.9245 4.25795 16.6481 4.2885 15.372L4.30075 15.0325C4.31475 14.6387 4.33225 14.252 4.35325 13.7865C4.44075 11.9227 4.73474 10.654 5.16699 9.5375C5.60644 8.36833 6.29701 7.30979 7.19 6.4365C8.06341 5.54658 9.1205 4.85798 10.2875 4.41875C11.404 3.9865 12.6727 3.6925 14.5365 3.605C15.002 3.584 15.3905 3.5665 15.7825 3.5525L16.122 3.542C17.3981 3.51091 18.6745 3.49749 19.951 3.50175L23.549 3.5ZM21.75 12.25C19.4294 12.25 17.2038 13.1719 15.5628 14.8128C13.9219 16.4538 13 18.6794 13 21C13 23.3206 13.9219 25.5462 15.5628 27.1872C17.2038 28.8281 19.4294 29.75 21.75 29.75C24.0706 29.75 26.2962 28.8281 27.9372 27.1872C29.5781 25.5462 30.5 23.3206 30.5 21C30.5 18.6794 29.5781 16.4538 27.9372 14.8128C26.2962 13.1719 24.0706 12.25 21.75 12.25ZM21.75 15.75C22.4394 15.7499 23.1221 15.8856 23.7591 16.1493C24.3962 16.413 24.975 16.7996 25.4626 17.2871C25.9502 17.7745 26.337 18.3532 26.6009 18.9901C26.8648 19.627 27.0008 20.3097 27.0009 20.9991C27.001 21.6886 26.8653 22.3713 26.6016 23.0083C26.3378 23.6453 25.9512 24.2241 25.4638 24.7117C24.9764 25.1993 24.3977 25.5861 23.7608 25.85C23.1239 26.114 22.4412 26.2499 21.7517 26.25C20.3594 26.25 19.024 25.6969 18.0394 24.7123C17.0549 23.7277 16.5017 22.3924 16.5017 21C16.5017 19.6076 17.0549 18.2723 18.0394 17.2877C19.024 16.3031 20.3594 15.75 21.7517 15.75M30.9392 9.625C30.3591 9.625 29.8027 9.85547 29.3924 10.2657C28.9822 10.6759 28.7517 11.2323 28.7517 11.8125C28.7517 12.3927 28.9822 12.9491 29.3924 13.3593C29.8027 13.7695 30.3591 14 30.9392 14C31.5194 14 32.0758 13.7695 32.486 13.3593C32.8963 12.9491 33.1267 12.3927 33.1267 11.8125C33.1267 11.2323 32.8963 10.6759 32.486 10.2657C32.0758 9.85547 31.5194 9.625 30.9392 9.625Z" fill="#F9F8F7"/>
</svg>
