<svg width="43" height="41" viewBox="0 0 43 41" fill="none" xmlns="http://www.w3.org/2000/svg">
<path d="M31.575 19.075C25.975 15.75 16.6125 15.4 11.275 17.0625C10.4 17.325 9.525 16.8 9.2625 16.0125C9 15.1375 9.525 14.2625 10.3125 14C16.525 12.1625 26.7625 12.5125 33.2375 16.3625C34.025 16.8 34.2875 17.85 33.85 18.6375C33.4125 19.25 32.3625 19.5125 31.575 19.075ZM31.4 23.975C30.9625 24.5875 30.175 24.85 29.5625 24.4125C24.8375 21.525 17.6625 20.65 12.15 22.4C11.45 22.575 10.6625 22.225 10.4875 21.525C10.3125 20.825 10.6625 20.0375 11.3625 19.8625C17.75 17.9375 25.625 18.9 31.05 22.225C31.575 22.4875 31.8375 23.3625 31.4 23.975ZM29.3 28.7875C28.95 29.3125 28.3375 29.4875 27.8125 29.1375C23.7 26.6 18.5375 26.075 12.4125 27.475C11.8 27.65 11.275 27.2125 11.1 26.6875C10.925 26.075 11.3625 25.55 11.8875 25.375C18.5375 23.8875 24.3125 24.5 28.8625 27.3C29.475 27.5625 29.5625 28.2625 29.3 28.7875ZM21.25 3.5C18.9519 3.5 16.6762 3.95265 14.553 4.83211C12.4298 5.71157 10.5007 7.00061 8.87563 8.62563C5.59374 11.9075 3.75 16.3587 3.75 21C3.75 25.6413 5.59374 30.0925 8.87563 33.3744C10.5007 34.9994 12.4298 36.2884 14.553 37.1679C16.6762 38.0474 18.9519 38.5 21.25 38.5C25.8913 38.5 30.3425 36.6563 33.6244 33.3744C36.9063 30.0925 38.75 25.6413 38.75 21C38.75 18.7019 38.2974 16.4262 37.4179 14.303C36.5384 12.1798 35.2494 10.2507 33.6244 8.62563C31.9993 7.00061 30.0702 5.71157 27.947 4.83211C25.8238 3.95265 23.5481 3.5 21.25 3.5Z" fill="#F9F8F7"/>
</svg>
