<svg xmlns="http://www.w3.org/2000/svg" width="39.694" height="41.804" viewBox="0 0 39.694 41.804">
  <g>
    <path d="M31.114,12.377a4.792,4.792,0,0,0-2.743-2.743,7.988,7.988,0,0,0-2.684-.5c-1.524-.07-1.981-.085-5.84-.085s-4.317.015-5.841.085a8,8,0,0,0-2.684.5,4.792,4.792,0,0,0-2.743,2.743,8,8,0,0,0-.5,2.684C8.012,16.585,8,17.043,8,20.9s.015,4.316.085,5.841a7.986,7.986,0,0,0,.5,2.683,4.784,4.784,0,0,0,2.743,2.743,7.992,7.992,0,0,0,2.684.5c1.524.07,1.981.084,5.841.084s4.317-.014,5.84-.084a7.98,7.98,0,0,0,2.684-.5,4.784,4.784,0,0,0,2.743-2.743,7.98,7.98,0,0,0,.5-2.684c.07-1.524.084-1.981.084-5.84s-.014-4.317-.084-5.841A7.992,7.992,0,0,0,31.114,12.377ZM19.847,28.324A7.422,7.422,0,1,1,27.269,20.9,7.422,7.422,0,0,1,19.847,28.324Zm7.715-13.4A1.735,1.735,0,1,1,29.3,13.186,1.734,1.734,0,0,1,27.562,14.921Z" fill="#f8f8f7"/>
    <circle cx="19.847" cy="20.902" r="4.818" transform="translate(-8.967 20.156) rotate(-45)" fill="#f8f8f7"/>
    <path d="M0,0V41.8H39.694V0ZM34.214,26.861a10.641,10.641,0,0,1-.672,3.509A7.39,7.39,0,0,1,29.315,34.6a10.615,10.615,0,0,1-3.509.672c-1.541.07-2.034.087-5.959.087s-4.418-.017-5.959-.087a10.609,10.609,0,0,1-3.509-.672A7.39,7.39,0,0,1,6.152,30.37a10.615,10.615,0,0,1-.672-3.509c-.07-1.541-.087-2.034-.087-5.959s.017-4.418.087-5.959a10.615,10.615,0,0,1,.672-3.509,7.39,7.39,0,0,1,4.227-4.227,10.609,10.609,0,0,1,3.509-.672c1.541-.07,2.033-.087,5.959-.087s4.418.017,5.959.087a10.615,10.615,0,0,1,3.509.672,7.39,7.39,0,0,1,4.227,4.227,10.641,10.641,0,0,1,.672,3.509c.07,1.541.087,2.033.087,5.959S34.284,25.32,34.214,26.861Z" fill="#f8f8f7"/>
  </g>
</svg>
