<?xml version="1.0" encoding="UTF-8" standalone="no"?>
<!-- Generator: Gravit.io -->
<svg xmlns="http://www.w3.org/2000/svg" xmlns:xlink="http://www.w3.org/1999/xlink" style="isolation:isolate" viewBox="97.667 154 1058.571 1004" width="1058.571pt" height="1004pt"><g><g><path d=" M 743.509 1047.816 C 723.059 1050.248 699.989 1035.205 698.023 1011.629 C 696.143 989.105 713.529 965.59 734.491 963.509 C 754.544 961.518 779.005 977.531 779.003 1000.992 C 781.45 1024.258 765.4 1045.213 743.509 1047.816 Z  M 1078.228 877.373 C 1070.264 867.177 1069.862 853.911 1074.106 844.921 C 1069.463 845.229 939.12 865.452 928.383 867.102 C 899.83 896.695 867.558 922.1 830.825 941.79 C 826.128 944.307 820.716 945.496 813.109 948.199 C 806.041 946.194 796.447 945.35 788.972 940.932 C 776.322 933.455 763.732 929.141 749.235 932.622 C 729.393 937.386 709.087 940.995 690.041 947.987 C 681.019 951.299 672.62 960.121 667.171 968.532 C 655.579 986.426 641.298 995.559 619.413 992.478 C 594.312 988.947 568.741 988.106 543.938 983.237 C 510.164 976.603 476.477 957.535 446.2 941.753 C 439.449 942.411 297.336 964.031 287.681 965.661 C 292.655 971.538 297.132 980.186 295.536 988.302 C 293.159 1000.397 288.401 1012.161 283.599 1023.609 C 278.532 1035.688 278.619 1037.862 289.673 1045.197 C 291.029 1046.095 292.368 1047.013 293.711 1047.929 C 299.077 1051.58 303.416 1052.106 308.887 1046.774 C 316.603 1039.251 325.493 1032.871 334.21 1026.448 C 343.689 1019.468 354.514 1017.246 364.822 1023.486 C 376.622 1030.633 383.62 1041.002 380.538 1056 C 378.365 1066.565 377.673 1077.493 374.794 1087.834 C 372.457 1096.225 377.176 1099.401 382.859 1101.366 C 389.4 1103.629 396.309 1111.219 403.475 1101.843 C 408.928 1094.71 414.371 1087.5 420.526 1080.993 C 430.872 1070.055 443.018 1061.28 458.763 1068.007 C 471.626 1073.504 478.046 1084.94 478.397 1099.039 C 478.588 1106.817 477.813 1114.618 477.5 1122.409 C 477.186 1130.227 476.141 1137.365 487.375 1139.926 C 502.62 1143.398 505.78 1143.443 511.316 1132.919 C 514.938 1126.034 517.556 1118.431 522.158 1112.297 C 527.138 1105.657 532.89 1097.909 540.084 1094.939 C 558.929 1087.158 575.648 1097.519 580.444 1116.064 C 583.242 1126.891 586.12 1137.755 587.85 1148.776 C 588.811 1154.891 591.427 1156.981 597.052 1157.076 C 600.075 1157.127 603.088 1157.988 606.11 1158 C 613.086 1158.029 617.876 1156.696 619.898 1147.893 C 622.664 1135.864 626.908 1123.727 632.931 1112.984 C 643.777 1093.628 668.165 1091.748 681.403 1108.576 C 689.056 1118.304 693.146 1131.038 697.823 1142.82 C 701.624 1152.392 707.674 1154.525 717.171 1152.786 C 726.735 1151.037 729.984 1145.859 731.057 1136.55 C 732.556 1123.563 734.814 1110.435 738.791 1098.018 C 742.783 1085.551 760.847 1078.802 773.548 1082.085 C 789.064 1086.097 794.629 1099.474 802.304 1110.803 C 812.966 1126.541 812.626 1126.339 830.083 1122.119 C 837.522 1120.32 839.477 1116.531 838.588 1109.64 C 837.352 1100.058 836.37 1090.436 835.524 1080.811 C 834.267 1066.555 842.561 1052.523 855.078 1047.336 C 868.694 1041.695 883.341 1045.24 893.226 1056.217 C 898.218 1061.759 904.44 1066.342 908.722 1072.342 C 916.264 1082.912 923.628 1079.396 931.515 1073.518 C 933.693 1071.895 936.182 1070.435 937.743 1068.324 C 939.002 1066.622 940.042 1063.777 939.512 1061.912 C 937.395 1054.486 933.772 1047.411 932.318 1039.896 C 930.519 1030.589 927.658 1020.275 929.944 1011.631 C 935.966 988.864 962.683 981.337 981.789 995.381 C 988.904 1000.61 996.981 1004.585 1003.844 1010.095 C 1012.799 1017.28 1017.431 1010.058 1022.761 1005.363 C 1028.384 1000.411 1030.28 995.32 1025.83 987.512 C 1018.197 974.12 1008.893 961.265 1008.682 944.574 C 1008.482 928.882 1025.678 911.873 1040.894 915.446 C 1054.604 918.665 1067.898 923.926 1081.059 929.086 C 1092.554 933.593 1093.947 922.85 1099.066 918.044 C 1103.444 913.932 1103.978 909.029 1099.485 903.806 C 1092.115 895.239 1085.186 886.284 1078.228 877.373 Z " fill-rule="evenodd" fill="rgb(0,0,0)"/><path d=" M 574.579 337.516 C 552.368 339.878 534.274 328.096 532.355 308.882 C 529.767 282.959 548.019 264.804 571.855 262.446 C 594.64 260.192 609.055 273.482 612.073 299.453 C 613.814 314.446 593.021 335.553 574.579 337.516 Z  M 1077.428 394.862 C 1075.505 389.894 1076.884 387.173 1080.538 381.01 C 1085.372 372.857 1090.215 364.709 1094.869 356.452 C 1097.819 351.217 1103.687 344.809 1102.441 340.674 C 1100.458 334.097 1094.222 328.231 1088.498 323.678 C 1086.692 322.241 1080.633 325.682 1076.745 327.398 C 1069.629 330.538 1062.559 333.832 1055.682 337.46 C 1036.504 347.583 1024.547 342.152 1013.65 331.99 C 1005.619 324.501 1004.867 310.358 1011.311 295.986 C 1014.643 288.557 1017.35 280.844 1020.782 273.466 C 1023.303 268.051 1023.097 262.626 1017.741 260.533 C 1010.733 257.796 1005.284 246.485 995.306 255.723 C 988.326 262.187 980.731 268.008 973.248 273.91 C 962.623 282.291 947.635 284.24 938.315 278.69 C 923.747 270.012 918.98 259.126 922.435 242.478 C 924.081 234.547 925.327 226.512 927.417 218.698 C 929.716 210.111 924.344 206.673 918.096 204.392 C 912.336 202.286 906.438 196.232 900.206 205.128 C 894.761 212.897 887.654 219.512 881.263 226.618 C 865.108 244.586 841.524 241.022 830.524 225.034 C 820.906 211.055 825.443 195.876 824.928 181.28 C 824.709 175.046 825.648 169.68 818.508 169.187 C 810.948 168.665 802.226 159.397 795.66 172.434 C 789.591 184.487 782.825 196.588 774.2 206.857 C 764.213 218.746 739.859 217.64 731.307 204.896 C 725.928 196.881 723.288 186.44 721.549 176.71 C 718.057 157.152 718.223 156.665 698.446 155.496 C 696.527 155.383 694.643 154.712 691.361 154 C 687.649 164.765 683.894 175.117 680.518 185.591 C 676.739 197.318 669.996 206.511 657.797 209.797 C 644.081 213.491 631.399 210.956 623.673 197.939 C 618.228 188.765 612.84 178.973 610.399 168.748 C 606.942 154.261 597.772 161.01 589.859 160.786 C 580.224 160.517 579.975 167.278 579.173 173.655 C 577.915 183.69 578.135 194.048 575.705 203.768 C 569.843 227.242 540.776 235.591 526.479 221.272 C 519.344 214.128 512.896 206.119 507.18 197.787 C 498.884 185.692 497.499 185.172 483.825 190.775 C 476.893 193.616 475.104 197.482 475.692 204.892 C 476.679 217.327 478.64 230.613 475.464 242.257 C 469.115 265.53 437.63 272.847 418.739 251.148 C 411.945 243.345 404.06 236.485 397.003 229.521 C 390.763 233.375 385.515 235.993 381.093 239.616 C 378.945 241.378 376.8 245.351 377.316 247.749 C 379.018 255.634 381.843 263.287 384.411 270.97 C 389.848 287.241 386.335 302.104 375.918 310.897 C 365.437 319.745 347.605 322.342 333.699 311.003 C 327.944 306.31 320.888 303.24 314.66 299.079 C 304.821 292.506 299.943 301.688 295.033 306.332 C 292.235 308.979 291.922 316.579 293.436 320.926 C 296.168 328.767 301.105 335.846 305.129 343.238 C 311.405 354.761 310.895 366.428 302.727 376.252 C 293.525 387.318 281.365 393.071 266.453 388.135 C 259.045 385.681 251.631 383.08 244.552 379.827 C 230.063 373.169 225.06 374.418 218.649 388.867 C 217.335 391.829 218.562 397.216 220.588 400.109 C 226.799 408.969 234.883 416.59 240.579 425.725 C 253.301 446.122 240.866 471.622 217.009 472.904 C 204.032 473.602 190.862 469.95 177.725 469.075 C 174.812 468.881 169.84 471.493 168.992 473.919 C 166.886 479.943 157.928 485.454 164.752 492.651 C 172.137 500.439 181.156 506.662 188.769 514.261 C 194.471 519.951 197.989 524.916 199.439 529.994 C 208.323 528.655 325.447 510.425 332.2 509.766 C 341.653 495.414 351.457 481.263 361.905 467.643 C 388.056 433.548 420.282 405.706 456.021 382.219 C 469.95 373.064 485.782 366.498 501.379 360.35 C 506.199 358.449 514.283 360.051 518.851 363.085 C 541.023 377.799 563.816 373.64 586.921 367.077 C 596.345 364.4 605.508 360.605 615.062 358.645 C 628.663 355.855 637.386 346.336 643.955 336.164 C 655.925 317.63 671.9 313.447 692.783 313.89 C 725 314.577 756.336 319.454 787.245 327.516 C 823.907 337.079 859.088 350.841 890.768 371.768 C 910.085 384.526 929.975 400.176 947.738 414.958 C 959.117 412.964 1059.459 398.394 1077.428 394.862 Z " fill-rule="evenodd" fill="rgb(0,0,0)"/><g><path d=" M 195.209 709.393 C 194.986 713.425 193.819 717.371 191.709 721.229 C 189.595 725.089 186.685 728.643 182.975 731.888 C 179.261 735.132 174.775 737.957 169.516 740.362 C 164.26 742.765 158.312 744.54 151.68 745.683 C 146.535 746.569 141.7 746.736 137.185 746.186 C 132.663 745.633 128.575 744.451 124.912 742.643 C 121.246 740.835 118.13 738.404 115.553 735.351 C 112.975 732.303 111.109 728.66 109.961 724.42 L 137.39 708.543 C 137.162 708.696 137.419 709.427 138.166 710.739 C 138.908 712.053 139.97 713.398 141.346 714.769 C 142.718 716.14 144.408 717.29 146.412 718.221 C 148.411 719.152 150.559 719.253 152.846 718.527 C 154.787 717.971 156.702 716.809 158.587 715.042 C 160.474 713.275 161.356 710.849 161.238 707.761 C 161.12 705.896 160.345 704.282 158.915 702.921 C 157.481 701.561 155.45 700.218 152.821 698.895 C 146.983 696.133 141.573 693.763 136.595 691.791 C 131.617 689.822 127.267 687.603 123.546 685.138 C 119.824 682.675 116.906 679.684 114.785 676.165 C 112.661 672.65 111.599 667.952 111.592 662.073 C 111.585 656.639 112.719 651.674 115.003 647.175 C 117.283 642.679 120.311 638.717 124.08 635.293 C 127.851 631.872 132.191 629.016 137.108 626.727 C 142.019 624.439 147.109 622.783 152.37 621.767 C 158.657 620.683 164.179 620.589 168.926 621.491 C 173.671 622.395 177.679 623.894 180.942 625.993 C 184.204 628.092 186.753 630.678 188.589 633.742 C 190.421 636.815 191.625 639.96 192.204 643.189 L 167.004 657.183 C 166.657 656.023 166.142 654.749 165.453 653.373 C 164.765 651.994 163.82 650.772 162.615 649.7 C 161.414 648.635 159.981 647.801 158.323 647.195 C 156.666 646.596 154.748 646.483 152.575 646.857 C 150.286 647.252 148.203 648.303 146.319 650.013 C 144.434 651.727 143.491 653.97 143.495 656.74 C 143.498 658.848 144.386 660.555 146.164 661.855 C 147.935 663.161 150.714 664.816 154.492 666.826 C 159.754 668.806 164.818 670.817 169.683 672.862 C 174.545 674.907 178.869 677.433 182.646 680.444 C 186.425 683.452 189.458 687.065 191.753 691.27 C 194.046 695.478 195.197 700.744 195.205 707.064 L 195.209 709.393 Z " fill="rgb(0,0,0)"/><path d=" M 288.907 598.235 L 288.945 626.181 L 259.96 631.176 L 260.09 726.999 L 231.271 731.966 L 231.142 636.143 L 202.152 641.139 L 202.114 613.193 L 288.907 598.235 Z " fill="rgb(0,0,0)"/><path d=" M 376.425 611.104 L 327.026 619.618 L 327.053 639.581 L 363.415 633.314 L 363.452 661.263 L 327.091 667.53 L 327.118 687.49 L 376.517 678.976 L 376.555 706.926 L 298.337 720.406 L 298.169 596.638 L 376.387 583.157 L 376.425 611.104 Z " fill="rgb(0,0,0)"/><path d=" M 465.961 595.672 L 416.562 604.186 L 416.589 624.149 L 452.951 617.882 L 452.989 645.831 L 416.627 652.098 L 416.654 672.059 L 466.054 663.545 L 466.092 691.495 L 387.874 704.975 L 387.705 581.207 L 465.923 567.726 L 465.961 595.672 Z " fill="rgb(0,0,0)"/><path d=" M 506.19 656.628 L 540.324 650.745 L 540.362 678.694 L 477.41 689.543 L 477.242 565.776 L 506.06 560.809 L 506.19 656.628 Z " fill="rgb(0,0,0)"/><path d=" M 648.215 632.65 C 653.128 632.135 657.22 630.21 660.472 626.875 C 663.727 623.544 666.21 619.788 667.919 615.609 L 692.81 624.799 C 691.785 626.97 690.33 629.777 688.448 633.203 C 686.566 636.636 683.912 640.143 680.483 643.73 C 677.056 647.313 672.687 650.648 667.374 653.724 C 662.058 656.805 655.512 659.013 647.737 660.354 L 647.566 660.383 C 638.874 661.881 631.582 661.809 625.691 660.16 C 619.794 658.514 614.989 655.766 611.266 651.914 C 607.543 648.061 604.823 643.32 603.1 637.682 C 601.374 632.044 600.336 626.038 599.986 619.665 L 599.951 594.045 C 600.059 587.928 601.106 581.726 603.101 575.45 C 605.091 569.171 608.059 563.363 611.996 558.025 C 615.935 552.686 620.874 548.09 626.819 544.238 C 632.76 540.383 639.68 537.78 647.568 536.42 L 647.739 536.391 C 654.711 535.188 660.72 535.094 665.755 536.112 C 670.787 537.134 675.108 538.828 678.713 541.2 C 682.321 543.574 685.241 546.455 687.476 549.841 C 689.712 553.227 691.46 556.698 692.722 560.253 L 667.869 578.015 C 667.183 576.135 666.234 574.246 665.031 572.346 C 663.83 570.449 662.368 568.811 660.65 567.444 C 658.934 566.075 656.984 565.079 654.813 564.455 C 652.639 563.833 650.35 563.784 647.948 564.306 C 642.116 565.755 637.46 568.806 633.981 573.455 C 630.494 578.106 628.758 583.48 628.767 589.58 L 628.8 613.698 C 628.807 619.801 630.588 624.622 634.139 628.169 C 637.688 631.72 642.383 633.214 648.215 632.65 Z " fill="rgb(0,0,0)"/><path d=" M 733.158 521.668 L 733.327 645.436 L 704.509 650.403 L 704.34 526.635 L 733.158 521.668 Z " fill="rgb(0,0,0)"/><path d=" M 830.242 504.936 L 830.279 532.881 L 801.294 537.878 L 801.425 633.7 L 772.606 638.667 L 772.476 542.845 L 743.487 547.841 L 743.448 519.895 L 830.242 504.936 Z " fill="rgb(0,0,0)"/><path d=" M 932.474 487.317 L 898.249 555.112 L 898.334 616.997 L 871.234 621.668 L 871.15 559.783 L 838.305 503.547 L 870.549 497.989 L 885.513 524.695 L 900.226 492.874 L 932.474 487.317 Z " fill="rgb(0,0,0)"/><path d=" M 175.106 876.433 L 147.156 881.25 L 134.482 920.083 L 97.667 926.429 L 139.499 780.1 L 182.676 772.657 L 224.887 904.501 L 188.071 910.846 L 175.106 876.433 Z " fill="rgb(0,0,0)"/><path d=" M 265.323 866.117 L 303.682 859.506 L 303.724 890.914 L 232.981 903.106 L 232.791 764.02 L 265.176 758.439 L 265.323 866.117 Z " fill="rgb(0,0,0)"/><path d=" M 348.402 851.798 L 386.761 845.187 L 386.804 876.595 L 316.06 888.788 L 315.871 749.701 L 348.256 744.12 L 348.402 851.798 Z " fill="rgb(0,0,0)"/><path d=" M 486.891 751.639 L 431.378 761.206 L 431.409 783.64 L 472.271 776.598 L 472.314 808.006 L 431.451 815.048 L 431.482 837.48 L 486.995 827.912 L 487.038 859.32 L 399.14 874.469 L 398.95 735.383 L 486.848 720.234 L 486.891 751.639 Z " fill="rgb(0,0,0)"/><path d=" M 604.044 700.035 L 565.584 776.222 L 565.68 845.767 L 535.226 851.015 L 535.131 781.47 L 498.221 718.274 L 534.457 712.029 L 551.272 742.04 L 567.805 706.282 L 604.044 700.035 Z " fill="rgb(0,0,0)"/><path d=" M 650.836 800.237 C 656.357 799.658 660.955 797.495 664.61 793.747 C 668.269 790.004 671.058 785.782 672.979 781.086 L 700.951 791.413 C 699.798 793.854 698.162 797.008 696.048 800.858 C 693.933 804.715 690.951 808.657 687.098 812.688 C 683.246 816.715 678.337 820.462 672.366 823.919 C 666.391 827.381 659.036 829.863 650.299 831.369 L 650.106 831.402 C 640.339 833.085 632.144 833.005 625.525 831.15 C 618.898 829.302 613.498 826.214 609.314 821.884 C 605.13 817.556 602.073 812.227 600.137 805.891 C 598.196 799.554 597.032 792.805 596.637 785.644 L 596.598 756.853 C 596.72 749.98 597.897 743.01 600.138 735.956 C 602.375 728.901 605.711 722.374 610.135 716.375 C 614.562 710.376 620.111 705.211 626.791 700.882 C 633.468 696.551 641.244 693.624 650.108 692.096 L 650.301 692.063 C 658.137 690.713 664.888 690.607 670.546 691.75 C 676.201 692.899 681.058 694.803 685.109 697.468 C 689.164 700.137 692.444 703.374 694.956 707.179 C 697.47 710.985 699.434 714.884 700.852 718.878 L 672.922 738.84 C 672.152 736.727 671.085 734.605 669.733 732.469 C 668.383 730.336 666.74 728.497 664.81 726.96 C 662.88 725.422 660.691 724.303 658.25 723.602 C 655.808 722.902 653.235 722.846 650.536 723.435 C 643.983 725.063 638.749 728.491 634.839 733.715 C 630.922 738.942 628.971 744.98 628.981 751.835 L 629.017 778.939 C 629.027 785.798 631.027 791.214 635.018 795.201 C 639.006 799.192 644.282 800.871 650.836 800.237 Z " fill="rgb(0,0,0)"/><path d=" M 781.519 771.918 L 753.569 776.735 L 740.895 815.569 L 704.08 821.914 L 745.912 675.585 L 789.089 668.143 L 831.3 799.987 L 794.484 806.332 L 781.519 771.918 Z " fill="rgb(0,0,0)"/><path d=" M 912.067 646.948 L 912.11 678.353 L 879.537 683.967 L 879.684 791.648 L 847.299 797.229 L 847.153 689.548 L 814.575 695.163 L 814.532 663.758 L 912.067 646.948 Z " fill="rgb(0,0,0)"/></g><path d=" M 1116.825 614.461 L 1156.238 607.597 L 1154.323 678.508 L 1114.909 685.372 L 1112.766 764.724 L 1039.194 777.537 L 1041.337 698.184 L 934.045 716.869 L 935.96 645.958 L 935.96 645.958 L 1047.654 464.347 L 1047.677 463.503 L 1121.249 450.69 L 1116.825 614.461 L 1116.825 614.461 Z " fill="rgb(0,0,0)"/></g></g></svg>