<?xml version="1.0" encoding="UTF-8" standalone="no"?><!-- Generator: Gravit.io --><svg xmlns="http://www.w3.org/2000/svg" xmlns:xlink="http://www.w3.org/1999/xlink" style="isolation:isolate" viewBox="733.863 308.316 531.814 504.399" width="531.814pt" height="504.399pt"><path d=" M 1058.327 757.359 C 1048.053 758.581 1036.463 751.023 1035.475 739.179 C 1034.531 727.863 1043.265 716.05 1053.797 715.004 C 1063.871 714.004 1076.16 722.048 1076.159 733.835 C 1077.388 745.524 1069.325 756.051 1058.327 757.359 Z  M 1226.486 671.73 C 1222.485 666.608 1222.283 659.943 1224.415 655.427 C 1222.083 655.582 1156.6 665.741 1151.206 666.57 C 1136.861 681.438 1120.648 694.201 1102.193 704.093 C 1099.834 705.357 1097.115 705.955 1093.293 707.312 C 1089.743 706.305 1084.923 705.881 1081.167 703.661 C 1074.812 699.905 1068.487 697.738 1061.204 699.487 C 1051.235 701.88 1041.034 703.693 1031.465 707.206 C 1026.933 708.87 1022.713 713.302 1019.976 717.528 C 1014.152 726.517 1006.977 731.106 995.983 729.558 C 983.372 727.784 970.525 727.361 958.065 724.915 C 941.097 721.582 924.173 712.003 908.962 704.074 C 905.571 704.405 834.175 715.266 829.324 716.085 C 831.823 719.038 834.072 723.382 833.27 727.46 C 832.076 733.536 829.686 739.446 827.273 745.198 C 824.728 751.266 824.771 752.358 830.325 756.043 C 831.006 756.494 831.679 756.956 832.354 757.416 C 835.049 759.25 837.229 759.514 839.978 756.835 C 843.854 753.056 848.32 749.851 852.7 746.624 C 857.462 743.117 862.9 742.001 868.079 745.136 C 874.007 748.726 877.523 753.936 875.974 761.47 C 874.883 766.778 874.535 772.268 873.089 777.464 C 871.915 781.679 874.286 783.275 877.14 784.262 C 880.426 785.399 883.897 789.212 887.498 784.501 C 890.237 780.918 892.972 777.296 896.064 774.027 C 901.262 768.532 907.364 764.123 915.274 767.503 C 921.736 770.264 924.962 776.01 925.137 783.093 C 925.234 787 924.844 790.92 924.687 794.834 C 924.529 798.761 924.004 802.348 929.648 803.634 C 937.307 805.378 938.894 805.401 941.676 800.114 C 943.496 796.655 944.811 792.835 947.123 789.754 C 949.625 786.418 952.514 782.525 956.128 781.033 C 965.596 777.124 973.995 782.329 976.405 791.646 C 977.81 797.085 979.257 802.543 980.125 808.08 C 980.609 811.152 981.923 812.202 984.749 812.25 C 986.267 812.276 987.781 812.708 989.299 812.714 C 992.804 812.729 995.21 812.059 996.226 807.637 C 997.616 801.593 999.748 795.496 1002.774 790.099 C 1008.223 780.374 1020.475 779.43 1027.126 787.884 C 1030.97 792.771 1033.025 799.169 1035.375 805.088 C 1037.284 809.897 1040.324 810.969 1045.095 810.095 C 1049.9 809.216 1051.532 806.615 1052.071 801.938 C 1052.825 795.413 1053.959 788.818 1055.957 782.58 C 1057.963 776.317 1067.038 772.926 1073.418 774.575 C 1081.213 776.591 1084.009 783.312 1087.865 789.003 C 1093.222 796.909 1093.051 796.808 1101.821 794.688 C 1105.558 793.784 1106.54 791.881 1106.094 788.419 C 1105.473 783.605 1104.98 778.771 1104.554 773.935 C 1103.923 766.773 1108.09 759.724 1114.378 757.118 C 1121.219 754.284 1128.577 756.065 1133.543 761.58 C 1136.051 764.364 1139.177 766.666 1141.328 769.681 C 1145.117 774.991 1148.817 773.224 1152.779 770.271 C 1153.873 769.456 1155.124 768.723 1155.908 767.662 C 1156.54 766.807 1157.063 765.378 1156.797 764.44 C 1155.733 760.71 1153.913 757.155 1153.183 753.38 C 1152.279 748.704 1150.842 743.523 1151.99 739.18 C 1155.016 727.742 1168.437 723.961 1178.037 731.016 C 1181.611 733.643 1185.668 735.64 1189.117 738.409 C 1193.615 742.018 1195.942 738.39 1198.62 736.031 C 1201.445 733.543 1202.397 730.985 1200.162 727.063 C 1196.327 720.335 1191.653 713.877 1191.547 705.491 C 1191.447 697.608 1200.085 689.063 1207.73 690.858 C 1214.618 692.475 1221.296 695.118 1227.908 697.71 C 1233.684 699.975 1234.383 694.577 1236.955 692.163 C 1239.154 690.097 1239.423 687.634 1237.166 685.01 C 1233.463 680.706 1229.982 676.207 1226.486 671.73 Z  M 973.459 400.512 C 962.3 401.699 953.21 395.78 952.246 386.127 C 950.945 373.104 960.115 363.983 972.09 362.798 C 983.537 361.666 990.779 368.342 992.295 381.39 C 993.17 388.922 982.724 399.526 973.459 400.512 Z  M 1226.084 429.322 C 1225.118 426.826 1225.811 425.459 1227.647 422.363 C 1230.075 418.267 1232.508 414.174 1234.846 410.026 C 1236.328 407.395 1239.277 404.176 1238.65 402.098 C 1237.654 398.794 1234.521 395.847 1231.646 393.56 C 1230.738 392.838 1227.695 394.567 1225.741 395.429 C 1222.166 397.006 1218.614 398.661 1215.159 400.484 C 1205.524 405.57 1199.518 402.841 1194.043 397.736 C 1190.008 393.974 1189.63 386.868 1192.868 379.648 C 1194.542 375.916 1195.901 372.041 1197.626 368.334 C 1198.892 365.614 1198.789 362.888 1196.098 361.837 C 1192.577 360.462 1189.84 354.779 1184.827 359.42 C 1181.321 362.668 1177.505 365.592 1173.745 368.557 C 1168.407 372.768 1160.878 373.747 1156.195 370.958 C 1148.876 366.599 1146.482 361.13 1148.217 352.766 C 1149.044 348.781 1149.671 344.745 1150.72 340.819 C 1151.875 336.506 1149.177 334.778 1146.038 333.632 C 1143.144 332.574 1140.181 329.533 1137.05 334.002 C 1134.314 337.905 1130.744 341.228 1127.533 344.798 C 1119.417 353.825 1107.569 352.035 1102.042 344.002 C 1097.21 336.98 1099.49 329.354 1099.231 322.021 C 1099.121 318.889 1099.593 316.193 1096.006 315.946 C 1092.208 315.683 1087.826 311.027 1084.527 317.577 C 1081.478 323.632 1078.079 329.712 1073.746 334.87 C 1068.728 340.843 1056.493 340.288 1052.197 333.885 C 1049.494 329.859 1048.168 324.613 1047.295 319.725 C 1045.54 309.899 1045.624 309.655 1035.688 309.067 C 1034.724 309.011 1033.777 308.674 1032.128 308.316 C 1030.264 313.724 1028.377 318.925 1026.681 324.187 C 1024.783 330.078 1021.395 334.696 1015.266 336.347 C 1008.376 338.203 1002.004 336.93 998.123 330.39 C 995.387 325.781 992.68 320.862 991.454 315.725 C 989.717 308.447 985.11 311.837 981.135 311.725 C 976.294 311.59 976.169 314.986 975.767 318.19 C 975.134 323.232 975.245 328.435 974.024 333.319 C 971.079 345.112 956.476 349.306 949.293 342.113 C 945.709 338.523 942.47 334.5 939.598 330.314 C 935.43 324.238 934.734 323.976 927.865 326.791 C 924.382 328.219 923.483 330.161 923.779 333.883 C 924.274 340.131 925.26 346.805 923.664 352.655 C 920.474 364.347 904.657 368.023 895.166 357.122 C 891.753 353.202 887.792 349.756 884.246 346.257 C 881.111 348.193 878.475 349.508 876.253 351.328 C 875.174 352.214 874.096 354.21 874.356 355.414 C 875.211 359.375 876.63 363.22 877.92 367.08 C 880.652 375.255 878.887 382.721 873.653 387.139 C 868.388 391.584 859.429 392.889 852.443 387.192 C 849.552 384.835 846.007 383.292 842.878 381.202 C 837.935 377.9 835.485 382.513 833.017 384.846 C 831.612 386.176 831.455 389.994 832.215 392.177 C 833.588 396.117 836.068 399.673 838.09 403.387 C 841.243 409.176 840.986 415.037 836.883 419.973 C 832.26 425.532 826.151 428.423 818.659 425.943 C 814.938 424.71 811.213 423.403 807.657 421.769 C 800.378 418.424 797.864 419.051 794.643 426.31 C 793.983 427.798 794.599 430.505 795.617 431.958 C 798.737 436.409 802.799 440.238 805.661 444.827 C 812.052 455.075 805.805 467.885 793.819 468.529 C 787.3 468.88 780.683 467.045 774.083 466.606 C 772.62 466.509 770.122 467.821 769.696 469.039 C 768.638 472.066 764.137 474.834 767.566 478.45 C 771.276 482.363 775.807 485.489 779.632 489.307 C 782.497 492.166 784.264 494.66 784.992 497.211 C 789.456 496.538 848.297 487.38 851.69 487.049 C 856.439 479.838 861.364 472.729 866.614 465.886 C 879.751 448.758 895.942 434.77 913.896 422.97 C 920.894 418.371 928.848 415.072 936.684 411.984 C 939.105 411.029 943.166 411.834 945.462 413.357 C 956.6 420.75 968.051 418.66 979.659 415.363 C 984.394 414.018 988.997 412.112 993.797 411.127 C 1000.629 409.725 1005.012 404.943 1008.312 399.833 C 1014.326 390.521 1022.351 388.42 1032.843 388.643 C 1049.028 388.988 1064.771 391.438 1080.299 395.488 C 1098.718 400.292 1116.393 407.207 1132.308 417.72 C 1142.013 424.129 1152.006 431.992 1160.93 439.418 C 1166.646 438.416 1217.057 431.096 1226.084 429.322 Z  M 782.867 587.339 C 782.755 589.365 782.169 591.347 781.109 593.285 C 780.047 595.224 778.585 597.01 776.721 598.64 C 774.855 600.27 772.601 601.689 769.959 602.897 C 767.319 604.105 764.331 604.997 760.999 605.571 C 758.414 606.016 755.985 606.1 753.716 605.823 C 751.445 605.546 749.391 604.952 747.551 604.044 C 745.709 603.135 744.143 601.914 742.849 600.38 C 741.554 598.849 740.616 597.019 740.04 594.888 L 753.819 586.912 C 753.705 586.989 753.834 587.356 754.21 588.015 C 754.582 588.675 755.116 589.351 755.807 590.04 C 756.496 590.729 757.345 591.306 758.352 591.774 C 759.357 592.242 760.435 592.292 761.585 591.928 C 762.56 591.648 763.522 591.065 764.469 590.177 C 765.417 589.289 765.86 588.071 765.801 586.519 C 765.741 585.582 765.352 584.771 764.634 584.088 C 763.913 583.404 762.893 582.73 761.572 582.065 C 758.639 580.677 755.921 579.487 753.42 578.496 C 750.919 577.507 748.734 576.392 746.865 575.154 C 744.995 573.916 743.528 572.414 742.463 570.646 C 741.396 568.88 740.863 566.52 740.859 563.566 C 740.855 560.836 741.425 558.342 742.572 556.081 C 743.718 553.823 745.239 551.832 747.133 550.112 C 749.027 548.393 751.208 546.958 753.678 545.809 C 756.145 544.659 758.702 543.827 761.345 543.317 C 764.504 542.772 767.278 542.725 769.663 543.178 C 772.047 543.632 774.06 544.385 775.699 545.44 C 777.339 546.494 778.619 547.794 779.541 549.333 C 780.462 550.876 781.067 552.457 781.357 554.079 L 768.697 561.109 C 768.523 560.527 768.264 559.887 767.918 559.195 C 767.572 558.502 767.098 557.889 766.492 557.35 C 765.889 556.815 765.169 556.396 764.336 556.092 C 763.503 555.791 762.54 555.734 761.448 555.922 C 760.299 556.12 759.252 556.648 758.305 557.507 C 757.359 558.368 756.885 559.495 756.886 560.887 C 756.888 561.946 757.334 562.803 758.228 563.456 C 759.117 564.112 760.513 564.944 762.411 565.954 C 765.055 566.949 767.599 567.959 770.043 568.986 C 772.486 570.014 774.658 571.283 776.555 572.796 C 778.454 574.307 779.978 576.122 781.131 578.234 C 782.283 580.349 782.861 582.994 782.865 586.169 L 782.867 587.339 Z  M 829.94 531.494 L 829.959 545.534 L 815.397 548.044 L 815.463 596.184 L 800.984 598.679 L 800.919 550.539 L 786.355 553.049 L 786.336 539.009 L 829.94 531.494 Z  M 873.908 537.959 L 849.091 542.237 L 849.104 552.266 L 867.372 549.118 L 867.391 563.159 L 849.123 566.307 L 849.137 576.335 L 873.955 572.058 L 873.974 586.1 L 834.678 592.872 L 834.593 530.692 L 873.889 523.92 L 873.908 537.959 Z  M 918.89 530.207 L 894.073 534.484 L 894.086 544.514 L 912.354 541.365 L 912.373 555.406 L 894.105 558.555 L 894.119 568.583 L 918.937 564.305 L 918.956 578.347 L 879.66 585.119 L 879.575 522.94 L 918.871 516.167 L 918.89 530.207 Z  M 939.101 560.83 L 956.249 557.875 L 956.268 571.916 L 924.642 577.367 L 924.557 515.187 L 939.035 512.692 L 939.101 560.83 Z  M 1010.452 548.784 C 1012.921 548.526 1014.976 547.558 1016.61 545.883 C 1018.246 544.209 1019.493 542.322 1020.352 540.223 L 1032.857 544.84 C 1032.341 545.931 1031.61 547.341 1030.665 549.062 C 1029.72 550.787 1028.386 552.548 1026.663 554.351 C 1024.942 556.151 1022.747 557.826 1020.077 559.372 C 1017.407 560.919 1014.118 562.029 1010.212 562.702 L 1010.126 562.717 C 1005.76 563.469 1002.096 563.433 999.137 562.605 C 996.174 561.778 993.76 560.398 991.89 558.462 C 990.019 556.527 988.653 554.145 987.787 551.312 C 986.92 548.48 986.399 545.462 986.223 542.26 L 986.205 529.389 C 986.259 526.316 986.785 523.2 987.788 520.048 C 988.787 516.893 990.279 513.975 992.256 511.293 C 994.235 508.611 996.717 506.302 999.703 504.367 C 1002.688 502.43 1006.164 501.122 1010.127 500.439 L 1010.213 500.425 C 1013.716 499.82 1016.735 499.773 1019.264 500.285 C 1021.792 500.798 1023.963 501.649 1025.774 502.841 C 1027.587 504.034 1029.054 505.481 1030.177 507.182 C 1031.3 508.883 1032.178 510.627 1032.812 512.413 L 1020.326 521.336 C 1019.982 520.392 1019.505 519.443 1018.901 518.488 C 1018.297 517.535 1017.563 516.712 1016.7 516.025 C 1015.837 515.338 1014.858 514.837 1013.767 514.524 C 1012.675 514.211 1011.525 514.187 1010.318 514.449 C 1007.389 515.177 1005.049 516.71 1003.301 519.046 C 1001.55 521.382 1000.678 524.082 1000.682 527.146 L 1000.698 539.263 C 1000.702 542.329 1001.597 544.751 1003.381 546.533 C 1005.164 548.317 1007.522 549.068 1010.452 548.784 Z  M 1053.127 493.028 L 1053.212 555.208 L 1038.734 557.703 L 1038.649 495.524 L 1053.127 493.028 Z  M 1101.901 484.622 L 1101.92 498.662 L 1087.358 501.172 L 1087.423 549.312 L 1072.945 551.807 L 1072.88 503.667 L 1058.316 506.177 L 1058.297 492.137 L 1101.901 484.622 Z  M 1153.261 475.77 L 1136.067 509.83 L 1136.109 540.921 L 1122.495 543.267 L 1122.452 512.176 L 1105.951 483.924 L 1122.151 481.132 L 1129.668 494.549 L 1137.06 478.562 L 1153.261 475.77 Z  M 772.768 671.258 L 758.726 673.678 L 752.359 693.188 L 733.863 696.375 L 754.879 622.861 L 776.571 619.122 L 797.777 685.359 L 779.281 688.547 L 772.768 671.258 Z  M 818.092 666.075 L 837.363 662.754 L 837.384 678.533 L 801.843 684.658 L 801.748 614.783 L 818.018 611.979 L 818.092 666.075 Z  M 859.83 658.882 L 879.101 655.56 L 879.122 671.34 L 843.581 677.465 L 843.486 607.589 L 859.756 604.786 L 859.83 658.882 Z  M 929.405 608.563 L 901.516 613.369 L 901.531 624.64 L 922.06 621.102 L 922.082 636.881 L 901.553 640.419 L 901.568 651.688 L 929.457 646.882 L 929.479 662.661 L 885.32 670.271 L 885.225 600.396 L 929.384 592.785 L 929.405 608.563 Z  M 988.262 582.638 L 968.94 620.913 L 968.987 655.852 L 953.688 658.488 L 953.64 623.55 L 935.097 591.801 L 953.302 588.663 L 961.749 603.741 L 970.055 585.776 L 988.262 582.638 Z  M 1011.769 632.978 C 1014.543 632.687 1016.853 631.6 1018.689 629.718 C 1020.527 627.837 1021.928 625.716 1022.894 623.357 L 1036.946 628.545 C 1036.367 629.771 1035.545 631.356 1034.483 633.29 C 1033.421 635.228 1031.923 637.208 1029.987 639.233 C 1028.052 641.256 1025.585 643.139 1022.586 644.876 C 1019.584 646.615 1015.889 647.862 1011.499 648.618 L 1011.402 648.635 C 1006.496 649.481 1002.378 649.44 999.053 648.509 C 995.724 647.58 993.011 646.029 990.909 643.853 C 988.807 641.679 987.271 639.002 986.299 635.818 C 985.324 632.635 984.738 629.244 984.54 625.647 L 984.521 611.183 C 984.582 607.729 985.173 604.228 986.299 600.684 C 987.423 597.14 989.099 593.86 991.321 590.847 C 993.545 587.833 996.333 585.238 999.689 583.063 C 1003.044 580.888 1006.95 579.417 1011.404 578.649 L 1011.5 578.633 C 1015.437 577.954 1018.829 577.901 1021.671 578.476 C 1024.512 579.053 1026.952 580.009 1028.988 581.348 C 1031.025 582.689 1032.673 584.315 1033.935 586.227 C 1035.197 588.139 1036.184 590.098 1036.897 592.104 L 1022.865 602.133 C 1022.478 601.071 1021.942 600.005 1021.263 598.932 C 1020.585 597.861 1019.759 596.937 1018.79 596.164 C 1017.82 595.392 1016.72 594.829 1015.494 594.477 C 1014.267 594.126 1012.974 594.098 1011.618 594.393 C 1008.326 595.211 1005.697 596.934 1003.732 599.558 C 1001.764 602.184 1000.784 605.217 1000.789 608.661 L 1000.808 622.278 C 1000.813 625.724 1001.817 628.445 1003.822 630.448 C 1005.826 632.453 1008.477 633.297 1011.769 632.978 Z  M 1077.423 618.751 L 1063.381 621.171 L 1057.014 640.681 L 1038.518 643.868 L 1059.534 570.354 L 1081.226 566.615 L 1102.432 632.852 L 1083.936 636.04 L 1077.423 618.751 Z  M 1143.009 555.967 L 1143.03 571.745 L 1126.666 574.565 L 1126.74 628.663 L 1110.47 631.467 L 1110.396 577.369 L 1094.03 580.19 L 1094.008 564.413 L 1143.009 555.967 Z  M 1245.877 539.646 L 1265.678 536.198 L 1264.715 571.823 L 1244.914 575.271 L 1243.837 615.137 L 1206.876 621.574 L 1207.953 581.708 L 1154.05 591.095 L 1155.012 555.47 L 1155.012 555.47 L 1211.126 464.23 L 1211.138 463.806 L 1248.099 457.37 L 1245.877 539.646 Z " fill-rule="evenodd" fill="rgb(249,248,247)"/></svg>