<?xml version="1.0" encoding="UTF-8" standalone="no"?>
<!-- Generator: Gravit.io -->
<svg xmlns="http://www.w3.org/2000/svg" xmlns:xlink="http://www.w3.org/1999/xlink" style="isolation:isolate" viewBox="92.404 120.617 525.175 446.299" width="525.175pt" height="446.299pt"><g><g><g><path d=" M 138.234 366.51 C 138.113 368.678 137.486 370.8 136.352 372.873 C 135.215 374.948 133.651 376.859 131.657 378.604 C 129.66 380.348 127.248 381.867 124.421 383.159 C 121.595 384.451 118.398 385.406 114.832 386.02 C 112.066 386.496 109.467 386.586 107.04 386.29 C 104.609 385.993 102.411 385.358 100.442 384.386 C 98.471 383.414 96.796 382.107 95.41 380.465 C 94.024 378.827 93.021 376.869 92.404 374.589 L 107.15 366.054 C 107.027 366.136 107.166 366.529 107.567 367.234 C 107.966 367.94 108.537 368.664 109.277 369.4 C 110.014 370.137 110.923 370.756 112 371.256 C 113.075 371.757 114.229 371.811 115.459 371.421 C 116.503 371.122 117.532 370.497 118.545 369.547 C 119.56 368.597 120.034 367.293 119.971 365.633 C 119.907 364.63 119.49 363.763 118.722 363.031 C 117.951 362.3 116.859 361.578 115.445 360.867 C 112.307 359.382 109.399 358.108 106.723 357.047 C 104.046 355.989 101.708 354.796 99.707 353.471 C 97.706 352.146 96.137 350.539 94.997 348.647 C 93.856 346.757 93.285 344.231 93.281 341.071 C 93.277 338.149 93.886 335.48 95.114 333.062 C 96.34 330.645 97.968 328.514 99.994 326.674 C 102.022 324.835 104.355 323.299 106.998 322.069 C 109.638 320.839 112.375 319.948 115.203 319.402 C 118.583 318.82 121.552 318.769 124.104 319.254 C 126.655 319.74 128.809 320.546 130.563 321.674 C 132.317 322.802 133.688 324.193 134.675 325.84 C 135.66 327.492 136.307 329.183 136.618 330.919 L 123.07 338.442 C 122.884 337.819 122.607 337.134 122.237 336.394 C 121.867 335.652 121.359 334.995 120.711 334.419 C 120.065 333.846 119.295 333.398 118.404 333.073 C 117.513 332.75 116.482 332.689 115.313 332.891 C 114.083 333.103 112.963 333.668 111.95 334.587 C 110.937 335.509 110.43 336.715 110.432 338.204 C 110.434 339.337 110.911 340.255 111.867 340.954 C 112.819 341.656 114.313 342.546 116.344 343.626 C 119.173 344.691 121.895 345.772 124.511 346.871 C 127.125 347.971 129.449 349.329 131.479 350.947 C 133.511 352.564 135.142 354.507 136.376 356.767 C 137.608 359.03 138.227 361.861 138.232 365.258 L 138.234 366.51 Z " fill="rgb(9,0,45)"/><path d=" M 188.606 306.751 L 188.626 321.775 L 173.044 324.461 L 173.114 375.975 L 157.621 378.646 L 157.551 327.131 L 141.966 329.817 L 141.946 314.793 L 188.606 306.751 Z " fill="rgb(9,0,45)"/><path d=" M 235.656 313.67 L 209.099 318.247 L 209.113 328.979 L 228.662 325.61 L 228.682 340.635 L 209.134 344.004 L 209.148 354.735 L 235.706 350.158 L 235.726 365.184 L 193.676 372.431 L 193.585 305.893 L 235.635 298.645 L 235.656 313.67 Z " fill="rgb(9,0,45)"/><path d=" M 283.791 305.374 L 257.234 309.951 L 257.248 320.683 L 276.797 317.314 L 276.817 332.339 L 257.269 335.708 L 257.283 346.439 L 283.841 341.862 L 283.861 356.888 L 241.811 364.135 L 241.72 297.597 L 283.771 290.349 L 283.791 305.374 Z " fill="rgb(9,0,45)"/><path d=" M 305.418 338.143 L 323.769 334.981 L 323.789 350.006 L 289.946 355.839 L 289.855 289.301 L 305.348 286.631 L 305.418 338.143 Z " fill="rgb(9,0,45)"/></g><g><path d=" M 381.771 325.253 C 384.413 324.976 386.612 323.941 388.361 322.148 C 390.111 320.358 391.446 318.338 392.364 316.092 L 405.746 321.032 C 405.195 322.2 404.413 323.708 403.401 325.55 C 402.389 327.396 400.962 329.281 399.119 331.21 C 397.277 333.136 394.928 334.929 392.071 336.583 C 389.213 338.239 385.694 339.426 381.514 340.147 L 381.422 340.162 C 376.75 340.968 372.829 340.929 369.662 340.042 C 366.492 339.158 363.909 337.68 361.907 335.609 C 359.906 333.538 358.444 330.989 357.517 327.958 C 356.589 324.927 356.031 321.698 355.843 318.272 L 355.825 304.499 C 355.882 301.21 356.446 297.876 357.518 294.502 C 358.588 291.126 360.184 288.004 362.3 285.134 C 364.418 282.264 367.073 279.793 370.269 277.723 C 373.463 275.65 377.183 274.25 381.424 273.519 L 381.515 273.504 C 385.264 272.857 388.494 272.807 391.201 273.354 C 393.906 273.903 396.229 274.814 398.167 276.089 C 400.107 277.366 401.677 278.914 402.878 280.735 C 404.08 282.555 405.02 284.421 405.699 286.332 L 392.338 295.881 C 391.969 294.87 391.458 293.855 390.812 292.833 C 390.166 291.813 389.38 290.933 388.457 290.198 C 387.534 289.462 386.486 288.927 385.318 288.591 C 384.15 288.257 382.919 288.23 381.628 288.511 C 378.493 289.29 375.989 290.93 374.119 293.43 C 372.245 295.93 371.311 298.819 371.316 302.098 L 371.334 315.064 C 371.338 318.345 372.295 320.937 374.204 322.844 C 376.112 324.753 378.636 325.556 381.771 325.253 Z " fill="rgb(9,0,45)"/><path d=" M 427.437 265.589 L 427.528 332.127 L 412.035 334.797 L 411.945 268.259 L 427.437 265.589 Z " fill="rgb(9,0,45)"/><path d=" M 479.63 256.594 L 479.65 271.617 L 464.067 274.303 L 464.138 325.818 L 448.644 328.488 L 448.575 276.973 L 432.99 279.659 L 432.969 264.635 L 479.63 256.594 Z " fill="rgb(9,0,45)"/><path d=" M 534.59 247.121 L 516.191 283.568 L 516.236 316.838 L 501.667 319.349 L 501.622 286.079 L 483.965 255.847 L 501.299 252.859 L 509.344 267.216 L 517.253 250.109 L 534.59 247.121 Z " fill="rgb(9,0,45)"/></g></g><g><g><path d=" M 134.129 446.443 L 119.35 448.99 L 112.648 469.524 L 93.182 472.879 L 115.301 395.506 L 138.131 391.571 L 160.451 461.285 L 140.984 464.64 L 134.129 446.443 Z " fill="rgb(9,0,45)"/><path d=" M 181.832 440.988 L 202.115 437.493 L 202.137 454.1 L 164.731 460.547 L 164.631 387.003 L 181.754 384.052 L 181.832 440.988 Z " fill="rgb(9,0,45)"/><path d=" M 225.761 433.417 L 246.044 429.921 L 246.066 446.529 L 208.66 452.976 L 208.56 379.432 L 225.684 376.481 L 225.761 433.417 Z " fill="rgb(9,0,45)"/><path d=" M 298.989 380.457 L 269.635 385.516 L 269.652 397.378 L 291.258 393.654 L 291.281 410.262 L 269.674 413.985 L 269.69 425.846 L 299.043 420.787 L 299.066 437.395 L 252.589 445.405 L 252.489 371.861 L 298.966 363.851 L 298.989 380.457 Z " fill="rgb(9,0,45)"/><path d=" M 360.935 353.171 L 340.598 393.455 L 340.649 430.228 L 324.546 433.003 L 324.496 396.23 L 304.979 362.815 L 324.139 359.512 L 333.031 375.382 L 341.773 356.474 L 360.935 353.171 Z " fill="rgb(9,0,45)"/><path d=" M 385.676 406.153 C 388.596 405.847 391.027 404.704 392.96 402.722 C 394.894 400.743 396.369 398.511 397.385 396.028 L 412.175 401.488 C 411.565 402.778 410.7 404.446 409.582 406.482 C 408.465 408.522 406.888 410.606 404.85 412.737 C 402.814 414.866 400.218 416.848 397.061 418.676 C 393.901 420.506 390.012 421.818 385.392 422.615 L 385.29 422.632 C 380.126 423.522 375.792 423.48 372.293 422.499 C 368.789 421.522 365.933 419.889 363.721 417.6 C 361.509 415.311 359.892 412.494 358.869 409.143 C 357.842 405.793 357.227 402.224 357.018 398.438 L 356.998 383.214 C 357.062 379.58 357.684 375.894 358.869 372.165 C 360.052 368.434 361.816 364.983 364.155 361.811 C 366.496 358.638 369.43 355.908 372.962 353.619 C 376.493 351.329 380.604 349.781 385.292 348.973 L 385.394 348.955 C 389.537 348.242 393.107 348.185 396.098 348.79 C 399.088 349.398 401.656 350.404 403.799 351.813 C 405.943 353.224 407.677 354.936 409.005 356.948 C 410.334 358.961 411.373 361.022 412.123 363.134 L 397.354 373.689 C 396.947 372.572 396.383 371.45 395.668 370.321 C 394.955 369.193 394.086 368.22 393.065 367.408 C 392.045 366.594 390.887 366.002 389.597 365.632 C 388.305 365.262 386.945 365.232 385.517 365.544 C 382.053 366.405 379.285 368.217 377.218 370.98 C 375.146 373.743 374.115 376.936 374.12 380.561 L 374.139 394.892 C 374.145 398.519 375.202 401.383 377.312 403.491 C 379.421 405.601 382.211 406.489 385.676 406.153 Z " fill="rgb(9,0,45)"/><path d=" M 454.777 391.18 L 439.998 393.727 L 433.296 414.26 L 413.83 417.615 L 435.949 340.243 L 458.779 336.307 L 481.099 406.021 L 461.632 409.376 L 454.777 391.18 Z " fill="rgb(9,0,45)"/><path d=" M 523.805 325.1 L 523.828 341.706 L 506.605 344.674 L 506.682 401.612 L 489.558 404.563 L 489.481 347.625 L 472.255 350.594 L 472.232 333.989 L 523.805 325.1 Z " fill="rgb(9,0,45)"/></g></g><g><path d=" M 318.919 203.115 C 308.934 204.177 300.801 198.881 299.938 190.243 C 298.774 178.59 306.979 170.428 317.694 169.368 C 327.937 168.355 334.418 174.33 335.774 186.004 C 336.557 192.744 327.21 202.233 318.919 203.115 Z  M 544.97 228.895 C 544.106 226.661 544.726 225.438 546.368 222.668 C 548.541 219.002 550.719 215.34 552.811 211.628 C 554.137 209.275 556.775 206.394 556.215 204.535 C 555.323 201.578 552.52 198.941 549.947 196.894 C 549.135 196.249 546.411 197.795 544.663 198.567 C 541.464 199.978 538.286 201.459 535.195 203.09 C 526.573 207.641 521.198 205.199 516.299 200.631 C 512.689 197.264 512.351 190.907 515.248 184.446 C 516.746 181.106 517.963 177.639 519.506 174.322 C 520.639 171.888 520.546 169.449 518.139 168.508 C 514.988 167.278 512.539 162.193 508.053 166.346 C 504.915 169.252 501.501 171.868 498.137 174.522 C 493.361 178.289 486.623 179.165 482.433 176.671 C 475.884 172.769 473.742 167.876 475.295 160.392 C 476.035 156.826 476.595 153.214 477.534 149.702 C 478.568 145.842 476.153 144.296 473.344 143.27 C 470.755 142.324 468.103 139.602 465.302 143.601 C 462.854 147.094 459.659 150.067 456.786 153.262 C 449.524 161.339 438.922 159.737 433.977 152.55 C 429.653 146.266 431.693 139.442 431.461 132.881 C 431.363 130.078 431.785 127.666 428.575 127.445 C 425.177 127.21 421.256 123.044 418.304 128.904 C 415.576 134.323 412.534 139.762 408.657 144.379 C 404.167 149.723 393.219 149.226 389.375 143.497 C 386.957 139.894 385.77 135.201 384.988 130.826 C 383.418 122.034 383.493 121.815 374.602 121.29 C 373.74 121.239 372.893 120.938 371.417 120.617 C 369.749 125.457 368.061 130.11 366.543 134.819 C 364.844 140.091 361.813 144.223 356.329 145.7 C 350.163 147.361 344.462 146.222 340.989 140.37 C 338.541 136.246 336.119 131.844 335.022 127.247 C 333.468 120.735 329.345 123.769 325.788 123.668 C 321.457 123.547 321.345 126.586 320.985 129.453 C 320.419 133.964 320.518 138.62 319.425 142.99 C 316.79 153.542 303.723 157.296 297.296 150.859 C 294.089 147.647 291.19 144.047 288.621 140.301 C 284.891 134.864 284.269 134.63 278.122 137.149 C 275.005 138.427 274.201 140.164 274.465 143.495 C 274.909 149.086 275.79 155.058 274.363 160.292 C 271.509 170.755 257.355 174.044 248.863 164.29 C 245.808 160.782 242.264 157.698 239.091 154.567 C 236.286 156.3 233.927 157.476 231.94 159.105 C 230.974 159.898 230.009 161.683 230.242 162.762 C 231.006 166.306 232.277 169.746 233.431 173.2 C 235.875 180.515 234.296 187.196 229.613 191.149 C 224.901 195.126 216.885 196.294 210.634 191.197 C 208.047 189.087 204.875 187.707 202.075 185.836 C 197.652 182.881 195.459 187.009 193.252 189.097 C 191.994 190.287 191.854 193.703 192.534 195.657 C 193.762 199.182 195.981 202.365 197.79 205.687 C 200.612 210.868 200.382 216.113 196.711 220.529 C 192.574 225.503 187.107 228.09 180.404 225.871 C 177.074 224.768 173.741 223.598 170.559 222.136 C 164.045 219.143 161.796 219.704 158.914 226.2 C 158.324 227.531 158.875 229.953 159.786 231.253 C 162.578 235.236 166.212 238.662 168.773 242.769 C 174.492 251.938 168.902 263.401 158.177 263.978 C 152.343 264.292 146.423 262.65 140.517 262.256 C 139.208 262.169 136.973 263.343 136.591 264.434 C 135.645 267.142 131.617 269.619 134.685 272.855 C 138.005 276.356 142.059 279.153 145.482 282.569 C 148.045 285.127 149.627 287.359 150.279 289.642 C 154.272 289.04 206.924 280.845 209.96 280.549 C 214.209 274.097 218.617 267.735 223.314 261.613 C 235.069 246.286 249.557 233.77 265.622 223.211 C 271.884 219.096 279.001 216.144 286.013 213.38 C 288.179 212.525 291.814 213.246 293.867 214.609 C 303.834 221.224 314.081 219.355 324.468 216.404 C 328.704 215.201 332.823 213.495 337.118 212.614 C 343.232 211.359 347.153 207.08 350.106 202.508 C 355.488 194.175 362.669 192.295 372.057 192.494 C 386.54 192.803 400.626 194.996 414.521 198.62 C 431.002 202.919 446.817 209.106 461.059 218.513 C 469.743 224.248 478.684 231.284 486.67 237.929 C 491.785 237.032 536.892 230.482 544.97 228.895 Z " fill="rgb(9,0,45)"/><path d=" M 405.993 517.385 C 396.8 518.478 386.429 511.715 385.545 501.117 C 384.7 490.992 392.515 480.421 401.939 479.485 C 410.953 478.59 421.95 485.788 421.949 496.335 C 423.049 506.794 415.834 516.214 405.993 517.385 Z  M 556.463 440.763 C 552.883 436.18 552.702 430.216 554.61 426.175 C 552.522 426.314 493.928 435.404 489.101 436.146 C 476.266 449.45 461.758 460.87 445.245 469.722 C 443.133 470.853 440.701 471.388 437.281 472.602 C 434.104 471.701 429.791 471.322 426.431 469.336 C 420.743 465.974 415.084 464.035 408.567 465.6 C 399.647 467.742 390.519 469.364 381.957 472.507 C 377.901 473.996 374.125 477.962 371.676 481.743 C 366.465 489.787 360.045 493.893 350.207 492.508 C 338.922 490.92 327.427 490.542 316.277 488.354 C 301.095 485.371 285.951 476.8 272.34 469.705 C 269.305 470.001 205.42 479.72 201.079 480.453 C 203.315 483.094 205.328 486.982 204.61 490.63 C 203.542 496.068 201.403 501.356 199.245 506.502 C 196.967 511.932 197.006 512.91 201.975 516.207 C 202.584 516.611 203.186 517.024 203.79 517.435 C 206.203 519.076 208.153 519.313 210.612 516.916 C 214.081 513.534 218.077 510.666 221.996 507.779 C 226.258 504.641 231.124 503.642 235.758 506.447 C 241.062 509.66 244.208 514.321 242.822 521.063 C 241.846 525.813 241.535 530.725 240.24 535.374 C 239.19 539.147 241.311 540.574 243.866 541.457 C 246.806 542.475 249.912 545.887 253.134 541.672 C 255.585 538.465 258.032 535.224 260.799 532.299 C 265.45 527.382 270.91 523.437 277.988 526.461 C 283.77 528.932 286.657 534.073 286.814 540.411 C 286.9 543.908 286.552 547.415 286.411 550.917 C 286.27 554.432 285.8 557.641 290.85 558.792 C 297.703 560.352 299.124 560.373 301.612 555.642 C 303.241 552.547 304.418 549.129 306.487 546.371 C 308.725 543.386 311.311 539.903 314.545 538.568 C 323.017 535.07 330.532 539.728 332.688 548.065 C 333.946 552.932 335.24 557.816 336.018 562.77 C 336.45 565.519 337.626 566.458 340.154 566.501 C 341.513 566.524 342.868 566.911 344.226 566.917 C 347.362 566.93 349.516 566.33 350.425 562.373 C 351.668 556.966 353.576 551.51 356.283 546.68 C 361.159 537.979 372.122 537.134 378.074 544.698 C 381.514 549.072 383.352 554.796 385.455 560.093 C 387.164 564.396 389.884 565.355 394.153 564.573 C 398.452 563.787 399.913 561.459 400.395 557.274 C 401.069 551.436 402.084 545.534 403.872 539.952 C 405.667 534.348 413.787 531.314 419.496 532.79 C 426.471 534.594 428.973 540.607 432.424 545.7 C 437.217 552.774 437.064 552.684 444.911 550.787 C 448.256 549.978 449.134 548.275 448.735 545.177 C 448.179 540.869 447.738 536.544 447.357 532.217 C 446.792 525.809 450.521 519.501 456.147 517.169 C 462.269 514.633 468.853 516.227 473.297 521.161 C 475.541 523.653 478.338 525.713 480.263 528.41 C 483.653 533.162 486.964 531.581 490.509 528.938 C 491.488 528.209 492.607 527.553 493.309 526.604 C 493.875 525.839 494.343 524.56 494.104 523.721 C 493.152 520.383 491.524 517.202 490.87 513.824 C 490.062 509.64 488.776 505.004 489.803 501.118 C 492.51 490.883 504.52 487.5 513.11 493.813 C 516.308 496.164 519.939 497.951 523.024 500.428 C 527.05 503.657 529.132 500.411 531.528 498.3 C 534.056 496.074 534.908 493.785 532.908 490.276 C 529.476 484.255 525.294 478.476 525.199 470.973 C 525.109 463.919 532.839 456.272 539.68 457.879 C 545.843 459.326 551.819 461.691 557.735 464.011 C 562.903 466.037 563.529 461.207 565.83 459.047 C 567.798 457.198 568.039 454.994 566.019 452.646 C 562.705 448.795 559.591 444.769 556.463 440.763 Z " fill="rgb(9,0,45)"/></g><path d=" M 609.809 327.534 L 609.809 327.534 L 609.809 327.534 Q 609.809 321.634 607.866 316.874 L 607.866 316.874 L 607.866 316.874 Q 605.924 312.113 602.471 308.558 L 602.471 308.558 L 602.471 308.558 Q 605.924 303.768 607.866 298.241 L 607.866 298.241 L 607.866 298.241 Q 609.809 292.713 609.809 286.814 L 609.809 286.814 L 609.809 286.814 Q 609.809 281.49 608.373 277.286 L 608.373 277.286 L 608.373 277.286 Q 606.794 272.533 603.779 268.755 L 603.779 268.755 L 603.779 268.755 Q 600.764 264.978 596.6 262.629 L 596.6 262.629 L 596.6 262.629 Q 592.436 260.28 587.411 259.452 L 587.411 259.452 L 587.411 259.452 Q 582.386 258.623 576.787 259.625 L 576.787 259.625 L 576.787 259.625 Q 569.895 260.857 563.937 264.512 L 563.937 264.512 L 563.937 264.512 Q 557.979 268.168 553.456 273.509 L 553.456 273.509 L 553.456 273.509 Q 548.934 278.85 546.349 285.355 L 546.349 285.355 L 546.349 285.355 Q 543.765 291.86 543.765 298.623 L 543.765 298.623 L 567.794 294.327 L 567.794 294.327 Q 567.794 290.586 570.384 287.532 L 570.384 287.532 L 570.384 287.532 Q 572.974 284.479 576.715 283.81 L 576.715 283.81 L 576.715 283.81 Q 579.736 283.27 582.039 284.657 L 582.039 284.657 L 582.039 284.657 Q 584.341 286.044 585.204 288.623 L 585.204 288.623 L 585.204 288.623 Q 585.636 289.697 585.636 291.136 L 585.636 291.136 L 585.636 291.136 Q 585.636 294.877 583.046 298.506 L 583.046 298.506 L 583.046 298.506 Q 580.456 302.135 576.715 302.803 L 576.715 302.803 L 569.808 304.038 L 569.808 324.758 L 576.715 323.523 L 576.715 323.523 Q 580.456 322.854 583.046 325.557 L 583.046 325.557 L 583.046 325.557 Q 585.636 328.259 585.636 332 L 585.636 332 L 585.636 332 Q 585.636 333.583 585.204 334.667 L 585.204 334.667 L 585.204 334.667 Q 584.341 337.555 582.039 339.766 L 582.039 339.766 L 582.039 339.766 Q 579.736 341.976 576.715 342.516 L 576.715 342.516 L 576.715 342.516 Q 572.974 343.185 570.384 340.986 L 570.384 340.986 L 570.384 340.986 Q 567.794 338.788 567.794 335.046 L 567.794 335.046 L 551.632 337.936 L 543.765 339.343 L 543.765 339.343 Q 543.765 346.25 546.349 351.831 L 546.349 351.831 L 546.349 351.831 Q 548.934 357.412 553.456 361.136 L 553.456 361.136 L 553.456 361.136 Q 557.979 364.859 563.937 366.384 L 563.937 366.384 L 563.937 366.384 Q 569.895 367.908 576.787 366.676 L 576.787 366.676 L 576.787 366.676 Q 582.386 365.675 587.411 363.05 L 587.411 363.05 L 587.411 363.05 Q 592.436 360.425 596.6 356.587 L 596.6 356.587 L 596.6 356.587 Q 600.764 352.749 603.779 347.893 L 603.779 347.893 L 603.779 347.893 Q 606.794 343.037 608.373 337.719 L 608.373 337.719 L 608.373 337.719 Q 609.809 333.002 609.809 327.534 Z  M 536.283 396.221 L 536.283 245.716 L 617.579 231.179 L 617.579 381.685 L 536.283 396.221 L 536.283 396.221 Z " fill="rgb(9,0,45)"/></g></svg>