<?xml version="1.0" encoding="UTF-8" standalone="no"?><!-- Generator: Gravit.io --><svg xmlns="http://www.w3.org/2000/svg" xmlns:xlink="http://www.w3.org/1999/xlink" style="isolation:isolate" viewBox="190.75 50 253 199.406" width="253pt" height="199.406pt"><g><g><path d=" M 414.912 160.152 L 430.973 157.383 L 430.973 171.229 L 391.808 177.875 L 391.808 163.923 L 400.911 162.421 L 400.911 116.489 L 391.808 118.079 L 391.808 106.587 L 430.973 99.863 L 430.973 111.416 L 414.85 114.087 L 414.912 160.152 Z " fill="rgb(255,255,255)"/><path d=" M 434.495 156.824 L 443.75 155.237 L 443.75 169.083 L 411.391 174.546 L 411.391 160.594 L 420.494 159.092 L 420.494 113.16 L 411.391 114.75 L 411.391 103.292 L 443.75 97.585 L 443.75 109.27 L 434.433 110.758 L 434.495 156.824 Z " fill="rgb(255,255,255)"/></g><g><g><path d=" M 213.915 159.647 C 213.862 160.609 213.583 161.551 213.08 162.471 C 212.576 163.392 211.881 164.24 210.996 165.014 C 210.11 165.788 209.04 166.462 207.786 167.035 C 206.532 167.609 205.113 168.032 203.531 168.305 C 202.303 168.516 201.15 168.556 200.073 168.425 C 198.994 168.293 198.019 168.011 197.145 167.58 C 196.271 167.148 195.527 166.568 194.912 165.84 C 194.297 165.113 193.852 164.244 193.578 163.232 L 200.122 159.445 C 200.067 159.481 200.129 159.656 200.307 159.969 C 200.484 160.282 200.737 160.603 201.065 160.93 C 201.393 161.257 201.796 161.531 202.274 161.753 C 202.751 161.976 203.263 162 203.809 161.827 C 204.272 161.694 204.729 161.417 205.178 160.995 C 205.629 160.574 205.839 159.995 205.811 159.258 C 205.783 158.813 205.598 158.428 205.257 158.104 C 204.915 157.779 204.43 157.459 203.803 157.143 C 202.41 156.484 201.12 155.919 199.932 155.448 C 198.745 154.979 197.707 154.449 196.819 153.861 C 195.931 153.274 195.235 152.56 194.729 151.721 C 194.222 150.882 193.969 149.761 193.967 148.359 C 193.966 147.063 194.236 145.878 194.781 144.805 C 195.325 143.732 196.047 142.787 196.946 141.97 C 197.846 141.154 198.881 140.473 200.054 139.927 C 201.226 139.381 202.44 138.986 203.695 138.744 C 205.195 138.485 206.512 138.463 207.645 138.678 C 208.777 138.893 209.733 139.251 210.511 139.752 C 211.29 140.252 211.898 140.87 212.336 141.6 C 212.773 142.333 213.06 143.084 213.198 143.854 L 207.186 147.192 C 207.104 146.916 206.981 146.612 206.816 146.284 C 206.652 145.954 206.427 145.663 206.139 145.407 C 205.853 145.153 205.511 144.954 205.116 144.81 C 204.72 144.667 204.263 144.64 203.744 144.729 C 203.198 144.823 202.701 145.074 202.252 145.482 C 201.802 145.891 201.577 146.426 201.578 147.087 C 201.579 147.59 201.791 147.997 202.215 148.307 C 202.637 148.618 203.3 149.013 204.201 149.493 C 205.457 149.965 206.665 150.445 207.826 150.933 C 208.985 151.421 210.017 152.023 210.918 152.742 C 211.819 153.459 212.543 154.321 213.09 155.324 C 213.637 156.328 213.912 157.584 213.914 159.092 L 213.915 159.647 Z " fill="rgb(255,255,255)"/><path d=" M 236.267 133.13 L 236.276 139.797 L 229.362 140.988 L 229.393 163.847 L 222.518 165.032 L 222.487 142.173 L 215.571 143.365 L 215.562 136.698 L 236.267 133.13 Z " fill="rgb(255,255,255)"/><path d=" M 257.145 136.2 L 245.361 138.231 L 245.367 142.993 L 254.042 141.498 L 254.051 148.166 L 245.376 149.661 L 245.383 154.422 L 257.167 152.391 L 257.176 159.059 L 238.517 162.275 L 238.477 132.749 L 257.136 129.533 L 257.145 136.2 Z " fill="rgb(255,255,255)"/><path d=" M 278.505 132.518 L 266.72 134.55 L 266.727 139.312 L 275.401 137.817 L 275.41 144.484 L 266.736 145.979 L 266.742 150.741 L 278.527 148.71 L 278.536 155.378 L 259.876 158.593 L 259.836 129.068 L 278.496 125.852 L 278.505 132.518 Z " fill="rgb(255,255,255)"/><path d=" M 288.102 147.06 L 296.245 145.657 L 296.254 152.324 L 281.236 154.912 L 281.196 125.386 L 288.071 124.202 L 288.102 147.06 Z " fill="rgb(255,255,255)"/></g><g><path d=" M 321.983 141.34 C 323.155 141.217 324.131 140.758 324.907 139.962 C 325.683 139.168 326.276 138.271 326.683 137.275 L 332.621 139.467 C 332.377 139.985 332.03 140.654 331.581 141.472 C 331.132 142.291 330.499 143.127 329.681 143.983 C 328.863 144.838 327.821 145.633 326.553 146.367 C 325.285 147.102 323.724 147.629 321.869 147.949 L 321.828 147.956 C 319.755 148.313 318.015 148.296 316.61 147.902 C 315.203 147.51 314.057 146.854 313.168 145.935 C 312.28 145.016 311.631 143.885 311.22 142.54 C 310.809 141.195 310.561 139.762 310.477 138.242 L 310.469 132.13 C 310.495 130.671 310.745 129.191 311.221 127.694 C 311.695 126.196 312.403 124.811 313.343 123.537 C 314.282 122.264 315.46 121.167 316.879 120.249 C 318.296 119.329 319.947 118.708 321.829 118.383 L 321.869 118.376 C 323.533 118.09 324.966 118.067 326.167 118.31 C 327.368 118.554 328.398 118.958 329.258 119.524 C 330.119 120.09 330.816 120.777 331.349 121.585 C 331.882 122.393 332.299 123.221 332.6 124.069 L 326.672 128.306 C 326.508 127.858 326.281 127.407 325.995 126.954 C 325.708 126.501 325.359 126.111 324.949 125.784 C 324.54 125.458 324.075 125.22 323.557 125.072 C 323.038 124.923 322.492 124.911 321.919 125.036 C 320.528 125.382 319.417 126.109 318.587 127.219 C 317.755 128.328 317.341 129.61 317.343 131.065 L 317.351 136.819 C 317.353 138.275 317.778 139.425 318.625 140.271 C 319.472 141.118 320.592 141.474 321.983 141.34 Z " fill="rgb(255,255,255)"/><path d=" M 342.247 114.864 L 342.287 144.39 L 335.412 145.575 L 335.372 116.049 L 342.247 114.864 Z " fill="rgb(255,255,255)"/><path d=" M 365.407 110.873 L 365.416 117.539 L 358.501 118.731 L 358.532 141.59 L 351.657 142.775 L 351.626 119.916 L 344.711 121.108 L 344.702 114.441 L 365.407 110.873 Z " fill="rgb(255,255,255)"/><path d=" M 389.795 106.669 L 381.63 122.843 L 381.651 137.606 L 375.186 138.72 L 375.166 123.957 L 367.33 110.541 L 375.022 109.215 L 378.592 115.586 L 382.102 107.995 L 389.795 106.669 Z " fill="rgb(255,255,255)"/></g></g><g><g><path d=" M 209.428 199.821 L 202.687 200.982 L 199.63 210.349 L 190.75 211.88 L 200.84 176.585 L 211.254 174.79 L 221.435 206.591 L 212.555 208.121 L 209.428 199.821 Z " fill="rgb(255,255,255)"/><path d=" M 231.188 197.332 L 240.441 195.738 L 240.451 203.314 L 223.388 206.254 L 223.342 172.707 L 231.153 171.361 L 231.188 197.332 Z " fill="rgb(255,255,255)"/><path d=" M 251.227 193.879 L 260.479 192.284 L 260.49 199.86 L 243.426 202.801 L 243.381 169.253 L 251.192 167.907 L 251.227 193.879 Z " fill="rgb(255,255,255)"/><path d=" M 284.631 169.72 L 271.241 172.028 L 271.248 177.439 L 281.104 175.741 L 281.115 183.316 L 271.258 185.015 L 271.266 190.425 L 284.656 188.117 L 284.666 195.693 L 263.465 199.347 L 263.419 165.799 L 284.62 162.146 L 284.631 169.72 Z " fill="rgb(255,255,255)"/><path d=" M 312.888 157.274 L 303.611 175.65 L 303.634 192.424 L 296.289 193.69 L 296.266 176.916 L 287.363 161.673 L 296.103 160.166 L 300.159 167.405 L 304.147 158.78 L 312.888 157.274 Z " fill="rgb(255,255,255)"/><path d=" M 324.174 181.442 C 325.506 181.303 326.615 180.781 327.496 179.877 C 328.379 178.974 329.051 177.956 329.515 176.823 L 336.262 179.314 C 335.983 179.903 335.589 180.663 335.079 181.592 C 334.569 182.522 333.85 183.473 332.92 184.445 C 331.991 185.417 330.807 186.321 329.367 187.154 C 327.926 187.989 326.152 188.588 324.044 188.951 L 323.998 188.959 C 321.642 189.365 319.665 189.346 318.069 188.899 C 316.471 188.453 315.168 187.708 314.159 186.664 C 313.15 185.62 312.412 184.334 311.945 182.806 C 311.477 181.278 311.196 179.65 311.101 177.923 L 311.092 170.978 C 311.121 169.32 311.405 167.639 311.946 165.938 C 312.485 164.236 313.29 162.662 314.357 161.215 C 315.425 159.768 316.763 158.522 318.374 157.478 C 319.985 156.433 321.86 155.727 323.998 155.359 L 324.045 155.351 C 325.935 155.025 327.563 155 328.928 155.275 C 330.292 155.552 331.463 156.012 332.441 156.655 C 333.419 157.298 334.21 158.079 334.816 158.997 C 335.422 159.915 335.896 160.855 336.238 161.818 L 329.501 166.633 C 329.315 166.124 329.058 165.612 328.732 165.097 C 328.406 164.582 328.01 164.139 327.545 163.768 C 327.079 163.397 326.551 163.127 325.962 162.958 C 325.373 162.789 324.752 162.776 324.102 162.918 C 322.521 163.31 321.259 164.137 320.315 165.397 C 319.371 166.658 318.9 168.114 318.902 169.768 L 318.911 176.305 C 318.914 177.96 319.396 179.266 320.359 180.228 C 321.321 181.19 322.593 181.595 324.174 181.442 Z " fill="rgb(255,255,255)"/><path d=" M 355.695 174.612 L 348.953 175.774 L 345.896 185.14 L 337.016 186.671 L 347.106 151.376 L 357.52 149.581 L 367.702 181.382 L 358.822 182.912 L 355.695 174.612 Z " fill="rgb(255,255,255)"/><path d=" M 387.183 144.469 L 387.193 152.044 L 379.337 153.398 L 379.372 179.371 L 371.561 180.717 L 371.525 154.744 L 363.668 156.098 L 363.657 148.524 L 387.183 144.469 Z " fill="rgb(255,255,255)"/></g></g><g><path d=" M 299.42 86.86 C 294.959 87.334 291.324 84.968 290.939 81.109 C 290.419 75.902 294.085 72.255 298.873 71.782 C 303.449 71.329 306.345 73.998 306.951 79.215 C 307.3 82.226 303.124 86.466 299.42 86.86 Z  M 400.419 98.378 C 400.033 97.38 400.31 96.834 401.044 95.596 C 402.015 93.958 402.987 92.322 403.922 90.663 C 404.515 89.612 405.693 88.325 405.443 87.494 C 405.045 86.173 403.792 84.995 402.642 84.08 C 402.28 83.792 401.063 84.483 400.282 84.828 C 398.852 85.458 397.433 86.12 396.051 86.849 C 392.199 88.882 389.798 87.791 387.609 85.75 C 385.996 84.246 385.845 81.405 387.139 78.518 C 387.808 77.026 388.352 75.477 389.042 73.995 C 389.548 72.908 389.506 71.818 388.431 71.398 C 387.023 70.848 385.929 68.576 383.925 70.431 C 382.523 71.73 380.997 72.899 379.494 74.084 C 377.36 75.768 374.35 76.159 372.478 75.044 C 369.552 73.301 368.594 71.115 369.288 67.771 C 369.619 66.178 369.869 64.564 370.289 62.995 C 370.75 61.27 369.672 60.58 368.417 60.121 C 367.26 59.699 366.075 58.482 364.823 60.269 C 363.73 61.83 362.302 63.158 361.019 64.586 C 357.774 68.194 353.037 67.479 350.827 64.267 C 348.896 61.46 349.807 58.411 349.703 55.479 C 349.659 54.227 349.848 53.149 348.414 53.05 C 346.895 52.946 345.144 51.084 343.825 53.703 C 342.606 56.124 341.247 58.554 339.515 60.616 C 337.508 63.004 332.617 62.782 330.899 60.223 C 329.819 58.613 329.289 56.516 328.939 54.561 C 328.238 50.633 328.271 50.535 324.299 50.3 C 323.913 50.278 323.535 50.143 322.876 50 C 322.13 52.162 321.376 54.241 320.698 56.345 C 319.939 58.701 318.585 60.547 316.134 61.207 C 313.38 61.949 310.832 61.44 309.281 58.825 C 308.187 56.983 307.105 55.016 306.614 52.962 C 305.92 50.052 304.078 51.408 302.489 51.363 C 300.554 51.309 300.504 52.667 300.343 53.948 C 300.09 55.963 300.134 58.044 299.646 59.996 C 298.468 64.711 292.63 66.388 289.759 63.512 C 288.326 62.077 287.031 60.468 285.882 58.795 C 284.216 56.366 283.938 56.261 281.192 57.386 C 279.799 57.957 279.44 58.734 279.558 60.222 C 279.756 62.72 280.15 65.388 279.512 67.727 C 278.237 72.401 271.913 73.871 268.119 69.513 C 266.754 67.945 265.17 66.568 263.753 65.169 C 262.5 65.943 261.446 66.469 260.557 67.196 C 260.126 67.55 259.695 68.348 259.799 68.83 C 260.141 70.414 260.708 71.951 261.224 73.494 C 262.316 76.762 261.61 79.747 259.518 81.513 C 257.413 83.29 253.831 83.812 251.038 81.535 C 249.882 80.592 248.465 79.975 247.214 79.14 C 245.238 77.819 244.258 79.664 243.272 80.596 C 242.71 81.128 242.647 82.655 242.951 83.528 C 243.5 85.103 244.491 86.524 245.3 88.009 C 246.56 90.324 246.458 92.667 244.817 94.64 C 242.969 96.863 240.527 98.018 237.531 97.027 C 236.044 96.534 234.555 96.012 233.133 95.358 C 230.223 94.021 229.217 94.272 227.93 97.174 C 227.666 97.769 227.912 98.851 228.319 99.432 C 229.567 101.212 231.191 102.742 232.335 104.577 C 234.89 108.674 232.392 113.796 227.6 114.053 C 224.994 114.193 222.349 113.46 219.71 113.284 C 219.125 113.245 218.126 113.77 217.956 114.257 C 217.533 115.467 215.734 116.574 217.104 118.019 C 218.588 119.584 220.399 120.833 221.928 122.36 C 223.074 123.503 223.78 124.5 224.072 125.52 C 225.856 125.251 249.381 121.589 250.737 121.457 C 252.636 118.574 254.605 115.732 256.704 112.996 C 261.956 106.148 268.429 100.556 275.607 95.839 C 278.405 94 281.585 92.681 284.717 91.446 C 285.685 91.064 287.309 91.386 288.227 91.995 C 292.68 94.951 297.258 94.116 301.899 92.797 C 303.792 92.26 305.632 91.498 307.551 91.104 C 310.283 90.543 312.035 88.631 313.354 86.588 C 315.758 82.866 318.967 82.026 323.162 82.115 C 329.632 82.252 335.926 83.232 342.135 84.851 C 349.498 86.772 356.565 89.536 362.928 93.74 C 366.807 96.302 370.803 99.445 374.37 102.414 C 376.656 102.014 396.81 99.087 400.419 98.378 Z " fill="rgb(255,255,255)"/><path d=" M 338.324 227.275 C 334.217 227.763 329.583 224.742 329.188 220.006 C 328.811 215.482 332.302 210.759 336.513 210.341 C 340.541 209.942 345.454 213.158 345.453 217.87 C 345.945 222.543 342.721 226.752 338.324 227.275 Z  M 405.554 193.041 C 403.954 190.993 403.873 188.328 404.726 186.522 C 403.793 186.584 377.613 190.646 375.457 190.978 C 369.722 196.922 363.24 202.024 355.862 205.979 C 354.918 206.485 353.832 206.723 352.304 207.266 C 350.884 206.864 348.957 206.694 347.456 205.807 C 344.915 204.305 342.386 203.438 339.474 204.138 C 335.489 205.094 331.41 205.819 327.585 207.224 C 325.773 207.889 324.086 209.661 322.991 211.35 C 320.663 214.944 317.795 216.779 313.399 216.16 C 308.357 215.451 303.221 215.282 298.24 214.304 C 291.456 212.971 284.69 209.142 278.608 205.971 C 277.253 206.104 248.709 210.446 246.769 210.774 C 247.768 211.954 248.668 213.691 248.347 215.321 C 247.87 217.75 246.914 220.113 245.949 222.413 C 244.932 224.839 244.949 225.276 247.169 226.749 C 247.442 226.929 247.711 227.113 247.981 227.297 C 249.058 228.031 249.93 228.136 251.029 227.065 C 252.578 225.554 254.364 224.273 256.115 222.983 C 258.019 221.581 260.193 221.135 262.263 222.388 C 264.634 223.823 266.039 225.906 265.42 228.918 C 264.984 231.041 264.845 233.235 264.266 235.313 C 263.797 236.998 264.745 237.636 265.886 238.03 C 267.2 238.485 268.588 240.009 270.027 238.126 C 271.122 236.694 272.215 235.245 273.452 233.938 C 275.53 231.742 277.969 229.979 281.132 231.33 C 283.715 232.434 285.005 234.731 285.075 237.563 C 285.114 239.125 284.958 240.692 284.895 242.257 C 284.832 243.827 284.622 245.261 286.879 245.775 C 289.941 246.473 290.575 246.482 291.687 244.368 C 292.415 242.985 292.941 241.458 293.865 240.226 C 294.865 238.892 296.02 237.336 297.465 236.74 C 301.251 235.177 304.609 237.258 305.572 240.983 C 306.134 243.157 306.712 245.339 307.059 247.553 C 307.252 248.781 307.778 249.201 308.908 249.22 C 309.515 249.23 310.12 249.403 310.727 249.406 C 312.128 249.412 313.09 249.144 313.496 247.376 C 314.052 244.959 314.904 242.522 316.114 240.364 C 318.293 236.476 323.191 236.099 325.85 239.479 C 327.387 241.433 328.208 243.99 329.148 246.357 C 329.911 248.279 331.127 248.708 333.034 248.358 C 334.955 248.007 335.608 246.967 335.823 245.097 C 336.124 242.489 336.578 239.852 337.376 237.358 C 338.178 234.854 341.807 233.498 344.358 234.158 C 347.474 234.964 348.592 237.65 350.133 239.926 C 352.275 243.087 352.207 243.046 355.713 242.199 C 357.207 241.837 357.6 241.076 357.421 239.692 C 357.173 237.768 356.976 235.835 356.806 233.902 C 356.553 231.039 358.219 228.22 360.733 227.178 C 363.468 226.045 366.41 226.757 368.395 228.962 C 369.398 230.075 370.648 230.996 371.508 232.201 C 373.023 234.324 374.502 233.618 376.086 232.437 C 376.523 232.111 377.023 231.818 377.337 231.394 C 377.59 231.052 377.799 230.481 377.692 230.106 C 377.267 228.614 376.539 227.193 376.247 225.684 C 375.886 223.815 375.311 221.743 375.77 220.007 C 376.98 215.434 382.346 213.922 386.184 216.743 C 387.613 217.793 389.235 218.592 390.614 219.698 C 392.412 221.141 393.342 219.691 394.413 218.748 C 395.542 217.753 395.923 216.731 395.029 215.163 C 393.496 212.473 391.628 209.891 391.585 206.538 C 391.545 203.386 394.999 199.97 398.055 200.688 C 400.809 201.334 403.479 202.391 406.122 203.427 C 408.431 204.333 408.711 202.175 409.739 201.209 C 410.619 200.384 410.726 199.399 409.823 198.35 C 408.343 196.629 406.951 194.83 405.554 193.041 Z " fill="rgb(255,255,255)"/></g></g></svg>