<?xml version="1.0" encoding="UTF-8" standalone="no"?><!-- Generator: Gravit.io --><svg xmlns="http://www.w3.org/2000/svg" xmlns:xlink="http://www.w3.org/1999/xlink" style="isolation:isolate" viewBox="37 92.25 646 509.154" width="646pt" height="509.154pt"><g><g><path d=" M 609.367 373.509 L 650.377 366.438 L 650.377 401.791 L 550.372 418.761 L 550.372 383.137 L 573.617 379.301 L 573.617 262.021 L 550.372 266.08 L 550.372 236.737 L 650.377 219.567 L 650.377 249.067 L 609.208 255.888 L 609.367 373.509 Z " fill="rgb(0,0,0)"/><path d=" M 659.37 365.01 L 683 360.959 L 683 396.312 L 600.375 410.261 L 600.375 374.638 L 623.619 370.802 L 623.619 253.522 L 600.375 257.581 L 600.375 228.325 L 683 213.751 L 683 243.587 L 659.21 247.388 L 659.37 365.01 Z " fill="rgb(0,0,0)"/></g><g><g><path d=" M 96.148 372.22 C 96.012 374.676 95.301 377.08 94.016 379.429 C 92.729 381.781 90.956 383.946 88.696 385.922 C 86.434 387.898 83.701 389.619 80.498 391.084 C 77.296 392.548 73.674 393.629 69.634 394.325 C 66.5 394.865 63.555 394.967 60.804 394.631 C 58.05 394.294 55.56 393.575 53.329 392.473 C 51.096 391.372 49.198 389.891 47.628 388.032 C 46.058 386.175 44.921 383.956 44.222 381.373 L 60.929 371.702 C 60.79 371.795 60.947 372.241 61.402 373.04 C 61.854 373.84 62.501 374.66 63.339 375.495 C 64.175 376.33 65.204 377.03 66.425 377.597 C 67.643 378.165 68.951 378.226 70.344 377.784 C 71.526 377.445 72.693 376.737 73.841 375.661 C 74.991 374.584 75.527 373.107 75.456 371.226 C 75.384 370.09 74.912 369.107 74.041 368.278 C 73.167 367.449 71.93 366.631 70.329 365.825 C 66.773 364.143 63.477 362.7 60.445 361.498 C 57.413 360.299 54.763 358.947 52.497 357.446 C 50.23 355.945 48.452 354.124 47.16 351.98 C 45.867 349.839 45.22 346.977 45.215 343.396 C 45.211 340.086 45.901 337.062 47.293 334.321 C 48.682 331.583 50.526 329.169 52.822 327.084 C 55.119 325 57.763 323.26 60.758 321.866 C 63.749 320.473 66.849 319.464 70.054 318.845 C 73.883 318.185 77.247 318.128 80.139 318.677 C 83.029 319.227 85.47 320.14 87.458 321.419 C 89.445 322.697 90.998 324.273 92.116 326.139 C 93.232 328.011 93.965 329.927 94.318 331.894 L 78.968 340.418 C 78.757 339.711 78.443 338.935 78.024 338.097 C 77.604 337.257 77.029 336.513 76.295 335.86 C 75.563 335.211 74.69 334.703 73.68 334.334 C 72.671 333.969 71.503 333.9 70.179 334.128 C 68.785 334.368 67.516 335.008 66.368 336.05 C 65.22 337.094 64.646 338.461 64.648 340.148 C 64.65 341.432 65.191 342.471 66.274 343.263 C 67.353 344.059 69.045 345.067 71.346 346.292 C 74.552 347.498 77.636 348.722 80.6 349.968 C 83.561 351.214 86.195 352.752 88.496 354.587 C 90.798 356.419 92.645 358.62 94.043 361.181 C 95.44 363.744 96.141 366.952 96.146 370.801 L 96.148 372.22 Z " fill="rgb(0,0,0)"/><path d=" M 153.222 304.511 L 153.245 321.534 L 135.589 324.576 L 135.669 382.944 L 118.115 385.97 L 118.036 327.602 L 100.377 330.645 L 100.354 313.622 L 153.222 304.511 Z " fill="rgb(0,0,0)"/><path d=" M 206.531 312.35 L 176.441 317.536 L 176.457 329.696 L 198.606 325.878 L 198.629 342.903 L 176.48 346.72 L 176.497 358.879 L 206.587 353.692 L 206.611 370.717 L 158.966 378.928 L 158.864 303.538 L 206.508 295.327 L 206.531 312.35 Z " fill="rgb(0,0,0)"/><path d=" M 261.07 302.95 L 230.98 308.136 L 230.996 320.296 L 253.145 316.479 L 253.168 333.503 L 231.019 337.32 L 231.035 349.479 L 261.126 344.293 L 261.149 361.318 L 213.505 369.529 L 213.402 294.139 L 261.047 285.927 L 261.07 302.95 Z " fill="rgb(0,0,0)"/><path d=" M 285.574 340.079 L 306.366 336.496 L 306.389 353.52 L 268.044 360.129 L 267.941 284.739 L 285.495 281.714 L 285.574 340.079 Z " fill="rgb(0,0,0)"/></g><g><path d=" M 372.085 325.474 C 375.078 325.16 377.57 323.988 379.551 321.956 C 381.534 319.927 383.046 317.639 384.087 315.094 L 399.249 320.692 C 398.624 322.014 397.738 323.724 396.591 325.811 C 395.446 327.902 393.828 330.038 391.74 332.223 C 389.653 334.406 386.991 336.437 383.755 338.311 C 380.517 340.187 376.53 341.533 371.793 342.349 L 371.689 342.367 C 366.395 343.279 361.953 343.235 358.365 342.231 C 354.773 341.228 351.846 339.555 349.578 337.208 C 347.31 334.861 345.654 331.973 344.604 328.539 C 343.553 325.105 342.921 321.446 342.707 317.564 L 342.686 301.959 C 342.752 298.233 343.39 294.455 344.605 290.632 C 345.817 286.807 347.625 283.27 350.023 280.018 C 352.422 276.766 355.431 273.966 359.052 271.62 C 362.671 269.272 366.886 267.686 371.691 266.858 L 371.795 266.84 C 376.042 266.108 379.702 266.051 382.769 266.671 C 385.834 267.293 388.466 268.325 390.662 269.77 C 392.859 271.216 394.638 272.971 395.999 275.033 C 397.362 277.096 398.426 279.21 399.195 281.375 L 384.057 292.194 C 383.639 291.049 383.06 289.899 382.328 288.741 C 381.596 287.586 380.705 286.588 379.659 285.755 C 378.614 284.922 377.426 284.315 376.104 283.935 C 374.779 283.556 373.385 283.526 371.922 283.844 C 368.37 284.727 365.533 286.585 363.414 289.417 C 361.291 292.25 360.233 295.523 360.239 299.239 L 360.259 313.93 C 360.263 317.648 361.348 320.584 363.511 322.745 C 365.672 324.908 368.532 325.818 372.085 325.474 Z " fill="rgb(0,0,0)"/><path d=" M 423.826 257.873 L 423.928 333.262 L 406.375 336.288 L 406.272 260.898 L 423.826 257.873 Z " fill="rgb(0,0,0)"/><path d=" M 482.961 247.681 L 482.984 264.703 L 465.329 267.746 L 465.408 326.114 L 447.854 329.139 L 447.775 270.772 L 430.117 273.815 L 430.094 256.792 L 482.961 247.681 Z " fill="rgb(0,0,0)"/><path d=" M 545.233 236.948 L 524.386 278.244 L 524.438 315.94 L 507.931 318.785 L 507.88 281.089 L 487.873 246.834 L 507.514 243.449 L 516.628 259.716 L 525.59 240.333 L 545.233 236.948 Z " fill="rgb(0,0,0)"/></g></g><g><g><path d=" M 84.692 474.797 L 67.479 477.763 L 59.673 501.68 L 37 505.587 L 62.763 415.468 L 89.354 410.885 L 115.351 492.083 L 92.677 495.991 L 84.692 474.797 Z " fill="rgb(0,0,0)"/><path d=" M 140.254 468.443 L 163.878 464.372 L 163.904 483.715 L 120.335 491.224 L 120.219 405.565 L 140.164 402.128 L 140.254 468.443 Z " fill="rgb(0,0,0)"/><path d=" M 191.42 459.625 L 215.044 455.553 L 215.07 474.897 L 171.501 482.405 L 171.385 396.747 L 191.33 393.309 L 191.42 459.625 Z " fill="rgb(0,0,0)"/><path d=" M 276.711 397.94 L 242.522 403.832 L 242.541 417.648 L 267.707 413.311 L 267.733 432.655 L 242.567 436.992 L 242.586 450.806 L 276.775 444.914 L 276.801 464.257 L 222.667 473.587 L 222.551 387.928 L 276.685 378.599 L 276.711 397.94 Z " fill="rgb(0,0,0)"/><path d=" M 348.862 366.159 L 325.175 413.08 L 325.234 455.91 L 306.479 459.142 L 306.42 416.312 L 283.688 377.391 L 306.005 373.545 L 316.361 392.028 L 326.543 370.006 L 348.862 366.159 Z " fill="rgb(0,0,0)"/><path d=" M 377.679 427.87 C 381.08 427.513 383.912 426.181 386.162 423.873 C 388.416 421.567 390.133 418.968 391.317 416.076 L 408.544 422.436 C 407.833 423.939 406.826 425.881 405.524 428.252 C 404.222 430.628 402.385 433.055 400.012 435.538 C 397.64 438.018 394.616 440.326 390.939 442.455 C 387.259 444.587 382.73 446.115 377.349 447.043 L 377.23 447.063 C 371.215 448.1 366.167 448.05 362.091 446.908 C 358.01 445.77 354.684 443.868 352.107 441.202 C 349.53 438.536 347.648 435.254 346.456 431.352 C 345.26 427.449 344.543 423.293 344.3 418.883 L 344.276 401.151 C 344.351 396.918 345.076 392.625 346.456 388.282 C 347.834 383.936 349.888 379.916 352.613 376.222 C 355.339 372.527 358.757 369.346 362.871 366.681 C 366.983 364.013 371.772 362.21 377.231 361.269 L 377.35 361.249 C 382.176 360.417 386.334 360.352 389.818 361.056 C 393.301 361.764 396.292 362.937 398.787 364.578 C 401.285 366.221 403.305 368.215 404.852 370.558 C 406.4 372.902 407.609 375.303 408.483 377.763 L 391.281 390.057 C 390.807 388.756 390.15 387.449 389.318 386.134 C 388.486 384.82 387.474 383.687 386.286 382.741 C 385.097 381.794 383.748 381.104 382.246 380.673 C 380.741 380.242 379.157 380.207 377.494 380.57 C 373.459 381.573 370.235 383.684 367.827 386.901 C 365.415 390.12 364.213 393.839 364.219 398.061 L 364.242 414.753 C 364.248 418.978 365.479 422.313 367.938 424.769 C 370.394 427.226 373.643 428.261 377.679 427.87 Z " fill="rgb(0,0,0)"/><path d=" M 458.163 410.429 L 440.95 413.396 L 433.144 437.312 L 410.471 441.22 L 436.234 351.101 L 462.825 346.517 L 488.822 427.716 L 466.148 431.623 L 458.163 410.429 Z " fill="rgb(0,0,0)"/><path d=" M 538.564 333.464 L 538.59 352.805 L 518.529 356.263 L 518.62 422.58 L 498.675 426.017 L 498.585 359.7 L 478.521 363.158 L 478.495 343.817 L 538.564 333.464 Z " fill="rgb(0,0,0)"/></g></g><g><path d=" M 314.473 186.367 C 303.082 187.579 293.803 181.536 292.819 171.682 C 291.491 158.388 300.852 149.077 313.076 147.867 C 324.761 146.712 332.154 153.527 333.702 166.846 C 334.595 174.536 323.931 185.36 314.473 186.367 Z  M 572.36 215.777 C 571.374 213.229 572.081 211.834 573.955 208.673 C 576.434 204.492 578.918 200.313 581.305 196.079 C 582.818 193.394 585.828 190.107 585.188 187.986 C 584.172 184.614 580.973 181.605 578.038 179.27 C 577.111 178.534 574.004 180.298 572.01 181.178 C 568.36 182.788 564.735 184.478 561.208 186.339 C 551.372 191.53 545.241 188.744 539.652 183.533 C 535.533 179.692 535.147 172.439 538.452 165.068 C 540.161 161.258 541.549 157.303 543.31 153.519 C 544.602 150.742 544.497 147.96 541.75 146.886 C 538.156 145.483 535.361 139.682 530.244 144.419 C 526.664 147.734 522.769 150.72 518.931 153.746 C 513.482 158.045 505.796 159.044 501.016 156.198 C 493.545 151.747 491.1 146.165 492.872 137.627 C 493.716 133.559 494.355 129.438 495.427 125.431 C 496.606 121.027 493.851 119.264 490.647 118.094 C 487.693 117.014 484.668 113.909 481.472 118.471 C 478.679 122.456 475.034 125.848 471.757 129.493 C 463.472 138.708 451.377 136.88 445.735 128.68 C 440.802 121.511 443.129 113.727 442.865 106.241 C 442.753 103.044 443.235 100.292 439.573 100.039 C 435.695 99.771 431.223 95.019 427.855 101.704 C 424.743 107.886 421.273 114.092 416.849 119.358 C 411.727 125.456 399.237 124.888 394.852 118.353 C 392.093 114.242 390.739 108.888 389.847 103.897 C 388.056 93.867 388.142 93.617 377.999 93.018 C 377.014 92.96 376.048 92.616 374.365 92.25 C 372.461 97.771 370.535 103.08 368.804 108.452 C 366.866 114.466 363.408 119.181 357.152 120.866 C 350.118 122.761 343.613 121.461 339.651 114.785 C 336.859 110.08 334.096 105.058 332.843 99.814 C 331.071 92.384 326.368 95.846 322.31 95.731 C 317.368 95.593 317.24 99.06 316.829 102.331 C 316.184 107.477 316.297 112.789 315.051 117.774 C 312.044 129.813 297.137 134.095 289.805 126.751 C 286.146 123.087 282.839 118.98 279.907 114.707 C 275.653 108.504 274.943 108.237 267.93 111.111 C 264.374 112.568 263.457 114.551 263.759 118.351 C 264.265 124.728 265.27 131.542 263.642 137.513 C 260.386 149.449 244.239 153.202 234.55 142.073 C 231.066 138.071 227.022 134.553 223.403 130.982 C 220.202 132.958 217.512 134.301 215.244 136.159 C 214.142 137.063 213.042 139.1 213.307 140.33 C 214.179 144.374 215.628 148.298 216.945 152.239 C 219.734 160.583 217.932 168.206 212.589 172.715 C 207.214 177.253 198.069 178.585 190.938 172.77 C 187.986 170.363 184.367 168.788 181.173 166.654 C 176.127 163.284 173.626 167.993 171.107 170.374 C 169.672 171.732 169.512 175.629 170.288 177.859 C 171.69 181.88 174.221 185.511 176.285 189.302 C 179.504 195.211 179.242 201.195 175.053 206.233 C 170.334 211.908 164.098 214.859 156.45 212.327 C 152.651 211.069 148.849 209.735 145.218 208.066 C 137.787 204.652 135.221 205.292 131.934 212.703 C 131.26 214.222 131.889 216.985 132.928 218.468 C 136.113 223.012 140.259 226.921 143.181 231.605 C 149.705 242.066 143.328 255.143 131.092 255.801 C 124.437 256.159 117.683 254.286 110.946 253.837 C 109.452 253.738 106.902 255.077 106.467 256.321 C 105.387 259.411 100.793 262.237 104.292 265.929 C 108.08 269.923 112.705 273.114 116.61 277.011 C 119.534 279.93 121.338 282.475 122.082 285.08 C 126.638 284.393 186.705 275.044 190.168 274.706 C 195.017 267.345 200.044 260.088 205.403 253.103 C 218.814 235.618 235.342 221.339 253.67 209.293 C 260.814 204.598 268.933 201.23 276.932 198.078 C 279.404 197.103 283.55 197.924 285.893 199.48 C 297.264 207.026 308.953 204.893 320.803 201.528 C 325.636 200.155 330.335 198.209 335.235 197.203 C 342.21 195.772 346.684 190.891 350.053 185.674 C 356.192 176.168 364.384 174.023 375.094 174.25 C 391.617 174.603 407.688 177.104 423.539 181.239 C 442.342 186.143 460.384 193.201 476.632 203.934 C 486.538 210.476 496.739 218.503 505.849 226.083 C 511.684 225.061 563.145 217.588 572.36 215.777 Z " fill="rgb(0,0,0)"/><path d=" M 413.81 544.897 C 403.322 546.144 391.491 538.429 390.482 526.338 C 389.518 514.787 398.434 502.727 409.185 501.659 C 419.469 500.639 432.014 508.851 432.013 520.883 C 433.268 532.815 425.037 543.562 413.81 544.897 Z  M 585.471 457.484 C 581.387 452.256 581.181 445.452 583.357 440.841 C 580.976 441 514.13 451.371 508.623 452.217 C 493.98 467.394 477.429 480.423 458.59 490.521 C 456.181 491.812 453.406 492.422 449.504 493.808 C 445.88 492.78 440.959 492.347 437.126 490.081 C 430.638 486.246 424.181 484.034 416.747 485.819 C 406.57 488.262 396.156 490.113 386.389 493.699 C 381.762 495.398 377.454 499.922 374.66 504.236 C 368.715 513.413 361.391 518.097 350.167 516.517 C 337.294 514.705 324.18 514.274 311.459 511.777 C 294.138 508.375 276.862 498.596 261.334 490.502 C 257.872 490.84 184.989 501.927 180.037 502.763 C 182.588 505.777 184.885 510.212 184.066 514.375 C 182.847 520.578 180.407 526.611 177.944 532.482 C 175.345 538.677 175.39 539.792 181.059 543.553 C 181.754 544.014 182.441 544.485 183.13 544.955 C 185.882 546.827 188.107 547.097 190.913 544.362 C 194.87 540.504 199.429 537.232 203.9 533.938 C 208.762 530.358 214.313 529.219 219.6 532.419 C 225.651 536.084 229.24 541.402 227.659 549.094 C 226.545 554.512 226.19 560.116 224.714 565.42 C 223.515 569.724 225.935 571.352 228.85 572.36 C 232.204 573.521 235.747 577.413 239.423 572.604 C 242.219 568.946 245.011 565.249 248.167 561.911 C 253.473 556.302 259.703 551.802 267.778 555.252 C 274.374 558.071 277.667 563.936 277.846 571.166 C 277.945 575.155 277.547 579.156 277.387 583.152 C 277.225 587.161 276.69 590.822 282.451 592.135 C 290.269 593.916 291.89 593.939 294.729 588.542 C 296.587 585.011 297.929 581.112 300.29 577.966 C 302.844 574.561 305.793 570.587 309.483 569.064 C 319.148 565.073 327.722 570.387 330.182 579.898 C 331.616 585.45 333.093 591.022 333.98 596.674 C 334.473 599.81 335.814 600.882 338.699 600.931 C 340.249 600.957 341.795 601.398 343.344 601.405 C 346.922 601.42 349.379 600.736 350.416 596.221 C 351.834 590.052 354.011 583.828 357.1 578.318 C 362.662 568.391 375.169 567.427 381.959 576.057 C 385.884 581.047 387.981 587.577 390.38 593.62 C 392.329 598.529 395.432 599.623 400.302 598.731 C 405.208 597.834 406.874 595.178 407.424 590.404 C 408.193 583.744 409.351 577.011 411.39 570.643 C 413.438 564.249 422.702 560.788 429.215 562.471 C 437.173 564.529 440.027 571.39 443.963 577.2 C 449.431 585.271 449.257 585.167 458.209 583.003 C 462.025 582.081 463.027 580.137 462.572 576.603 C 461.937 571.689 461.434 566.755 461 561.818 C 460.355 554.507 464.609 547.311 471.028 544.65 C 478.011 541.757 485.523 543.576 490.593 549.205 C 493.153 552.047 496.344 554.398 498.54 557.475 C 502.408 562.896 506.184 561.092 510.229 558.078 C 511.346 557.246 512.623 556.497 513.423 555.414 C 514.069 554.542 514.602 553.082 514.33 552.126 C 513.245 548.317 511.387 544.689 510.641 540.835 C 509.719 536.062 508.251 530.772 509.423 526.339 C 512.512 514.663 526.214 510.803 536.013 518.005 C 539.661 520.687 543.803 522.726 547.323 525.552 C 551.916 529.236 554.291 525.532 557.025 523.124 C 559.909 520.585 560.881 517.974 558.599 513.97 C 554.684 507.101 549.913 500.509 549.804 491.949 C 549.702 483.901 558.521 475.178 566.325 477.01 C 573.356 478.661 580.173 481.359 586.923 484.006 C 592.819 486.317 593.533 480.807 596.158 478.343 C 598.403 476.234 598.677 473.72 596.373 471.041 C 592.593 466.647 589.04 462.055 585.471 457.484 Z " fill="rgb(0,0,0)"/></g></g></svg>