<?xml version="1.0" encoding="UTF-8" standalone="no"?><!-- Generator: Gravit.io --><svg xmlns="http://www.w3.org/2000/svg" xmlns:xlink="http://www.w3.org/1999/xlink" style="isolation:isolate" viewBox="258 140.63 1404 1178.74" width="1404pt" height="1178.74pt"><g><g><path d=" M 422.048 759.641 C 421.673 766.422 419.71 773.06 416.162 779.547 C 412.607 786.039 407.712 792.017 401.473 797.474 C 395.226 802.931 387.681 807.681 378.837 811.726 C 369.997 815.768 359.995 818.753 348.841 820.675 C 340.188 822.165 332.056 822.446 324.462 821.52 C 316.858 820.59 309.982 818.603 303.821 815.563 C 297.656 812.522 292.415 808.433 288.081 803.298 C 283.745 798.172 280.606 792.046 278.676 784.914 L 324.807 758.213 C 324.423 758.469 324.856 759.699 326.112 761.906 C 327.361 764.115 329.147 766.377 331.46 768.683 C 333.768 770.988 336.609 772.922 339.98 774.489 C 343.343 776.055 346.954 776.223 350.802 775.004 C 354.066 774.068 357.287 772.113 360.457 769.143 C 363.631 766.17 365.113 762.091 364.916 756.897 C 364.717 753.76 363.413 751.046 361.009 748.756 C 358.597 746.47 355.181 744.211 350.759 741.986 C 340.941 737.34 331.842 733.355 323.47 730.037 C 315.098 726.726 307.781 722.994 301.524 718.849 C 295.264 714.706 290.356 709.676 286.79 703.757 C 283.217 697.847 281.431 689.945 281.419 680.058 C 281.407 670.918 283.314 662.568 287.155 655.001 C 290.99 647.44 296.083 640.776 302.421 635.017 C 308.765 629.265 316.063 624.461 324.332 620.611 C 332.592 616.764 341.153 613.978 350.001 612.27 C 360.574 610.447 369.862 610.289 377.846 611.806 C 385.826 613.325 392.565 615.846 398.053 619.378 C 403.541 622.907 407.827 627.257 410.915 632.41 C 413.997 637.577 416.021 642.868 416.994 648.298 L 374.612 671.833 C 374.029 669.883 373.163 667.74 372.005 665.426 C 370.847 663.106 369.258 661.051 367.232 659.248 C 365.212 657.456 362.801 656.054 360.013 655.036 C 357.225 654.028 354 653.837 350.346 654.467 C 346.496 655.13 342.992 656.898 339.824 659.774 C 336.655 662.656 335.068 666.43 335.074 671.088 C 335.08 674.634 336.572 677.504 339.564 679.69 C 342.542 681.887 347.215 684.671 353.569 688.052 C 362.419 691.382 370.935 694.763 379.118 698.202 C 387.295 701.643 394.567 705.89 400.919 710.955 C 407.275 716.014 412.377 722.09 416.236 729.161 C 420.092 736.239 422.028 745.096 422.042 755.724 L 422.048 759.641 Z  M 579.632 572.692 L 579.696 619.693 L 530.948 628.094 L 531.168 789.251 L 482.699 797.605 L 482.481 636.448 L 433.725 644.851 L 433.661 597.85 L 579.632 572.692 Z  M 726.822 594.335 L 643.742 608.655 L 643.787 642.229 L 704.941 631.689 L 705.005 678.695 L 643.851 689.235 L 643.896 722.805 L 726.978 708.485 L 727.042 755.493 L 595.493 778.164 L 595.209 570.008 L 726.758 547.334 L 726.822 594.335 Z  M 877.406 568.382 L 794.326 582.702 L 794.371 616.276 L 855.526 605.736 L 855.589 652.742 L 794.435 663.282 L 794.48 696.852 L 877.562 682.532 L 877.626 729.54 L 746.077 752.211 L 745.794 544.055 L 877.343 521.381 L 877.406 568.382 Z  M 945.065 670.899 L 1002.473 661.006 L 1002.536 708.011 L 896.662 726.258 L 896.379 518.102 L 944.846 509.748 L 945.065 670.899 Z  M 1183.926 630.573 C 1192.189 629.707 1199.071 626.469 1204.54 620.861 C 1210.015 615.258 1214.191 608.941 1217.065 601.914 L 1258.928 617.368 C 1257.203 621.021 1254.756 625.741 1251.59 631.503 C 1248.427 637.276 1243.962 643.174 1238.195 649.208 C 1232.432 655.234 1225.084 660.842 1216.148 666.016 C 1207.207 671.198 1196.199 674.912 1183.121 677.166 L 1182.834 677.215 C 1168.217 679.734 1155.952 679.613 1146.045 676.839 C 1136.127 674.072 1128.046 669.451 1121.784 662.971 C 1115.523 656.492 1110.949 648.518 1108.05 639.036 C 1105.147 629.553 1103.402 619.452 1102.813 608.734 L 1102.755 565.646 C 1102.936 555.358 1104.697 544.927 1108.052 534.372 C 1111.398 523.812 1116.391 514.044 1123.012 505.066 C 1129.637 496.086 1137.943 488.357 1147.941 481.88 C 1157.933 475.396 1169.572 471.017 1182.838 468.73 L 1183.126 468.681 C 1194.852 466.659 1204.957 466.501 1213.426 468.213 C 1221.888 469.931 1229.155 472.781 1235.218 476.77 C 1241.287 480.763 1246.197 485.608 1249.956 491.303 C 1253.717 496.998 1256.657 502.835 1258.78 508.813 L 1216.981 538.686 C 1215.828 535.524 1214.23 532.348 1212.208 529.152 C 1210.188 525.961 1207.728 523.206 1204.84 520.907 C 1201.953 518.606 1198.675 516.93 1195.023 515.881 C 1191.366 514.834 1187.517 514.752 1183.477 515.631 C 1173.67 518.068 1165.837 523.198 1159.986 531.018 C 1154.123 538.84 1151.204 547.877 1151.218 558.136 L 1151.274 598.699 C 1151.286 608.964 1154.281 617.071 1160.253 623.037 C 1166.221 629.009 1174.117 631.522 1183.926 630.573 Z  M 1326.786 443.921 L 1327.07 652.077 L 1278.603 660.431 L 1278.319 452.275 L 1326.786 443.921 Z  M 1490.064 415.781 L 1490.127 462.779 L 1441.379 471.182 L 1441.599 632.339 L 1393.13 640.693 L 1392.912 479.536 L 1344.158 487.939 L 1344.092 440.938 L 1490.064 415.781 Z  M 1662 386.147 L 1604.441 500.168 L 1604.582 604.248 L 1559.006 612.103 L 1558.864 508.023 L 1503.625 413.444 L 1557.854 404.097 L 1583.02 449.012 L 1607.764 395.495 L 1662 386.147 Z  M 388.239 1040.573 L 341.232 1048.675 L 319.916 1113.986 L 258 1124.658 L 328.354 878.558 L 400.97 866.041 L 471.962 1087.78 L 410.044 1098.451 L 388.239 1040.573 Z  M 539.968 1023.224 L 604.481 1012.105 L 604.552 1064.928 L 485.574 1085.433 L 485.256 851.514 L 539.721 842.128 L 539.968 1023.224 Z  M 679.693 999.142 L 744.206 988.024 L 744.278 1040.847 L 625.299 1061.352 L 624.981 827.433 L 679.447 818.047 L 679.693 999.142 Z  M 912.607 830.691 L 819.244 846.782 L 819.295 884.512 L 888.019 872.668 L 888.091 925.492 L 819.367 937.335 L 819.418 975.061 L 912.782 958.97 L 912.854 1011.793 L 765.025 1037.27 L 764.706 803.352 L 912.536 777.874 L 912.607 830.691 Z  M 1109.639 743.903 L 1044.956 872.036 L 1045.116 988.999 L 993.898 997.825 L 993.738 880.862 L 931.662 774.577 L 992.605 764.074 L 1020.884 814.549 L 1048.69 754.409 L 1109.639 743.903 Z  M 1188.334 912.424 C 1197.62 911.451 1205.353 907.813 1211.5 901.511 C 1217.653 895.214 1222.344 888.115 1225.575 880.217 L 1272.619 897.585 C 1270.679 901.689 1267.928 906.994 1264.372 913.469 C 1260.817 919.957 1255.801 926.586 1249.32 933.365 C 1242.843 940.138 1234.586 946.44 1224.545 952.254 C 1214.495 958.077 1202.126 962.25 1187.431 964.784 L 1187.106 964.839 C 1170.681 967.67 1156.897 967.535 1145.766 964.416 C 1134.62 961.308 1125.537 956.114 1118.502 948.832 C 1111.464 941.552 1106.324 932.591 1103.068 921.934 C 1099.803 911.277 1097.845 899.926 1097.182 887.883 L 1097.116 839.461 C 1097.321 827.901 1099.3 816.179 1103.07 804.316 C 1106.831 792.45 1112.442 781.473 1119.882 771.384 C 1127.328 761.294 1136.661 752.608 1147.895 745.328 C 1159.124 738.044 1172.202 733.121 1187.111 730.551 L 1187.435 730.495 C 1200.613 728.225 1211.968 728.046 1221.484 729.97 C 1230.993 731.902 1239.162 735.104 1245.976 739.586 C 1252.796 744.074 1258.312 749.518 1262.537 755.917 C 1266.764 762.319 1270.068 768.876 1272.453 775.593 L 1225.479 809.166 C 1224.183 805.612 1222.389 802.044 1220.116 798.451 C 1217.846 794.864 1215.082 791.771 1211.837 789.186 C 1208.591 786.599 1204.908 784.717 1200.804 783.538 C 1196.696 782.362 1192.368 782.267 1187.829 783.257 C 1176.809 785.996 1168.006 791.76 1161.43 800.547 C 1154.842 809.338 1151.561 819.492 1151.578 831.022 L 1151.639 876.606 C 1151.656 888.142 1155.018 897.251 1161.732 903.956 C 1168.439 910.667 1177.312 913.492 1188.334 912.424 Z  M 1408.121 864.798 L 1361.114 872.899 L 1339.798 938.211 L 1277.882 948.882 L 1348.235 702.783 L 1420.852 690.266 L 1491.844 912.004 L 1429.926 922.676 L 1408.121 864.798 Z  M 1627.68 654.62 L 1627.752 707.437 L 1572.97 716.878 L 1573.217 897.98 L 1518.751 907.366 L 1518.505 726.265 L 1463.715 735.708 L 1463.643 682.891 L 1627.68 654.62 Z  M 832.249 331.05 C 809.202 333.501 790.428 321.276 788.436 301.339 C 785.751 274.441 804.69 255.603 829.422 253.156 C 853.064 250.818 868.022 264.607 871.153 291.555 C 872.96 307.112 851.385 329.014 832.249 331.05 Z  M 1354.017 390.554 C 1352.021 385.399 1353.452 382.576 1357.244 376.181 C 1362.259 367.721 1367.285 359.266 1372.114 350.699 C 1375.175 345.267 1381.264 338.618 1379.97 334.327 C 1377.913 327.503 1371.442 321.416 1365.503 316.692 C 1363.629 315.201 1357.343 318.771 1353.308 320.551 C 1345.924 323.809 1338.588 327.228 1331.452 330.993 C 1311.553 341.496 1299.147 335.86 1287.839 325.316 C 1279.506 317.546 1278.726 302.871 1285.412 287.958 C 1288.869 280.249 1291.678 272.247 1295.24 264.591 C 1297.855 258.972 1297.642 253.343 1292.084 251.171 C 1284.813 248.331 1279.159 236.594 1268.805 246.18 C 1261.563 252.887 1253.681 258.927 1245.917 265.051 C 1234.892 273.747 1219.341 275.77 1209.669 270.011 C 1194.553 261.007 1189.608 249.711 1193.192 232.437 C 1194.9 224.207 1196.194 215.87 1198.362 207.762 C 1200.747 198.852 1195.173 195.284 1188.69 192.917 C 1182.714 190.733 1176.594 184.451 1170.127 193.681 C 1164.477 201.743 1157.103 208.606 1150.472 215.981 C 1133.709 234.624 1109.237 230.926 1097.823 214.336 C 1087.843 199.832 1092.551 184.081 1092.017 168.936 C 1091.789 162.467 1092.764 156.9 1085.355 156.389 C 1077.511 155.847 1068.461 146.23 1061.647 159.758 C 1055.351 172.264 1048.33 184.82 1039.381 195.475 C 1029.017 207.812 1003.747 206.664 994.874 193.441 C 989.292 185.124 986.553 174.291 984.749 164.194 C 981.125 143.9 981.298 143.395 960.776 142.182 C 958.785 142.065 956.83 141.369 953.424 140.63 C 949.573 151.8 945.676 162.541 942.174 173.41 C 938.253 185.578 931.256 195.116 918.597 198.526 C 904.366 202.359 891.207 199.729 883.19 186.223 C 877.54 176.703 871.95 166.543 869.416 155.933 C 865.83 140.901 856.314 147.904 848.104 147.672 C 838.106 147.392 837.847 154.407 837.016 161.024 C 835.71 171.437 835.938 182.184 833.417 192.271 C 827.334 216.627 797.174 225.291 782.339 210.433 C 774.936 203.02 768.245 194.71 762.314 186.064 C 753.706 173.515 752.269 172.975 738.081 178.789 C 730.887 181.737 729.031 185.748 729.641 193.437 C 730.665 206.34 732.7 220.125 729.405 232.207 C 722.817 256.357 690.148 263.948 670.546 241.433 C 663.496 233.336 655.315 226.219 647.992 218.992 C 641.517 222.991 636.072 225.708 631.484 229.467 C 629.254 231.296 627.029 235.418 627.564 237.906 C 629.33 246.088 632.262 254.028 634.926 262 C 640.568 278.884 636.922 294.306 626.113 303.429 C 615.238 312.61 596.735 315.306 582.306 303.54 C 576.334 298.671 569.013 295.484 562.551 291.167 C 552.341 284.347 547.281 293.875 542.185 298.693 C 539.282 301.44 538.958 309.326 540.528 313.836 C 543.363 321.972 548.486 329.317 552.661 336.987 C 559.173 348.944 558.644 361.05 550.169 371.244 C 540.621 382.726 528.003 388.696 512.53 383.574 C 504.843 381.028 497.151 378.328 489.805 374.953 C 474.771 368.045 469.579 369.34 462.928 384.333 C 461.564 387.407 462.837 392.997 464.939 395.998 C 471.384 405.192 479.772 413.1 485.683 422.578 C 498.883 443.743 485.98 470.201 461.226 471.532 C 447.76 472.256 434.095 468.467 420.464 467.559 C 417.442 467.358 412.283 470.068 411.402 472.585 C 409.217 478.836 399.921 484.554 407.002 492.023 C 414.666 500.103 424.024 506.56 431.923 514.445 C 437.84 520.35 441.49 525.501 442.995 530.771 C 452.213 529.381 573.743 510.465 580.75 509.781 C 590.559 494.889 600.732 480.206 611.574 466.073 C 638.708 430.696 672.147 401.806 709.23 377.435 C 723.683 367.936 740.111 361.122 756.295 354.744 C 761.296 352.771 769.684 354.434 774.425 357.581 C 797.43 372.849 821.081 368.534 845.055 361.724 C 854.834 358.946 864.341 355.009 874.255 352.974 C 888.367 350.079 897.419 340.202 904.235 329.648 C 916.655 310.416 933.231 306.076 954.9 306.536 C 988.329 307.248 1020.844 312.309 1052.916 320.674 C 1090.958 330.597 1127.462 344.877 1160.334 366.591 C 1180.377 379.829 1201.016 396.068 1219.448 411.406 C 1231.254 409.337 1335.371 394.218 1354.017 390.554 Z  M 1048.46 1205.041 C 1027.241 1207.564 1003.303 1191.955 1001.262 1167.492 C 999.312 1144.121 1017.351 1119.721 1039.103 1117.561 C 1059.91 1115.496 1085.291 1132.111 1085.289 1156.455 C 1087.828 1180.596 1071.175 1202.339 1048.46 1205.041 Z  M 1395.772 1028.185 C 1387.508 1017.606 1387.092 1003.841 1391.495 994.512 C 1386.677 994.832 1251.431 1015.816 1240.289 1017.528 C 1210.662 1048.234 1177.176 1074.595 1139.06 1095.026 C 1134.187 1097.637 1128.572 1098.871 1120.678 1101.675 C 1113.345 1099.596 1103.39 1098.719 1095.634 1094.135 C 1082.507 1086.377 1069.444 1081.901 1054.402 1085.512 C 1033.812 1090.456 1012.743 1094.2 992.98 1101.456 C 983.619 1104.892 974.904 1114.047 969.25 1122.774 C 957.222 1141.341 942.403 1150.818 919.695 1147.621 C 893.649 1143.957 867.116 1143.084 841.38 1138.032 C 806.336 1131.148 771.381 1111.363 739.965 1094.987 C 732.96 1095.67 585.5 1118.103 575.482 1119.795 C 580.643 1125.892 585.289 1134.866 583.632 1143.287 C 581.166 1155.837 576.229 1168.044 571.246 1179.923 C 565.989 1192.456 566.079 1194.712 577.549 1202.323 C 578.955 1203.255 580.345 1204.207 581.739 1205.158 C 587.307 1208.946 591.809 1209.492 597.486 1203.959 C 605.492 1196.154 614.716 1189.533 623.762 1182.869 C 633.598 1175.626 644.829 1173.32 655.525 1179.795 C 667.769 1187.211 675.031 1197.971 671.832 1213.532 C 669.578 1224.495 668.86 1235.834 665.873 1246.565 C 663.448 1255.271 668.344 1258.566 674.24 1260.605 C 681.028 1262.954 688.197 1270.829 695.633 1261.1 C 701.291 1253.699 706.938 1246.218 713.325 1239.465 C 724.06 1228.117 736.663 1219.012 753.001 1225.992 C 766.348 1231.695 773.009 1243.561 773.373 1258.191 C 773.572 1266.261 772.767 1274.356 772.443 1282.441 C 772.116 1290.552 771.032 1297.959 782.689 1300.616 C 798.508 1304.219 801.786 1304.266 807.53 1293.346 C 811.289 1286.202 814.006 1278.312 818.781 1271.948 C 823.948 1265.058 829.916 1257.018 837.381 1253.937 C 856.935 1245.863 874.283 1256.614 879.26 1275.857 C 882.163 1287.091 885.15 1298.364 886.944 1309.799 C 887.942 1316.144 890.656 1318.312 896.492 1318.411 C 899.629 1318.464 902.756 1319.357 905.891 1319.37 C 913.13 1319.4 918.1 1318.017 920.198 1308.883 C 923.068 1296.401 927.472 1283.808 933.721 1272.66 C 944.976 1252.576 970.281 1250.626 984.017 1268.086 C 991.958 1278.181 996.202 1291.394 1001.055 1303.619 C 1004.999 1313.552 1011.277 1315.765 1021.131 1313.96 C 1031.055 1312.145 1034.426 1306.773 1035.539 1297.113 C 1037.095 1283.637 1039.437 1270.016 1043.564 1257.131 C 1047.707 1244.196 1066.451 1237.193 1079.629 1240.599 C 1095.728 1244.762 1101.503 1258.642 1109.467 1270.398 C 1120.53 1286.727 1120.177 1286.518 1138.291 1282.139 C 1146.01 1280.273 1148.038 1276.341 1147.116 1269.191 C 1145.833 1259.248 1144.815 1249.264 1143.936 1239.277 C 1142.633 1224.485 1151.239 1209.925 1164.226 1204.542 C 1178.355 1198.689 1193.553 1202.368 1203.81 1213.758 C 1208.989 1219.508 1215.446 1224.263 1219.889 1230.49 C 1227.714 1241.457 1235.356 1237.809 1243.539 1231.709 C 1245.799 1230.026 1248.382 1228.511 1250.002 1226.32 C 1251.307 1224.555 1252.387 1221.602 1251.837 1219.667 C 1249.64 1211.962 1245.881 1204.62 1244.372 1196.823 C 1242.506 1187.166 1239.538 1176.464 1241.909 1167.494 C 1248.158 1143.87 1275.88 1136.061 1295.705 1150.633 C 1303.088 1156.059 1311.468 1160.183 1318.59 1165.901 C 1327.882 1173.355 1332.688 1165.862 1338.218 1160.99 C 1344.053 1155.852 1346.02 1150.569 1341.403 1142.468 C 1333.482 1128.572 1323.829 1115.233 1323.609 1097.914 C 1323.402 1081.632 1341.244 1063.983 1357.034 1067.69 C 1371.259 1071.03 1385.053 1076.489 1398.71 1081.844 C 1410.637 1086.52 1412.083 1075.373 1417.394 1070.386 C 1421.937 1066.12 1422.491 1061.032 1417.829 1055.613 C 1410.182 1046.723 1402.992 1037.431 1395.772 1028.185 Z " fill-rule="evenodd" fill="rgb(255,255,255)"/></g></g></svg>