<?xml version="1.0" encoding="UTF-8" standalone="no"?><!-- Generator: Gravit.io --><svg xmlns="http://www.w3.org/2000/svg" xmlns:xlink="http://www.w3.org/1999/xlink" style="isolation:isolate" viewBox="274.093 287.801 531.814 504.399" width="531.814pt" height="504.399pt"><path d=" M 598.557 736.844 C 588.283 738.066 576.693 730.509 575.705 718.664 C 574.76 707.348 583.495 695.535 594.026 694.489 C 604.1 693.489 616.389 701.533 616.388 713.32 C 617.618 725.009 609.554 735.536 598.557 736.844 Z  M 766.715 651.215 C 762.715 646.093 762.513 639.428 764.645 634.912 C 762.312 635.067 696.829 645.226 691.435 646.055 C 677.091 660.923 660.878 673.686 642.423 683.578 C 640.063 684.842 637.345 685.44 633.523 686.797 C 629.972 685.79 625.152 685.366 621.397 683.146 C 615.041 679.39 608.716 677.223 601.433 678.972 C 591.465 681.365 581.263 683.178 571.695 686.691 C 567.162 688.355 562.943 692.787 560.205 697.013 C 554.382 706.002 547.207 710.591 536.212 709.043 C 523.601 707.269 510.755 706.846 498.294 704.4 C 481.327 701.067 464.403 691.488 449.192 683.559 C 445.8 683.89 374.404 694.751 369.554 695.57 C 372.052 698.523 374.302 702.867 373.5 706.945 C 372.306 713.021 369.915 718.931 367.503 724.683 C 364.957 730.751 365.001 731.843 370.554 735.528 C 371.235 735.979 371.908 736.441 372.583 736.901 C 375.279 738.735 377.459 738.999 380.207 736.32 C 384.084 732.541 388.55 729.336 392.929 726.109 C 397.692 722.602 403.13 721.486 408.309 724.621 C 414.237 728.211 417.752 733.421 416.204 740.955 C 415.112 746.263 414.765 751.753 413.318 756.949 C 412.144 761.164 414.515 762.76 417.37 763.747 C 420.656 764.884 424.127 768.697 427.727 763.986 C 430.467 760.403 433.201 756.781 436.294 753.512 C 441.491 748.017 447.593 743.608 455.504 746.988 C 461.966 749.749 465.191 755.495 465.367 762.578 C 465.463 766.485 465.074 770.405 464.917 774.319 C 464.759 778.246 464.234 781.833 469.878 783.119 C 477.537 784.863 479.124 784.886 481.905 779.599 C 483.725 776.14 485.04 772.32 487.352 769.239 C 489.854 765.903 492.744 762.01 496.358 760.518 C 505.826 756.609 514.225 761.814 516.634 771.131 C 518.04 776.57 519.486 782.028 520.355 787.565 C 520.838 790.637 522.152 791.687 524.978 791.735 C 526.497 791.761 528.011 792.193 529.529 792.199 C 533.033 792.214 535.44 791.544 536.456 787.122 C 537.845 781.078 539.978 774.981 543.003 769.584 C 548.452 759.859 560.704 758.915 567.355 767.369 C 571.2 772.256 573.255 778.654 575.604 784.573 C 577.514 789.382 580.554 790.454 585.325 789.58 C 590.13 788.701 591.762 786.1 592.301 781.423 C 593.054 774.898 594.188 768.303 596.186 762.065 C 598.192 755.802 607.267 752.411 613.648 754.06 C 621.443 756.076 624.239 762.797 628.094 768.488 C 633.451 776.394 633.28 776.293 642.05 774.173 C 645.788 773.269 646.77 771.366 646.323 767.904 C 645.702 763.09 645.209 758.256 644.784 753.42 C 644.153 746.258 648.319 739.209 654.607 736.603 C 661.448 733.769 668.807 735.55 673.773 741.065 C 676.281 743.849 679.407 746.151 681.558 749.166 C 685.347 754.476 689.046 752.709 693.009 749.756 C 694.103 748.941 695.353 748.208 696.138 747.147 C 696.77 746.292 697.293 744.863 697.026 743.925 C 695.963 740.195 694.143 736.64 693.412 732.865 C 692.509 728.19 691.071 723.008 692.219 718.665 C 695.245 707.227 708.667 703.446 718.266 710.501 C 721.84 713.128 725.898 715.125 729.346 717.894 C 733.845 721.503 736.172 717.875 738.85 715.516 C 741.675 713.028 742.627 710.47 740.391 706.548 C 736.557 699.82 731.883 693.362 731.776 684.976 C 731.676 677.093 740.315 668.548 747.96 670.343 C 754.847 671.96 761.526 674.603 768.138 677.195 C 773.913 679.46 774.613 674.062 777.184 671.648 C 779.384 669.582 779.652 667.119 777.395 664.495 C 773.692 660.191 770.211 655.692 766.715 651.215 Z  M 513.688 379.997 C 502.529 381.184 493.439 375.265 492.475 365.612 C 491.175 352.589 500.345 343.468 512.319 342.283 C 523.766 341.151 531.008 347.827 532.524 360.875 C 533.399 368.407 522.953 379.011 513.688 379.997 Z  M 766.314 408.807 C 765.348 406.311 766.04 404.944 767.876 401.848 C 770.305 397.752 772.738 393.659 775.076 389.511 C 776.558 386.881 779.506 383.661 778.88 381.584 C 777.884 378.279 774.751 375.332 771.875 373.045 C 770.968 372.323 767.924 374.052 765.971 374.914 C 762.395 376.491 758.844 378.146 755.389 379.969 C 745.754 385.055 739.747 382.326 734.272 377.221 C 730.238 373.459 729.86 366.353 733.097 359.133 C 734.771 355.401 736.131 351.526 737.856 347.819 C 739.122 345.099 739.019 342.373 736.328 341.322 C 732.807 339.947 730.07 334.264 725.057 338.905 C 721.55 342.153 717.734 345.077 713.975 348.042 C 708.637 352.253 701.107 353.232 696.425 350.444 C 689.106 346.084 686.711 340.615 688.447 332.251 C 689.274 328.266 689.9 324.23 690.95 320.304 C 692.105 315.991 689.406 314.263 686.267 313.117 C 683.374 312.059 680.41 309.018 677.279 313.487 C 674.544 317.39 670.973 320.713 667.763 324.283 C 659.647 333.31 647.798 331.52 642.272 323.487 C 637.44 316.465 639.719 308.839 639.461 301.506 C 639.35 298.374 639.822 295.678 636.235 295.431 C 632.437 295.168 628.056 290.512 624.756 297.062 C 621.708 303.117 618.308 309.197 613.976 314.355 C 608.958 320.328 596.723 319.773 592.427 313.37 C 589.724 309.344 588.398 304.098 587.524 299.21 C 585.77 289.384 585.853 289.14 575.917 288.552 C 574.953 288.496 574.007 288.159 572.358 287.801 C 570.493 293.209 568.606 298.41 566.911 303.672 C 565.012 309.563 561.625 314.181 555.496 315.832 C 548.605 317.688 542.234 316.415 538.352 309.875 C 535.617 305.266 532.91 300.347 531.683 295.21 C 529.947 287.932 525.34 291.322 521.365 291.21 C 516.524 291.075 516.399 294.471 515.996 297.675 C 515.364 302.717 515.474 307.92 514.254 312.804 C 511.308 324.597 496.706 328.791 489.523 321.598 C 485.939 318.008 482.699 313.985 479.828 309.799 C 475.66 303.723 474.964 303.461 468.094 306.276 C 464.611 307.704 463.713 309.646 464.008 313.368 C 464.504 319.616 465.489 326.29 463.894 332.14 C 460.704 343.832 444.886 347.508 435.396 336.607 C 431.982 332.687 428.021 329.241 424.476 325.742 C 421.341 327.678 418.705 328.993 416.483 330.813 C 415.403 331.699 414.326 333.695 414.585 334.899 C 415.44 338.86 416.86 342.705 418.15 346.565 C 420.881 354.74 419.116 362.206 413.883 366.624 C 408.617 371.069 399.659 372.374 392.673 366.677 C 389.781 364.32 386.237 362.777 383.107 360.687 C 378.164 357.385 375.714 361.998 373.247 364.331 C 371.841 365.661 371.684 369.479 372.445 371.662 C 373.818 375.602 376.298 379.158 378.319 382.872 C 381.472 388.661 381.216 394.522 377.113 399.458 C 372.49 405.017 366.38 407.908 358.889 405.428 C 355.167 404.195 351.443 402.888 347.886 401.254 C 340.607 397.909 338.093 398.536 334.873 405.795 C 334.213 407.283 334.829 409.99 335.847 411.443 C 338.967 415.894 343.028 419.723 345.89 424.313 C 352.282 434.56 346.034 447.37 334.049 448.014 C 327.529 448.365 320.913 446.53 314.313 446.091 C 312.85 445.994 310.352 447.306 309.925 448.524 C 308.868 451.551 304.367 454.319 307.795 457.936 C 311.506 461.848 316.036 464.974 319.861 468.792 C 322.726 471.651 324.493 474.145 325.222 476.696 C 329.685 476.023 388.527 466.865 391.919 466.534 C 396.669 459.323 401.594 452.214 406.843 445.371 C 419.981 428.243 436.171 414.255 454.126 402.455 C 461.123 397.856 469.077 394.557 476.913 391.469 C 479.334 390.514 483.396 391.319 485.691 392.843 C 496.83 400.235 508.281 398.145 519.889 394.848 C 524.623 393.504 529.226 391.597 534.026 390.612 C 540.859 389.21 545.242 384.428 548.542 379.318 C 554.555 370.006 562.581 367.905 573.072 368.128 C 589.258 368.473 605.001 370.923 620.529 374.973 C 638.948 379.777 656.622 386.692 672.538 397.205 C 682.242 403.614 692.235 411.477 701.159 418.903 C 706.876 417.901 757.286 410.581 766.314 408.807 Z  M 323.097 566.824 C 322.984 568.85 322.398 570.832 321.338 572.77 C 320.276 574.709 318.814 576.495 316.951 578.125 C 315.084 579.755 312.831 581.174 310.189 582.382 C 307.548 583.59 304.56 584.482 301.228 585.056 C 298.644 585.501 296.214 585.585 293.946 585.308 C 291.674 585.031 289.621 584.437 287.78 583.529 C 285.939 582.62 284.373 581.399 283.078 579.865 C 281.783 578.334 280.846 576.504 280.269 574.373 L 294.049 566.397 C 293.934 566.474 294.064 566.841 294.439 567.5 C 294.812 568.16 295.345 568.836 296.037 569.525 C 296.726 570.214 297.575 570.791 298.582 571.259 C 299.586 571.727 300.665 571.777 301.814 571.413 C 302.789 571.133 303.751 570.55 304.698 569.662 C 305.646 568.774 306.089 567.556 306.03 566.004 C 305.971 565.067 305.581 564.256 304.863 563.573 C 304.143 562.889 303.122 562.215 301.801 561.55 C 298.869 560.162 296.151 558.972 293.65 557.981 C 291.149 556.992 288.963 555.877 287.094 554.639 C 285.224 553.401 283.758 551.899 282.693 550.131 C 281.626 548.365 281.092 546.005 281.088 543.051 C 281.085 540.321 281.654 537.827 282.802 535.566 C 283.947 533.308 285.469 531.317 287.362 529.597 C 289.257 527.878 291.437 526.443 293.907 525.294 C 296.374 524.144 298.932 523.312 301.575 522.802 C 304.733 522.257 307.508 522.21 309.893 522.663 C 312.276 523.117 314.29 523.87 315.929 524.925 C 317.568 525.979 318.849 527.279 319.771 528.818 C 320.691 530.362 321.296 531.942 321.587 533.564 L 308.927 540.594 C 308.753 540.012 308.494 539.372 308.148 538.68 C 307.802 537.987 307.327 537.374 306.722 536.835 C 306.119 536.3 305.399 535.881 304.566 535.577 C 303.733 535.276 302.77 535.219 301.678 535.407 C 300.528 535.605 299.481 536.133 298.535 536.992 C 297.588 537.853 297.114 538.98 297.116 540.372 C 297.118 541.431 297.564 542.288 298.457 542.941 C 299.347 543.597 300.743 544.429 302.641 545.439 C 305.285 546.434 307.828 547.444 310.273 548.471 C 312.715 549.499 314.888 550.768 316.785 552.281 C 318.684 553.792 320.208 555.607 321.361 557.719 C 322.512 559.834 323.091 562.479 323.095 565.654 L 323.097 566.824 Z  M 370.17 510.979 L 370.189 525.019 L 355.627 527.529 L 355.692 575.669 L 341.214 578.164 L 341.149 530.024 L 326.585 532.534 L 326.566 518.494 L 370.17 510.979 Z  M 414.137 517.445 L 389.32 521.722 L 389.334 531.751 L 407.601 528.603 L 407.62 542.644 L 389.353 545.792 L 389.366 555.82 L 414.184 551.543 L 414.203 565.585 L 374.907 572.357 L 374.823 510.177 L 414.118 503.405 L 414.137 517.445 Z  M 459.119 509.692 L 434.302 513.969 L 434.316 523.999 L 452.583 520.85 L 452.602 534.891 L 434.335 538.04 L 434.348 548.068 L 459.166 543.79 L 459.185 557.832 L 419.889 564.604 L 419.805 502.425 L 459.1 495.652 L 459.119 509.692 Z  M 479.33 540.315 L 496.479 537.36 L 496.498 551.401 L 464.871 556.852 L 464.787 494.672 L 479.265 492.177 L 479.33 540.315 Z  M 550.682 528.269 C 553.15 528.011 555.206 527.043 556.84 525.368 C 558.475 523.694 559.723 521.807 560.581 519.708 L 573.086 524.325 C 572.571 525.416 571.84 526.826 570.894 528.547 C 569.949 530.272 568.615 532.034 566.893 533.836 C 565.171 535.636 562.977 537.311 560.307 538.857 C 557.636 540.404 554.348 541.514 550.442 542.187 L 550.356 542.202 C 545.989 542.954 542.326 542.918 539.366 542.09 C 536.403 541.263 533.99 539.883 532.119 537.947 C 530.249 536.012 528.882 533.63 528.016 530.797 C 527.149 527.965 526.628 524.947 526.452 521.745 L 526.435 508.874 C 526.489 505.801 527.015 502.685 528.017 499.533 C 529.017 496.378 530.508 493.46 532.486 490.778 C 534.465 488.096 536.946 485.787 539.933 483.852 C 542.917 481.916 546.394 480.607 550.357 479.924 L 550.443 479.91 C 553.946 479.305 556.964 479.258 559.494 479.77 C 562.022 480.283 564.193 481.134 566.004 482.326 C 567.816 483.519 569.283 484.966 570.406 486.667 C 571.53 488.368 572.408 490.112 573.042 491.898 L 560.556 500.821 C 560.211 499.877 559.734 498.928 559.13 497.973 C 558.527 497.02 557.792 496.197 556.929 495.51 C 556.067 494.823 555.088 494.322 553.997 494.009 C 552.904 493.696 551.754 493.672 550.548 493.934 C 547.618 494.662 545.278 496.195 543.531 498.531 C 541.779 500.867 540.907 503.567 540.911 506.631 L 540.928 518.748 C 540.932 521.814 541.826 524.236 543.61 526.018 C 545.393 527.802 547.752 528.553 550.682 528.269 Z  M 593.357 472.513 L 593.441 534.693 L 578.963 537.188 L 578.879 475.009 L 593.357 472.513 Z  M 642.13 464.107 L 642.149 478.147 L 627.587 480.657 L 627.653 528.797 L 613.174 531.292 L 613.109 483.152 L 598.546 485.662 L 598.526 471.622 L 642.13 464.107 Z  M 693.49 455.255 L 676.296 489.315 L 676.339 520.406 L 662.724 522.752 L 662.682 491.661 L 646.181 463.409 L 662.38 460.617 L 669.898 474.034 L 677.289 458.048 L 693.49 455.255 Z  M 312.997 650.743 L 298.956 653.163 L 292.588 672.673 L 274.093 675.86 L 295.109 602.346 L 316.8 598.607 L 338.007 664.844 L 319.511 668.032 L 312.997 650.743 Z  M 358.321 645.56 L 377.592 642.239 L 377.614 658.018 L 342.073 664.143 L 341.978 594.268 L 358.247 591.464 L 358.321 645.56 Z  M 400.059 638.367 L 419.33 635.046 L 419.352 650.825 L 383.811 656.95 L 383.716 587.075 L 399.986 584.271 L 400.059 638.367 Z  M 469.635 588.048 L 441.745 592.854 L 441.761 604.125 L 462.29 600.587 L 462.311 616.366 L 441.782 619.904 L 441.798 631.173 L 469.687 626.367 L 469.708 642.146 L 425.549 649.756 L 425.454 579.881 L 469.613 572.27 L 469.635 588.048 Z  M 528.491 562.123 L 509.169 600.398 L 509.217 635.337 L 493.917 637.973 L 493.87 603.035 L 475.326 571.286 L 493.531 568.148 L 501.979 583.226 L 510.285 565.261 L 528.491 562.123 Z  M 551.999 612.463 C 554.772 612.172 557.083 611.085 558.919 609.203 C 560.757 607.322 562.158 605.201 563.123 602.842 L 577.176 608.03 C 576.596 609.256 575.775 610.841 574.713 612.775 C 573.65 614.713 572.152 616.693 570.216 618.718 C 568.281 620.741 565.815 622.624 562.815 624.361 C 559.813 626.1 556.118 627.347 551.729 628.103 L 551.632 628.12 C 546.725 628.966 542.608 628.925 539.283 627.994 C 535.953 627.065 533.24 625.514 531.139 623.338 C 529.036 621.164 527.501 618.487 526.528 615.303 C 525.553 612.12 524.968 608.729 524.77 605.132 L 524.75 590.668 C 524.812 587.214 525.403 583.713 526.529 580.169 C 527.652 576.625 529.328 573.345 531.551 570.332 C 533.775 567.318 536.563 564.723 539.919 562.548 C 543.273 560.373 547.18 558.902 551.633 558.134 L 551.73 558.118 C 555.667 557.439 559.058 557.386 561.901 557.961 C 564.742 558.538 567.182 559.494 569.217 560.833 C 571.254 562.174 572.902 563.8 574.164 565.712 C 575.427 567.624 576.414 569.583 577.126 571.589 L 563.094 581.618 C 562.707 580.556 562.171 579.49 561.493 578.417 C 560.814 577.346 559.989 576.422 559.019 575.65 C 558.05 574.877 556.949 574.314 555.724 573.962 C 554.496 573.611 553.204 573.583 551.848 573.878 C 548.556 574.696 545.926 576.419 543.962 579.043 C 541.994 581.669 541.014 584.702 541.019 588.146 L 541.037 601.763 C 541.042 605.209 542.047 607.93 544.052 609.933 C 546.056 611.938 548.706 612.782 551.999 612.463 Z  M 617.653 598.236 L 603.611 600.656 L 597.243 620.166 L 578.748 623.353 L 599.764 549.839 L 621.455 546.1 L 642.662 612.337 L 624.166 615.525 L 617.653 598.236 Z  M 683.238 535.452 L 683.26 551.23 L 666.896 554.05 L 666.969 608.148 L 650.699 610.952 L 650.626 556.854 L 634.259 559.675 L 634.238 543.898 L 683.238 535.452 Z  M 786.106 519.131 L 805.907 515.683 L 804.945 551.308 L 785.144 554.756 L 784.067 594.622 L 747.105 601.059 L 748.182 561.193 L 694.28 570.58 L 695.242 534.955 L 695.242 534.955 L 751.356 443.716 L 751.367 443.291 L 788.329 436.855 L 786.106 519.131 Z " fill-rule="evenodd" fill="rgb(221,99,5)"/></svg>