<?xml version="1.0" encoding="UTF-8" standalone="no"?><!-- Generator: Gravit.io --><svg xmlns="http://www.w3.org/2000/svg" xmlns:xlink="http://www.w3.org/1999/xlink" style="isolation:isolate" viewBox="697 122 343.126 308.846" width="343.126pt" height="308.846pt"><path d=" M 791.605 318.81 C 791.491 321.803 791.067 324.694 790.337 327.483 C 789.605 330.272 788.48 332.793 786.96 335.048 C 785.441 337.303 783.495 339.206 781.12 340.758 C 778.746 342.31 775.876 343.342 772.512 343.855 L 771.292 344.041 L 762.976 345.309 L 764.676 300.78 L 772.993 299.513 C 776.208 299.022 779.015 299.16 781.411 299.925 C 783.807 300.691 785.781 301.937 787.332 303.664 C 788.883 305.391 790.013 307.56 790.722 310.169 C 791.43 312.778 791.725 315.659 791.605 318.81 Z  M 747.256 336.131 L 739.217 337.357 L 735.109 349.645 L 724.519 351.259 L 738.306 304.888 L 750.726 302.996 L 761.114 345.681 L 750.523 347.295 L 747.256 336.131 Z  M 716.277 329.517 C 717.94 329.264 719.331 329.419 720.448 329.982 C 721.566 330.546 722.464 331.331 723.142 332.338 C 723.821 333.345 724.3 334.482 724.583 335.748 C 724.866 337.014 724.985 338.206 724.943 339.323 C 724.88 340.96 724.589 342.55 724.072 344.096 C 723.553 345.644 722.819 347.054 721.87 348.33 C 720.921 349.605 719.749 350.676 718.357 351.543 C 716.964 352.409 715.362 352.981 713.551 353.257 L 713.274 353.299 L 700.077 355.311 L 701.778 310.783 L 711.647 309.278 L 711.092 309.363 L 711.37 309.32 C 713.403 309.01 715.166 309.02 716.661 309.347 C 718.155 309.675 719.364 310.244 720.289 311.055 C 721.213 311.866 721.892 312.873 722.323 314.077 C 722.754 315.281 722.943 316.621 722.887 318.097 C 722.827 319.653 722.579 321.099 722.142 322.435 C 721.705 323.772 721.165 324.945 720.52 325.954 C 719.875 326.966 719.172 327.787 718.413 328.418 C 717.654 329.05 716.942 329.416 716.277 329.517 Z  M 1039.742 269.028 L 1023.773 271.462 L 1023.498 278.644 L 1035.253 276.853 L 1034.869 286.907 L 1023.115 288.699 L 1022.841 295.881 L 1038.809 293.447 L 1038.426 303.501 L 1013.142 307.355 L 1014.841 262.827 L 1040.126 258.973 L 1039.742 269.028 Z  M 1010.488 285.803 C 1010.374 288.796 1009.952 291.686 1009.221 294.475 C 1008.489 297.264 1007.364 299.786 1005.844 302.041 C 1004.325 304.296 1002.379 306.199 1000.004 307.751 C 997.629 309.303 994.76 310.335 991.397 310.848 L 990.177 311.033 L 981.859 312.301 L 983.559 267.773 L 991.877 266.505 C 995.093 266.015 997.898 266.153 1000.295 266.918 C 1002.691 267.683 1004.665 268.93 1006.216 270.657 C 1007.767 272.383 1008.897 274.553 1009.606 277.161 C 1010.314 279.771 1010.609 282.652 1010.488 285.803 Z  M 978.879 295.084 C 978.778 297.717 978.362 300.181 977.633 302.473 C 976.901 304.767 975.887 306.796 974.588 308.56 C 973.29 310.326 971.7 311.778 969.819 312.917 C 967.938 314.057 965.779 314.791 963.34 315.124 L 963.286 315.133 C 960.585 315.583 958.311 315.474 956.462 314.804 C 954.614 314.133 953.129 313.061 952.01 311.585 C 950.89 310.111 950.103 308.335 949.65 306.263 C 949.196 304.189 949.015 301.976 949.104 299.622 L 950.128 272.809 L 959.72 271.347 L 958.726 297.382 C 958.685 298.459 958.748 299.461 958.915 300.388 C 959.08 301.315 959.373 302.103 959.789 302.754 C 960.205 303.404 960.738 303.888 961.387 304.205 C 962.037 304.523 962.823 304.611 963.747 304.47 C 964.671 304.33 965.474 303.999 966.156 303.479 C 966.837 302.958 967.404 302.307 967.857 301.524 C 968.309 300.741 968.655 299.855 968.895 298.866 C 969.134 297.878 969.276 296.845 969.316 295.768 L 970.31 269.733 L 979.903 268.271 L 978.879 295.084 Z  M 947.076 273.334 L 946.692 283.389 L 937.322 284.817 L 936.005 319.29 L 926.69 320.711 L 928.006 286.237 L 918.636 287.665 L 919.02 277.61 L 947.076 273.334 Z  M 903.384 279.994 L 903 290.048 L 893.63 291.476 L 892.313 325.95 L 882.998 327.37 L 884.315 292.897 L 874.944 294.325 L 875.328 284.27 L 903.384 279.994 Z  M 875.381 284.243 L 875.692 294.153 L 864.753 296.133 L 863.437 330.607 L 854.121 332.026 L 855.437 297.553 L 846.066 298.982 L 846.45 288.927 L 875.381 284.243 Z  M 834.454 323.196 L 826.414 324.422 L 822.307 336.709 L 811.716 338.324 L 825.504 291.953 L 837.924 290.06 L 848.312 332.746 L 837.721 334.36 L 834.454 323.196 Z  M 915.693 278.118 L 913.993 322.646 L 904.678 324.065 L 906.378 279.537 L 915.693 278.118 Z  M 888.519 396.518 C 881.997 397.351 874.64 392.195 874.013 384.114 C 873.414 376.393 878.958 368.332 885.643 367.619 C 892.038 366.936 899.838 372.425 899.838 380.467 C 900.618 388.442 895.5 395.625 888.519 396.518 Z  M 998.465 334.652 C 995.925 331.156 995.797 326.609 997.15 323.527 C 995.67 323.633 954.102 330.565 950.678 331.13 C 941.572 341.274 931.28 349.982 919.566 356.732 C 918.068 357.595 916.342 358.003 913.916 358.929 C 911.662 358.242 908.603 357.953 906.219 356.438 C 902.184 353.875 898.17 352.396 893.547 353.589 C 887.218 355.223 880.742 356.46 874.669 358.857 C 871.792 359.992 869.113 363.016 867.375 365.9 C 863.679 372.033 859.124 375.164 852.145 374.108 C 844.14 372.897 835.985 372.609 828.075 370.939 C 817.304 368.666 806.562 362.13 796.906 356.719 C 794.753 356.946 749.432 364.356 746.353 364.915 C 747.939 366.93 749.367 369.894 748.858 372.676 C 748.1 376.822 746.583 380.854 745.051 384.779 C 743.435 388.919 743.463 389.664 746.988 392.179 C 747.42 392.486 747.848 392.801 748.276 393.115 C 749.987 394.367 751.371 394.547 753.116 392.719 C 755.577 390.141 758.411 387.953 761.192 385.752 C 764.214 383.359 767.666 382.598 770.953 384.737 C 774.717 387.186 776.949 390.741 775.966 395.882 C 775.273 399.503 775.052 403.249 774.134 406.794 C 773.389 409.67 774.894 410.759 776.706 411.432 C 778.792 412.209 780.995 414.81 783.281 411.596 C 785.019 409.151 786.756 406.679 788.718 404.449 C 792.017 400.7 795.891 397.692 800.912 399.998 C 805.014 401.882 807.062 405.802 807.174 410.634 C 807.235 413.301 806.988 415.975 806.888 418.646 C 806.788 421.326 806.454 423.772 810.037 424.65 C 814.899 425.84 815.906 425.856 817.672 422.249 C 818.827 419.888 819.662 417.282 821.13 415.179 C 822.718 412.904 824.552 410.248 826.846 409.229 C 832.856 406.562 838.188 410.114 839.717 416.471 C 840.61 420.182 841.527 423.906 842.079 427.684 C 842.386 429.78 843.22 430.496 845.014 430.529 C 845.978 430.547 846.939 430.841 847.903 430.846 C 850.127 430.856 851.655 430.399 852.3 427.382 C 853.182 423.258 854.536 419.098 856.456 415.414 C 859.915 408.78 867.692 408.135 871.914 413.904 C 874.355 417.238 875.659 421.603 877.151 425.642 C 878.362 428.924 880.292 429.654 883.321 429.059 C 886.371 428.459 887.407 426.684 887.749 423.493 C 888.227 419.041 888.948 414.541 890.216 410.285 C 891.489 406.011 897.25 403.698 901.3 404.823 C 906.248 406.198 908.023 410.784 910.471 414.667 C 913.871 420.062 913.763 419.993 919.33 418.546 C 921.702 417.93 922.325 416.631 922.042 414.269 C 921.648 410.984 921.335 407.686 921.064 404.387 C 920.664 399.5 923.309 394.69 927.301 392.912 C 931.643 390.978 936.314 392.193 939.467 395.956 C 941.058 397.856 943.043 399.426 944.408 401.483 C 946.813 405.106 949.161 403.902 951.677 401.886 C 952.372 401.33 953.165 400.83 953.663 400.106 C 954.064 399.523 954.396 398.547 954.227 397.908 C 953.552 395.363 952.397 392.938 951.933 390.361 C 951.359 387.172 950.447 383.636 951.176 380.673 C 953.096 372.869 961.617 370.288 967.709 375.102 C 969.979 376.895 972.554 378.258 974.744 380.146 C 977.599 382.609 979.076 380.134 980.776 378.524 C 982.569 376.827 983.174 375.081 981.755 372.406 C 979.321 367.815 976.354 363.408 976.286 357.687 C 976.222 352.308 981.706 346.477 986.559 347.702 C 990.931 348.806 995.17 350.608 999.368 352.377 C 1003.034 353.922 1003.478 350.24 1005.11 348.592 C 1006.506 347.183 1006.677 345.502 1005.244 343.712 C 1002.894 340.775 1000.684 337.706 998.465 334.652 Z  M 834.833 179.594 C 828.348 180.336 823.064 176.638 822.504 170.608 C 821.748 162.472 827.078 156.774 834.038 156.034 C 840.69 155.327 844.899 159.498 845.78 167.648 C 846.289 172.354 840.218 178.978 834.833 179.594 Z  M 981.654 197.591 C 981.093 196.032 981.495 195.178 982.562 193.244 C 983.973 190.685 985.388 188.128 986.746 185.537 C 987.608 183.894 989.321 181.883 988.957 180.585 C 988.378 178.52 986.558 176.68 984.886 175.251 C 984.358 174.8 982.589 175.88 981.454 176.418 C 979.376 177.404 977.313 178.437 975.305 179.577 C 969.705 182.753 966.214 181.049 963.032 177.86 C 960.687 175.509 960.468 171.071 962.349 166.56 C 963.322 164.229 964.112 161.808 965.115 159.492 C 965.85 157.793 965.79 156.09 964.226 155.434 C 962.18 154.575 960.589 151.025 957.676 153.924 C 955.638 155.953 953.421 157.779 951.236 159.632 C 948.134 162.263 943.757 162.874 941.036 161.132 C 936.782 158.408 935.391 154.992 936.399 149.768 C 936.88 147.278 937.244 144.756 937.854 142.304 C 938.525 139.609 936.956 138.53 935.132 137.814 C 933.451 137.154 931.728 135.253 929.909 138.045 C 928.319 140.484 926.244 142.559 924.378 144.79 C 919.661 150.429 912.775 149.31 909.563 144.292 C 906.755 139.905 908.08 135.142 907.93 130.561 C 907.866 128.604 908.14 126.92 906.055 126.766 C 903.848 126.602 901.301 123.693 899.384 127.785 C 897.612 131.568 895.636 135.365 893.118 138.588 C 890.202 142.32 883.091 141.972 880.594 137.972 C 879.024 135.457 878.253 132.181 877.745 129.126 C 876.726 122.989 876.774 122.836 870.999 122.469 C 870.439 122.434 869.889 122.223 868.931 122 C 867.847 125.378 866.75 128.627 865.765 131.914 C 864.662 135.594 862.693 138.479 859.13 139.51 C 855.126 140.669 851.423 139.875 849.167 135.789 C 847.577 132.91 846.004 129.837 845.292 126.628 C 844.282 122.082 841.604 124.199 839.294 124.13 C 836.481 124.045 836.408 126.167 836.174 128.168 C 835.807 131.317 835.871 134.568 835.162 137.618 C 833.45 144.985 824.963 147.606 820.789 143.112 C 818.705 140.87 816.822 138.356 815.154 135.741 C 812.732 131.946 812.327 131.783 808.334 133.541 C 806.31 134.433 805.788 135.646 805.96 137.971 C 806.248 141.874 806.82 146.044 805.893 149.698 C 804.039 157.002 794.847 159.298 789.331 152.488 C 787.347 150.039 785.045 147.887 782.984 145.701 C 781.162 146.91 779.63 147.732 778.339 148.869 C 777.711 149.422 777.085 150.669 777.237 151.422 C 777.733 153.896 778.558 156.298 779.307 158.709 C 780.895 163.815 779.869 168.48 776.828 171.24 C 773.768 174.016 768.561 174.832 764.501 171.273 C 762.82 169.8 760.76 168.837 758.942 167.531 C 756.069 165.468 754.645 168.349 753.212 169.807 C 752.395 170.638 752.303 173.023 752.745 174.387 C 753.543 176.848 754.984 179.069 756.159 181.389 C 757.992 185.006 757.842 188.667 755.458 191.75 C 752.771 195.223 749.221 197.029 744.867 195.48 C 742.703 194.71 740.539 193.893 738.472 192.872 C 734.242 190.783 732.781 191.175 730.909 195.71 C 730.525 196.639 730.883 198.33 731.475 199.238 C 733.288 202.018 735.648 204.41 737.312 207.277 C 741.026 213.679 737.396 221.681 730.43 222.084 C 726.641 222.303 722.795 221.156 718.96 220.882 C 718.109 220.821 716.658 221.641 716.41 222.402 C 715.795 224.293 713.18 226.022 715.172 228.281 C 717.329 230.725 719.961 232.678 722.184 235.063 C 723.849 236.849 724.877 238.407 725.3 240.001 C 727.894 239.58 762.091 233.859 764.063 233.652 C 766.823 229.148 769.686 224.707 772.737 220.432 C 780.372 209.733 789.781 200.995 800.217 193.623 C 804.283 190.75 808.906 188.689 813.46 186.76 C 814.867 186.164 817.227 186.666 818.561 187.618 C 825.035 192.236 831.69 190.931 838.436 188.872 C 841.188 188.032 843.864 186.84 846.653 186.225 C 850.624 185.349 853.171 182.362 855.089 179.17 C 858.584 173.353 863.248 172.04 869.346 172.179 C 878.752 172.394 887.901 173.925 896.927 176.455 C 907.631 179.457 917.903 183.776 927.153 190.343 C 932.793 194.347 938.601 199.259 943.787 203.898 C 947.109 203.272 976.407 198.7 981.654 197.591 Z  M 1036.833 227.635 C 1036.776 230.943 1036.345 234.145 1035.543 237.241 C 1034.739 240.338 1033.456 243.148 1031.692 245.671 C 1029.928 248.194 1027.642 250.338 1024.832 252.104 C 1022.022 253.869 1018.604 255.072 1014.579 255.71 L 1013.119 255.942 L 1003.166 257.521 L 1004.01 208.3 L 1013.963 206.721 C 1017.812 206.11 1021.185 206.202 1024.083 206.996 C 1026.982 207.789 1029.385 209.123 1031.294 210.997 C 1033.203 212.871 1034.618 215.243 1035.54 218.109 C 1036.461 220.976 1036.892 224.152 1036.833 227.635 Z  M 1000.118 238.476 C 1000.078 240.858 999.671 243.33 998.899 245.893 C 998.127 248.458 996.84 250.806 995.039 252.939 C 993.191 255.169 991.099 256.973 988.758 258.356 C 986.419 259.74 983.944 260.638 981.333 261.052 L 981.268 261.063 C 978.702 261.47 976.266 261.351 973.961 260.704 C 971.656 260.059 969.591 258.935 967.765 257.333 C 966.072 255.755 964.88 253.855 964.19 251.633 C 963.5 249.411 963.155 246.981 963.157 244.342 L 963.355 232.83 C 963.391 230.713 963.848 228.496 964.726 226.179 C 965.603 223.863 966.831 221.745 968.409 219.822 C 970.299 217.632 972.403 215.846 974.721 214.466 C 977.038 213.087 979.502 212.19 982.113 211.775 L 982.179 211.765 C 984.789 211.351 987.247 211.467 989.551 212.112 C 991.857 212.759 993.9 213.886 995.681 215.495 C 997.245 216.918 998.407 218.624 999.167 220.615 C 999.927 222.606 1000.309 224.722 1000.316 226.965 L 1000.118 238.476 Z  M 959.641 244.899 C 959.6 247.281 959.194 249.753 958.422 252.317 C 957.651 254.881 956.363 257.229 954.562 259.362 C 952.714 261.592 950.622 263.397 948.282 264.78 C 945.942 266.164 943.466 267.061 940.857 267.475 L 940.79 267.486 C 938.225 267.893 935.789 267.774 933.484 267.128 C 931.179 266.482 929.114 265.358 927.289 263.757 C 925.595 262.178 924.403 260.279 923.713 258.057 C 923.023 255.835 922.679 253.404 922.68 250.765 L 922.878 239.254 C 922.914 237.137 923.371 234.92 924.249 232.603 C 925.127 230.287 926.354 228.168 927.932 226.246 C 929.822 224.055 931.926 222.27 934.244 220.89 C 936.561 219.51 939.025 218.613 941.636 218.199 L 941.702 218.189 C 944.312 217.775 946.77 217.89 949.075 218.536 C 951.38 219.182 953.423 220.31 955.204 221.918 C 956.769 223.342 957.93 225.048 958.691 227.039 C 959.45 229.029 959.833 231.146 959.839 233.388 L 959.641 244.899 Z  M 918.279 221.905 L 917.435 271.126 L 905.624 273.001 L 905.918 255.8 L 899.585 273.959 L 892.418 275.097 L 886.551 258.346 L 886.247 276.076 L 874.435 277.95 L 875.28 228.729 L 886.626 226.929 L 896.355 253.887 L 907.131 223.675 L 918.279 221.905 Z  M 850.638 257.183 C 850.581 260.491 850.151 263.693 849.348 266.79 C 848.545 269.886 847.262 272.696 845.498 275.218 C 843.734 277.742 841.447 279.886 838.637 281.652 C 835.828 283.417 832.41 284.62 828.384 285.258 L 826.925 285.49 L 816.971 287.069 L 817.815 237.848 L 827.769 236.269 C 831.618 235.658 834.991 235.749 837.889 236.543 C 840.787 237.337 843.19 238.671 845.1 240.545 C 847.009 242.419 848.424 244.791 849.346 247.656 C 850.266 250.524 850.697 253.7 850.638 257.183 Z  M 813.925 268.024 C 813.884 270.405 813.477 272.878 812.705 275.442 C 811.933 278.005 810.646 280.354 808.845 282.487 C 806.998 284.716 804.905 286.521 802.564 287.904 C 800.224 289.288 797.75 290.186 795.14 290.6 L 795.074 290.611 C 792.508 291.018 790.072 290.899 787.767 290.253 C 785.462 289.607 783.397 288.483 781.572 286.881 C 779.878 285.303 778.686 283.403 777.996 281.181 C 777.306 278.959 776.961 276.529 776.963 273.89 L 777.16 262.378 C 777.197 260.261 777.653 258.044 778.532 255.727 C 779.409 253.411 780.637 251.293 782.215 249.37 C 784.105 247.179 786.209 245.394 788.527 244.014 C 790.844 242.635 793.308 241.737 795.919 241.323 L 795.985 241.313 C 798.595 240.898 801.053 241.014 803.358 241.66 C 805.663 242.306 807.706 243.434 809.488 245.042 C 811.051 246.466 812.213 248.172 812.973 250.163 C 813.733 252.154 814.116 254.27 814.122 256.513 L 813.925 268.024 Z  M 773.447 274.447 C 773.407 276.829 773 279.301 772.228 281.865 C 771.456 284.429 770.169 286.777 768.368 288.91 C 766.52 291.14 764.428 292.944 762.087 294.327 C 759.748 295.711 757.273 296.609 754.662 297.023 L 754.597 297.034 C 752.031 297.441 749.595 297.322 747.29 296.676 C 744.985 296.03 742.92 294.906 741.094 293.304 C 739.401 291.726 738.209 289.827 737.519 287.604 C 736.829 285.383 736.484 282.952 736.486 280.313 L 736.684 268.802 C 736.72 266.684 737.177 264.468 738.055 262.15 C 738.932 259.835 740.16 257.716 741.738 255.793 C 743.628 253.603 745.732 251.817 748.05 250.437 C 750.367 249.058 752.831 248.161 755.442 247.746 L 755.508 247.736 C 758.118 247.322 760.576 247.438 762.88 248.084 C 765.186 248.73 767.229 249.857 769.01 251.465 C 770.574 252.889 771.736 254.596 772.496 256.586 C 773.256 258.577 773.638 260.694 773.645 262.936 L 773.447 274.447 Z  M 732.458 291.376 C 731.597 292.7 730.571 294.018 729.379 295.329 C 728.187 296.64 726.865 297.829 725.413 298.894 C 723.961 299.96 722.368 300.884 720.635 301.664 C 718.9 302.446 717.081 302.987 715.18 303.289 L 715.114 303.299 C 712.15 303.77 709.548 303.699 707.309 303.086 C 705.069 302.474 703.201 301.43 701.705 299.951 C 700.208 298.474 699.059 296.61 698.26 294.362 C 697.46 292.114 697.039 289.586 697 286.777 L 697.175 276.588 C 697.22 273.942 697.662 271.365 698.499 268.857 C 699.336 266.349 700.543 264.079 702.123 262.047 C 703.702 260.015 705.65 258.288 707.969 256.864 C 710.287 255.441 712.95 254.49 715.96 254.013 L 716.026 254.002 C 719.031 253.657 721.466 253.788 723.332 254.393 C 725.195 254.999 726.683 255.808 727.79 256.819 C 728.898 257.831 729.728 258.887 730.283 259.986 C 730.838 261.087 731.331 261.932 731.762 262.523 L 722.502 269.996 C 722.288 269.547 722.043 269.036 721.767 268.463 C 721.489 267.892 721.101 267.382 720.602 266.933 C 720.102 266.484 719.48 266.133 718.734 265.877 C 717.987 265.622 717.04 265.585 715.89 265.768 C 713.677 266.119 711.906 267.136 710.576 268.821 C 709.246 270.506 708.56 272.561 708.518 274.986 L 708.354 284.579 C 708.333 285.77 708.513 286.852 708.894 287.825 C 709.274 288.798 709.801 289.595 710.474 290.213 C 711.147 290.833 711.945 291.289 712.866 291.582 C 713.787 291.876 714.801 291.936 715.907 291.76 C 717.454 291.558 718.708 291.096 719.67 290.37 C 720.631 289.647 721.362 288.805 721.864 287.845 L 721.907 285.397 L 716.664 286.229 L 716.827 276.703 L 732.753 274.176 L 732.458 291.376 Z " fill-rule="evenodd" fill="rgb(38,34,34)"/></svg>