<svg width="221" xmlns="http://www.w3.org/2000/svg" height="185" fill="none"><g data-testid="main-logo"><g class="fills"><rect rx="0" ry="0" width="221" height="185" class="frame-background"/></g><g data-testid="main-logo" style="fill: rgb(0, 0, 0);" class="frame-children"><path d="M25.822 97.152c-.059 1.064-.368 2.106-.926 3.124-.56 1.019-1.33 1.957-2.312 2.814-.984.856-2.171 1.602-3.563 2.237-1.392.634-2.966 1.103-4.722 1.404-1.362.234-2.642.278-3.837.133-1.197-.146-2.28-.458-3.249-.935a7.59 7.59 0 0 1-2.478-1.925c-.683-.805-1.177-1.766-1.48-2.885l7.261-4.191c-.061.04.008.233.205.58.197.346.478.701.842 1.063.363.362.811.665 1.341.911.53.246 1.098.273 1.704.081.513-.147 1.021-.453 1.519-.92.5-.466.733-1.106.702-1.922-.031-.492-.236-.918-.615-1.277-.379-.359-.917-.714-1.613-1.063a73.22 73.22 0 0 0-4.296-1.875c-1.317-.52-2.469-1.106-3.454-1.756-.985-.65-1.758-1.44-2.319-2.369-.563-.927-.844-2.168-.846-3.719-.002-1.435.299-2.745.903-3.933a10.839 10.839 0 0 1 2.403-3.136 13.715 13.715 0 0 1 3.449-2.261 17.333 17.333 0 0 1 4.041-1.309c1.664-.287 3.126-.311 4.383-.073 1.256.238 2.317.634 3.18 1.188.864.554 1.539 1.237 2.025 2.046.485.81.804 1.641.957 2.493l-6.671 3.694a6.27 6.27 0 0 0-.411-1.006 3.202 3.202 0 0 0-.751-.969 3.484 3.484 0 0 0-1.136-.661c-.439-.159-.947-.189-1.522-.09-.606.104-1.158.382-1.656.833-.499.453-.749 1.045-.748 1.776.001.556.236 1.007.707 1.35.469.345 1.204.782 2.204 1.312a116.49 116.49 0 0 1 4.022 1.593c1.287.54 2.432 1.207 3.432 2.002a9.36 9.36 0 0 1 2.411 2.857c.606 1.111.911 2.501.913 4.169l.001.615Zm24.805-29.341.01 7.377-7.673 1.318.035 25.293-7.63 1.311-.034-25.293-7.675 1.319-.01-7.377 22.977-3.948Zm23.169 3.397-13.077 2.247.007 5.27 9.626-1.655.01 7.378-9.626 1.654.007 5.269 13.078-2.248.01 7.378-20.707 3.558-.045-32.669 20.707-3.559.01 7.377Zm23.703-4.074-13.077 2.248.007 5.269 9.626-1.654.01 7.378-9.626 1.654.007 5.269 13.078-2.248.01 7.378-20.707 3.558-.045-32.67 20.707-3.558.01 7.376Zm10.65 16.09 9.037-1.552.009 7.377-16.665 2.864-.044-32.67 7.629-1.311.034 25.292Zm37.599-6.329c1.3-.136 2.384-.644 3.244-1.524a9.205 9.205 0 0 0 1.972-2.974l6.589 2.426a41.648 41.648 0 0 1-1.155 2.218c-.497.906-1.2 1.832-2.108 2.779-.907.946-2.064 1.826-3.47 2.638-1.408.813-3.141 1.396-5.199 1.75l-.045.008c-2.301.395-4.232.376-5.791-.059-1.561-.435-2.833-1.16-3.819-2.177-.986-1.017-1.706-2.268-2.162-3.757a19.88 19.88 0 0 1-.824-4.755l-.009-6.763c.028-1.615.305-3.252.833-4.908a15.673 15.673 0 0 1 2.355-4.6c1.043-1.409 2.351-2.622 3.924-3.639s3.405-1.705 5.493-2.064l.046-.007c1.845-.318 3.436-.342 4.769-.074 1.332.27 2.476.717 3.43 1.343a7.988 7.988 0 0 1 2.32 2.281c.592.894 1.055 1.81 1.389 2.748l-6.579 4.689a7.829 7.829 0 0 0-.752-1.497 5.22 5.22 0 0 0-1.159-1.294 4.407 4.407 0 0 0-1.546-.788 3.674 3.674 0 0 0-1.817-.04c-1.544.383-2.777 1.188-3.698 2.415-.923 1.228-1.382 2.646-1.38 4.256l.009 6.367c.002 1.611.473 2.883 1.413 3.819.94.938 2.183 1.332 3.727 1.183Zm22.487-29.294.045 32.669-7.63 1.311-.044-32.669 7.629-1.311Zm25.701-4.417.01 7.376-7.673 1.319.034 25.293-7.629 1.312-.034-25.294-7.675 1.319-.01-7.376 22.977-3.949ZM221 38.533l-9.06 17.895.022 16.336-7.174 1.232-.022-16.335-8.695-14.844 8.536-1.467 3.961 7.05 3.895-8.4L221 38.533ZM20.501 141.244l-7.4 1.271-3.355 10.251L0 154.44l11.074-38.624 11.431-1.965 11.174 34.802-9.746 1.674-3.432-9.083Zm23.883-2.723 10.155-1.745.011 8.29-18.728 3.218-.05-36.713 8.573-1.473.039 28.423Zm21.994-3.78 10.154-1.745.012 8.291-18.728 3.218-.05-36.713 8.573-1.473.039 28.422Zm36.662-26.438-14.696 2.526.008 5.921 10.818-1.859.011 8.291-10.818 1.859.008 5.921 14.697-2.526.011 8.291-23.27 3.998-.05-36.713 23.27-3.998.011 8.289Zm31.014-13.621-10.181 20.11.025 18.357-8.062 1.385-.025-18.357-9.772-16.681 9.593-1.648 4.452 7.922 4.376-9.439 9.594-1.649Zm12.387 26.449c1.462-.153 2.679-.724 3.647-1.713a10.35 10.35 0 0 0 2.215-3.342l7.406 2.726a48.676 48.676 0 0 1-1.299 2.493c-.559 1.018-1.349 2.059-2.369 3.123-1.019 1.063-2.319 2.052-3.9 2.964-1.582.914-3.529 1.569-5.842 1.967l-.051.008c-2.585.445-4.755.423-6.507-.066-1.755-.488-3.184-1.303-4.292-2.446-1.107-1.142-1.917-2.549-2.429-4.221-.514-1.673-.822-3.455-.927-5.345l-.01-7.599c.032-1.815.344-3.654.937-5.516a17.593 17.593 0 0 1 2.647-5.169c1.172-1.583 2.641-2.947 4.409-4.089 1.768-1.144 3.826-1.916 6.173-2.32l.051-.008c2.074-.357 3.862-.385 5.36-.083 1.496.304 2.782.806 3.855 1.509 1.073.705 1.942 1.559 2.607 2.564a14.204 14.204 0 0 1 1.56 3.088l-7.394 5.269a8.765 8.765 0 0 0-.844-1.682 5.83 5.83 0 0 0-1.303-1.454 4.956 4.956 0 0 0-1.737-.886 4.124 4.124 0 0 0-2.042-.044c-1.735.429-3.12 1.334-4.155 2.713-1.037 1.38-1.554 2.974-1.551 4.783l.009 7.154c.003 1.811.532 3.241 1.589 4.293 1.056 1.053 2.453 1.497 4.187 1.329Zm34.597-7.475-7.4 1.272-3.355 10.25-9.746 1.675 11.074-38.625 11.431-1.964 11.174 34.801-9.746 1.675-3.432-9.084Zm34.56-32.987.011 8.29-8.623 1.482.039 28.423-8.573 1.473-.039-28.423-8.625 1.482-.011-8.29 25.821-4.437ZM90.391 29.886c-3.628.385-6.583-1.534-6.896-4.663-.423-4.222 2.558-7.178 6.451-7.562 3.721-.367 6.076 1.797 6.569 6.026.284 2.442-3.112 5.879-6.124 6.199Zm82.13 9.339c-.314-.809-.089-1.252.508-2.256.79-1.328 1.581-2.655 2.341-3.999.482-.853 1.44-1.896 1.236-2.57-.323-1.071-1.342-2.026-2.277-2.768-.295-.234-1.284.327-1.919.606a54.426 54.426 0 0 0-3.441 1.639c-3.132 1.648-5.085.764-6.865-.891-1.311-1.22-1.434-3.523-.382-5.863.544-1.21.987-2.466 1.547-3.668.412-.882.378-1.765-.497-2.106-1.144-.446-2.034-2.288-3.664-.783-1.14 1.052-2.38 2-3.603 2.962-1.735 1.364-4.183 1.682-5.705.778-2.38-1.413-3.158-3.186-2.594-5.897.269-1.292.473-2.6.814-3.873.375-1.398-.502-1.958-1.523-2.33-.94-.342-1.904-1.328-2.921.12-.89 1.266-2.051 2.343-3.094 3.5-2.639 2.926-6.491 2.346-8.288-.258-1.571-2.276-.829-4.748-.914-7.125-.035-1.016.118-1.889-1.048-1.97-1.235-.085-2.659-1.594-3.732.529-.991 1.963-2.096 3.933-3.505 5.606-1.631 1.936-5.609 1.756-7.006-.319-.878-1.306-1.309-3.006-1.593-4.591-.571-3.185-.544-3.264-3.774-3.454-.313-.019-.621-.128-1.157-.244-.606 1.753-1.22 3.439-1.771 5.145-.617 1.909-1.719 3.406-3.711 3.942-2.24.601-4.312.188-5.573-1.931-.89-1.494-1.77-3.089-2.169-4.754-.564-2.359-2.062-1.26-3.354-1.297-1.574-.044-1.615 1.057-1.746 2.096-.205 1.634-.169 3.321-.566 4.904-.958 3.823-5.705 5.182-8.04 2.85a27.125 27.125 0 0 1-3.152-3.824c-1.355-1.97-1.581-2.055-3.815-1.142-1.132.463-1.424 1.092-1.328 2.299.161 2.025.481 4.189-.037 6.085-1.037 3.79-6.18 4.981-9.265 1.448-1.11-1.271-2.398-2.388-3.55-3.522-1.02.627-1.877 1.054-2.599 1.644-.351.287-.701.934-.617 1.324.278 1.284.74 2.531 1.159 3.782.888 2.65.314 5.07-1.387 6.502-1.712 1.441-4.625 1.864-6.896.017-.94-.764-2.092-1.264-3.109-1.942-1.608-1.07-2.404.425-3.206 1.182-.457.431-.508 1.668-.261 2.376.446 1.277 1.253 2.43 1.91 3.634 1.025 1.876.942 3.776-.392 5.376-1.503 1.802-3.49 2.739-5.925 1.935-1.21-.399-2.421-.823-3.577-1.353-2.367-1.084-3.184-.881-4.231 1.473-.215.482-.014 1.359.317 1.83 1.014 1.443 2.335 2.684 3.265 4.172 2.078 3.322.047 7.474-3.85 7.683-2.119.114-4.27-.481-6.416-.623-.476-.032-1.288.393-1.426.788-.344.982-1.808 1.879-.693 3.051 1.206 1.268 2.679 2.282 3.923 3.519.931.927 1.506 1.735 1.743 2.563 1.451-.219 20.58-3.187 21.683-3.295 1.544-2.337 3.146-4.641 4.852-6.86 4.271-5.552 9.535-10.086 15.372-13.911 2.275-1.491 4.861-2.56 7.408-3.561.788-.31 2.108-.049 2.854.445 3.621 2.396 7.344 1.719 11.118.65 1.539-.436 3.036-1.054 4.596-1.373 2.221-.455 3.646-2.005 4.719-3.661 1.955-3.019 4.564-3.7 7.975-3.628 5.262.112 10.38.907 15.429 2.219 5.988 1.558 11.734 3.799 16.908 7.207 3.155 2.078 6.404 4.626 9.305 7.034 1.858-.325 18.247-2.698 21.182-3.273Zm-48.097 127.831c-3.34.396-7.108-2.053-7.429-5.893-.307-3.668 2.532-7.497 5.956-7.836 3.276-.324 7.271 2.283 7.27 6.104.4 3.789-2.221 7.201-5.797 7.625Zm54.67-27.757c-1.301-1.66-1.367-3.82-.673-5.285-.759.051-22.048 3.344-23.801 3.613-4.664 4.819-9.935 8.956-15.935 12.163-.767.41-1.651.603-2.893 1.043-1.154-.326-2.721-.464-3.942-1.183-2.066-1.218-4.123-1.92-6.49-1.353-3.241.776-6.558 1.363-9.669 2.502-1.473.539-2.845 1.976-3.735 3.346-1.893 2.914-4.226 4.401-7.8 3.899-4.1-.575-8.277-.712-12.328-1.505-5.516-1.08-11.018-4.185-15.963-6.755-1.103.107-24.314 3.628-25.891 3.893.812.957 1.544 2.366 1.283 3.687-.388 1.97-1.165 3.886-1.95 5.75-.827 1.967-.813 2.321.992 3.516.222.146.44.295.66.445.876.594 1.585.68 2.479-.188 1.26-1.225 2.712-2.265 4.136-3.31 1.548-1.137 3.316-1.499 4.999-.483 1.928 1.164 3.071 2.853 2.567 5.295-.355 1.721-.468 3.5-.938 5.184-.381 1.367.389 1.884 1.317 2.204 1.069.369 2.197 1.605 3.368.078.89-1.162 1.779-2.336 2.785-3.396 1.689-1.781 3.673-3.21 6.245-2.114 2.101.895 3.149 2.757 3.207 5.053.031 1.267-.096 2.537-.147 3.806-.051 1.273-.222 2.436 1.613 2.853 2.49.565 3.006.572 3.91-1.141.592-1.122 1.019-2.36 1.771-3.359.813-1.081 1.753-2.343 2.928-2.827 3.078-1.267 5.809.421 6.592 3.441.457 1.763.927 3.532 1.209 5.327.158.996.585 1.336 1.503 1.351.494.009.986.149 1.48.151 1.139.005 1.922-.212 2.252-1.646.452-1.959 1.145-3.935 2.128-5.685 1.772-3.152 5.755-3.458 7.917-.718 1.25 1.584 1.918 3.658 2.682 5.577.621 1.559 1.609 1.906 3.16 1.623 1.563-.285 2.093-1.128 2.268-2.644.245-2.115.614-4.253 1.264-6.275.652-2.03 3.602-3.129 5.676-2.595 2.535.653 3.444 2.832 4.697 4.677 1.742 2.563 1.686 2.53 4.537 1.843 1.215-.293 1.535-.91 1.389-2.032a115.624 115.624 0 0 1-.5-4.695c-.205-2.322 1.149-4.607 3.194-5.452 2.224-.919 4.616-.341 6.23 1.446.816.903 1.832 1.649 2.531 2.627 1.232 1.721 2.435 1.148 3.723.191.356-.264.762-.502 1.017-.846.206-.277.376-.74.289-1.044-.346-1.209-.937-2.362-1.175-3.585-.293-1.516-.761-3.196-.387-4.604.983-3.707 5.347-4.933 8.467-2.646 1.163.852 2.482 1.499 3.603 2.396 1.462 1.17 2.219-.006 3.089-.77.919-.807 1.228-1.636.502-2.907-1.247-2.181-2.767-4.275-2.801-6.993-.033-2.555 2.776-5.325 5.261-4.743 2.239.524 4.41 1.38 6.56 2.221 1.878.734 2.105-1.016 2.941-1.798.715-.67.803-1.468.069-2.319-1.204-1.395-2.336-2.854-3.472-4.305Z" fill-rule="evenodd" style="isolation: isolate; fill: rgb(38, 34, 34); fill-opacity: 1;" class="fills" data-testid="svg-path"/></g></g></svg>