<svg width="450" xmlns="http://www.w3.org/2000/svg" height="377.801" viewBox="586 344 450 377.801" fill="none"><path d="M638.579 542.401c-.12 2.173-.749 4.301-1.886 6.38-1.139 2.081-2.708 3.997-4.708 5.746-2.002 1.749-4.421 3.271-7.255 4.568-2.834 1.295-6.039 2.252-9.614 2.868-2.774.478-5.38.568-7.814.271-2.437-.298-4.641-.935-6.616-1.909a15.499 15.499 0 0 1-5.045-3.931c-1.389-1.643-2.395-3.607-3.014-5.893l14.786-8.558c-.124.082.015.477.418 1.184.4.708.973 1.433 1.714 2.172.74.739 1.65 1.359 2.731 1.861 1.078.502 2.235.556 3.468.165 1.046-.3 2.079-.927 3.095-1.879 1.017-.952 1.492-2.26 1.429-3.925-.064-1.005-.482-1.875-1.252-2.609-.773-.733-1.868-1.457-3.286-2.17-3.146-1.489-6.063-2.766-8.746-3.829-2.683-1.062-5.029-2.258-7.034-3.586-2.006-1.328-3.579-2.94-4.722-4.838-1.146-1.894-1.718-4.426-1.722-7.595-.004-2.93.607-5.606 1.839-8.031a22.086 22.086 0 0 1 4.893-6.406c2.033-1.843 4.372-3.383 7.022-4.617a35.246 35.246 0 0 1 8.228-2.673c3.388-.585 6.365-.635 8.924-.149 2.558.487 4.718 1.295 6.477 2.427 1.759 1.131 3.132 2.525 4.122 4.177.988 1.656 1.637 3.352 1.949 5.092l-13.584 7.543a12.947 12.947 0 0 0-.836-2.053 6.536 6.536 0 0 0-1.53-1.98c-.647-.575-1.42-1.024-2.314-1.35-.893-.323-1.927-.385-3.098-.183-1.234.213-2.357.78-3.372 1.701-1.016.924-1.525 2.134-1.523 3.627.002 1.136.48 2.056 1.439 2.757.955.704 2.453 1.596 4.489 2.68a232.01 232.01 0 0 1 8.189 3.253c2.621 1.103 4.951 2.464 6.987 4.087a19.05 19.05 0 0 1 4.91 5.836c1.236 2.268 1.856 5.107 1.861 8.514l.001 1.255Zm50.508-59.92.021 15.065-15.625 2.692.071 51.653-15.535 2.678-.07-51.653-15.627 2.693-.02-15.064 46.785-8.064Zm47.176 6.937-26.628 4.59.015 10.761 19.6-3.378.021 15.066-19.601 3.378.015 10.76 26.628-4.59.021 15.066-42.163 7.267-.091-66.717 42.163-7.267.02 15.064Zm48.265-8.318-26.629 4.59.015 10.761 19.601-3.379.02 15.066-19.601 3.379.015 10.759 26.629-4.589.02 15.066-42.163 7.267-.091-66.717 42.163-7.267.021 15.064Zm21.685 32.858 18.4-3.171.02 15.066-33.934 5.848-.09-66.716 15.534-2.678.07 51.651Zm76.558-12.925c2.649-.278 4.854-1.315 6.607-3.113 1.755-1.796 3.093-3.82 4.015-6.073l13.417 4.954c-.553 1.17-1.337 2.683-2.352 4.53-1.013 1.85-2.445 3.741-4.293 5.675-1.847 1.931-4.202 3.729-7.066 5.387-2.866 1.661-6.394 2.851-10.586 3.574l-.092.015c-4.685.808-8.616.769-11.791-.12-3.179-.887-5.769-2.368-7.776-4.445-2.007-2.077-3.473-4.632-4.402-7.671-.931-3.04-1.49-6.277-1.679-9.713l-.018-13.81c.058-3.297.622-6.641 1.698-10.024a32.031 32.031 0 0 1 4.794-9.393c2.124-2.878 4.786-5.355 7.991-7.431 3.202-2.078 6.933-3.482 11.184-4.215l.093-.015c3.758-.649 6.997-.699 9.711-.15 2.712.55 5.042 1.464 6.985 2.742 1.945 1.28 3.519 2.833 4.724 4.658 1.205 1.826 2.147 3.696 2.828 5.612l-13.397 9.575a16.04 16.04 0 0 0-1.53-3.056 10.614 10.614 0 0 0-2.362-2.642 8.957 8.957 0 0 0-3.146-1.611c-1.172-.336-2.406-.362-3.701-.08-3.143.781-5.654 2.425-7.529 4.931-1.879 2.507-2.815 5.404-2.81 8.692l.018 13.001c.004 3.29.964 5.888 2.878 7.801 1.912 1.914 4.443 2.719 7.587 2.415Zm45.789-59.824.091 66.716-15.535 2.678-.091-66.717 15.535-2.677Zm52.332-9.02.021 15.064-15.625 2.693.071 51.653-15.535 2.678-.07-51.653-15.626 2.693-.022-15.064 46.786-8.064Zm55.108-9.498-18.448 36.546.045 33.359-14.608 2.517-.045-33.359-17.705-30.314 17.381-2.995 8.066 14.395 7.931-17.152 17.383-2.997ZM627.743 632.443l-15.066 2.597-6.832 20.933L586 659.394l22.549-78.879 23.275-4.011 22.754 71.07-19.846 3.42-6.989-18.551Zm48.631-5.56 20.678-3.564.022 16.93-38.134 6.572-.102-74.974 17.457-3.008.079 58.044Zm44.784-7.719 20.677-3.563.023 16.93-38.134 6.572-.102-74.974 17.457-3.008.079 58.043Zm74.652-53.991-29.924 5.158.016 12.093 22.027-3.796.023 16.93-22.027 3.796.017 12.092 29.924-5.158.023 16.931-47.381 8.166-.102-74.974 47.381-8.166.023 16.928Zm63.151-27.816-20.732 41.068.052 37.488-16.416 2.829-.052-37.488-19.896-34.066 19.533-3.366L830.514 560l8.912-19.276 19.535-3.367Zm25.223 54.013c2.976-.312 5.455-1.478 7.425-3.498 1.972-2.018 3.476-4.293 4.511-6.825l15.078 5.567c-.621 1.315-1.503 3.015-2.643 5.091-1.139 2.079-2.747 4.204-4.824 6.377-2.076 2.171-4.723 4.19-7.941 6.054-3.221 1.866-7.186 3.204-11.895 4.016l-.105.018c-5.264.907-9.682.864-13.25-.136-3.572-.996-6.483-2.661-8.738-4.995-2.256-2.333-3.903-5.205-4.947-8.621-1.046-3.416-1.674-7.054-1.886-10.914l-.022-15.52c.066-3.705.7-7.462 1.909-11.264a36 36 0 0 1 5.388-10.555c2.387-3.234 5.378-6.018 8.979-8.352 3.599-2.334 7.79-3.912 12.569-4.736l.104-.018c4.224-.727 7.863-.785 10.913-.168 3.048.619 5.666 1.646 7.85 3.082 2.186 1.439 3.954 3.183 5.308 5.234 1.355 2.052 2.414 4.154 3.178 6.307l-15.056 10.76c-.415-1.139-.99-2.282-1.718-3.434a11.904 11.904 0 0 0-2.654-2.969 10.069 10.069 0 0 0-3.536-1.811c-1.317-.377-2.704-.407-4.159-.09-3.532.878-6.353 2.726-8.461 5.542-2.112 2.817-3.163 6.072-3.158 9.767l.02 14.611c.005 3.697 1.083 6.617 3.235 8.766 2.149 2.151 4.993 3.056 8.526 2.714Zm70.445-15.265-15.067 2.597-6.832 20.933-19.845 3.42 22.549-78.878 23.275-4.012 22.754 71.07-19.846 3.421-6.988-18.551ZM1025 508.74l.023 16.929-17.558 3.026.079 58.045-17.457 3.009-.079-58.045-17.561 3.026-.023-16.928L1025 508.74ZM770.054 405.032c-7.387.786-13.404-3.133-14.042-9.523-.861-8.621 5.209-14.659 13.136-15.443 7.578-.749 12.372 3.67 13.375 12.307.58 4.987-6.335 12.006-12.469 12.659Zm167.234 19.072c-.64-1.652-.182-2.557 1.034-4.607 1.607-2.711 3.218-5.421 4.766-8.167.981-1.741 2.933-3.872 2.518-5.248-.66-2.187-2.734-4.138-4.637-5.652-.601-.478-2.615.666-3.909 1.237-2.366 1.044-4.718 2.14-7.005 3.347-6.378 3.366-10.354 1.56-13.978-1.82-2.671-2.49-2.921-7.194-.778-11.973 1.108-2.471 2.008-5.036 3.15-7.49.838-1.801.77-3.605-1.012-4.301-2.33-.91-4.142-4.672-7.461-1.6-2.321 2.15-4.847 4.086-7.336 6.049-3.534 2.787-8.518 3.435-11.618 1.589-4.845-2.886-6.43-6.506-5.281-12.043.547-2.637.962-5.31 1.657-7.908.765-2.856-1.022-4-3.1-4.758-1.915-.7-3.877-2.714-5.95.245-1.81 2.584-4.174 4.783-6.299 7.147-5.373 5.975-13.217 4.79-16.875-.527-3.199-4.649-1.69-9.697-1.861-14.552-.073-2.073.24-3.857-2.135-4.021-2.514-.174-5.415-3.256-7.599 1.08-2.018 4.008-4.268 8.032-7.136 11.448-3.322 3.954-11.422 3.586-14.265-.652-1.79-2.666-2.667-6.138-3.246-9.374-1.161-6.505-1.106-6.667-7.683-7.056-.638-.037-1.265-.26-2.357-.497-1.234 3.58-2.483 7.023-3.605 10.506-1.257 3.9-3.5 6.957-7.557 8.05-4.561 1.229-8.779.386-11.349-3.943-1.81-3.051-3.602-6.308-4.414-9.708-1.15-4.818-4.2-2.574-6.831-2.648-3.205-.09-3.288 2.159-3.554 4.28-.419 3.337-.345 6.782-1.153 10.015-1.95 7.806-11.617 10.583-16.372 5.821-2.372-2.376-4.517-5.04-6.418-7.811-2.759-4.022-3.219-4.195-7.767-2.332-2.306.945-2.901 2.231-2.705 4.695.328 4.136.98 8.554-.076 12.427-2.111 7.74-12.582 10.173-18.865 2.957-2.259-2.596-4.881-4.877-7.229-7.193-2.075 1.282-3.82 2.153-5.291 3.357-.714.587-1.427 1.908-1.256 2.705.566 2.623 1.506 5.168 2.36 7.723 1.808 5.411.639 10.354-2.825 13.278-3.486 2.943-9.416 3.807-14.041.036-1.914-1.561-4.26-2.582-6.332-3.966-3.272-2.186-4.894.868-6.527 2.412-.931.881-1.034 3.408-.531 4.854.909 2.607 2.55 4.962 3.889 7.42 2.087 3.832 1.917 7.712-.799 10.98-3.06 3.68-7.105 5.593-12.064 3.952-2.464-.816-4.929-1.682-7.284-2.763-4.818-2.215-6.482-1.8-8.614 3.006-.437.985-.029 2.777.645 3.739 2.065 2.947 4.754 5.481 6.648 8.519 4.231 6.784.096 15.264-7.838 15.69-4.316.232-8.696-.982-13.065-1.273-.969-.064-2.622.804-2.905 1.611-.7 2.003-3.679 3.836-1.41 6.23 2.456 2.59 5.456 4.659 7.988 7.187 1.896 1.892 3.066 3.543 3.548 5.232 2.955-.445 41.907-6.508 44.153-6.727 3.143-4.773 6.404-9.48 9.879-14.009 8.697-11.339 19.414-20.599 31.3-28.41 4.632-3.045 9.898-5.228 15.085-7.273 1.603-.632 4.291-.099 5.811.91 7.373 4.893 14.954 3.51 22.638 1.327 3.134-.89 6.181-2.152 9.359-2.804 4.523-.928 7.424-4.094 9.609-7.476 3.98-6.164 9.293-7.555 16.238-7.408 10.715.228 21.136 1.85 31.416 4.531 12.193 3.181 23.893 7.758 34.429 14.717 6.424 4.243 13.039 9.448 18.946 14.364 3.784-.663 37.155-5.509 43.132-6.683Zm-97.935 261.053c-6.801.809-14.474-4.194-15.128-12.035-.625-7.49 5.157-15.311 12.129-16.003 6.668-.662 14.803 4.663 14.803 12.466.814 7.737-4.524 14.706-11.804 15.572Zm111.318-56.684c-2.649-3.391-2.783-7.803-1.371-10.793-1.545.103-44.893 6.828-48.464 7.377-9.496 9.842-20.228 18.291-32.445 24.839-1.562.837-3.362 1.233-5.892 2.131-2.35-.666-5.541-.947-8.027-2.416-4.207-2.487-8.394-3.922-13.215-2.764-6.599 1.584-13.352 2.784-19.686 5.11-3.001 1.101-5.794 4.036-7.606 6.833-3.855 5.951-8.605 8.988-15.883 7.964-8.348-1.175-16.853-1.455-25.101-3.074-11.232-2.206-22.436-8.548-32.505-13.796-2.245.219-49.508 7.409-52.719 7.951 1.654 1.954 3.143 4.83 2.612 7.529-.79 4.023-2.373 7.935-3.97 11.743-1.685 4.017-1.656 4.74 2.021 7.179.45.299.896.604 1.342.909 1.785 1.214 3.228 1.389 5.048-.384 2.566-2.502 5.522-4.624 8.421-6.76 3.153-2.322 6.753-3.061 10.181-.985 3.924 2.377 6.252 5.825 5.226 10.813-.722 3.514-.952 7.148-1.909 10.587-.778 2.791.792 3.847 2.681 4.5 2.176.753 4.474 3.277 6.857.159 1.813-2.372 3.623-4.77 5.671-6.934 3.44-3.637 7.48-6.556 12.716-4.319 4.278 1.828 6.413 5.632 6.53 10.321.063 2.586-.195 5.181-.298 7.772-.105 2.6-.453 4.974 3.284 5.825 5.07 1.155 6.12 1.17 7.961-2.33 1.205-2.289 2.076-4.818 3.607-6.858 1.656-2.208 3.568-4.785 5.961-5.773 6.267-2.588 11.828.858 13.423 7.026.93 3.6 1.888 7.214 2.463 10.879.319 2.033 1.189 2.728 3.06 2.76 1.005.017 2.008.303 3.012.307 2.321.01 3.914-.433 4.586-3.361.92-4.001 2.331-8.037 4.334-11.61 3.608-6.437 11.718-7.062 16.121-1.466 2.545 3.236 3.905 7.471 5.461 11.389 1.264 3.184 3.276 3.893 6.434 3.314 3.181-.581 4.261-2.303 4.618-5.399.499-4.32 1.25-8.685 2.572-12.815 1.328-4.146 7.336-6.39 11.56-5.299 5.16 1.334 7.011 5.783 9.563 9.551 3.546 5.234 3.433 5.167 9.239 3.763 2.474-.598 3.124-1.858 2.828-4.15a238.85 238.85 0 0 1-1.019-9.588c-.418-4.741 2.341-9.407 6.503-11.133 4.529-1.876 9.4-.696 12.687 2.954 1.66 1.843 3.73 3.367 5.154 5.363 2.508 3.515 4.957 2.346 7.58.391.724-.54 1.552-1.025 2.071-1.727.419-.566.765-1.513.589-2.133-.705-2.469-1.909-4.823-2.393-7.322-.598-3.095-1.549-6.525-.79-9.4 2.003-7.572 10.889-10.075 17.243-5.404 2.366 1.739 5.052 3.061 7.335 4.894 2.978 2.389 4.518-.013 6.291-1.575 1.87-1.646 2.5-3.34 1.021-5.936-2.539-4.454-5.633-8.729-5.704-14.28-.066-5.219 5.653-10.876 10.713-9.687 4.56 1.07 8.981 2.82 13.358 4.536 3.823 1.499 4.286-2.074 5.989-3.672 1.456-1.368 1.633-2.998.139-4.735-2.451-2.85-4.755-5.828-7.069-8.791Z" fill-rule="evenodd" style="isolation: isolate; fill: rgb(0, 0, 0); fill-opacity: 1;" class="fills" data-testid="svg-path"/></svg>