<svg width="43" xmlns="http://www.w3.org/2000/svg" height="41" fill="none"><g data-testid="flyer" style="fill: rgb(0, 0, 0);"><path d="M33.5 5.25H9a3.51 3.51 0 0 0-3.5 3.5v24.5a3.51 3.51 0 0 0 3.5 3.5h24.5a3.51 3.51 0 0 0 3.5-3.5V8.75a3.51 3.51 0 0 0-3.5-3.5ZM16.875 20.125c0 1.4-1.225 2.625-2.625 2.625H12.5v3.5H9.875v-10.5h4.375c1.4 0 2.625 1.225 2.625 2.625v1.75Zm8.75 3.5c0 1.4-1.225 2.625-2.625 2.625h-4.375v-10.5H23c1.4 0 2.625 1.225 2.625 2.625v5.25Zm7-5.25H30v1.75h2.625v2.625H30v3.5h-2.625v-10.5h5.25v2.625Zm-11.375 0H23v5.25h-1.75v-5.25Zm-8.75 0h1.75v1.75H12.5v-1.75Z" style="fill: rgb(112, 185, 133); fill-opacity: 1;" class="fills" data-testid="svg-path"/></g></svg>