<svg width="43" xmlns="http://www.w3.org/2000/svg" height="41" fill="none"><g data-testid="instagram" style="fill: rgb(0, 0, 0);"><path d="M23.549 3.5c1.969.005 2.968.016 3.831.04l.339.013c.392.014.779.031 1.246.052 1.862.087 3.133.381 4.247.814a8.509 8.509 0 0 1 3.101 2.018 8.576 8.576 0 0 1 2.018 3.101c.433 1.114.727 2.385.814 4.249.021.465.038.852.052 1.246l.011.339c.026.861.037 1.86.04 3.829l.002 1.305v2.293a139.66 139.66 0 0 1-.04 3.829l-.011.339c-.014.394-.031.781-.052 1.247-.088 1.863-.385 3.132-.816 4.249a8.525 8.525 0 0 1-2.018 3.1 8.585 8.585 0 0 1-3.101 2.018c-1.114.433-2.385.726-4.247.814-.415.02-.83.037-1.246.052l-.339.011c-.863.025-1.862.037-3.831.04l-1.305.002h-2.291c-1.277.004-2.554-.009-3.831-.04l-.339-.011c-.416-.015-.831-.034-1.246-.054-1.863-.088-3.133-.381-4.249-.814a8.546 8.546 0 0 1-3.1-2.018 8.575 8.575 0 0 1-2.019-3.1c-.433-1.115-.727-2.386-.814-4.249-.019-.416-.037-.831-.053-1.247l-.008-.339a135.786 135.786 0 0 1-.044-3.829v-3.598c-.005-1.277.008-2.553.038-3.829l.013-.339c.014-.394.031-.781.052-1.246.088-1.864.382-3.133.814-4.249A8.525 8.525 0 0 1 7.19 6.437a8.556 8.556 0 0 1 3.098-2.018c1.116-.433 2.385-.727 4.249-.814.465-.021.853-.038 1.246-.052l.339-.011c1.276-.031 2.552-.045 3.829-.04l3.598-.002Zm-1.799 8.75a8.749 8.749 0 1 0 0 17.498 8.749 8.749 0 0 0 0-17.498Zm0 3.5c.689 0 1.372.136 2.009.399a5.254 5.254 0 0 1 1.705 8.563 5.264 5.264 0 0 1-3.712 1.538 5.25 5.25 0 0 1-.002-10.5Zm9.189-6.125a2.187 2.187 0 1 0 0 4.373 2.187 2.187 0 0 0 0-4.373Z" style="fill: rgb(112, 185, 133); fill-opacity: 1;" class="fills" data-testid="svg-path"/></g></svg>