<svg xmlns="http://www.w3.org/2000/svg" width="276.67" height="612" viewBox="0 0 276.67 612">
  <g>
    <rect width="276.67" height="612" fill="#fea621"/>
    <g>
      <path d="M191.724,528.32v29.171h12.155V536.018h17.015v21.473h29.171v17.016H174.708V528.32Z"/>
      <path d="M174.708,506.848h75.357v17.016H174.708Z"/>
      <path d="M250.065,472.512l-24.511,10.129v.2h24.511v17.016H174.708V476.867a25.881,25.881,0,0,1,1.975-10.787,18.247,18.247,0,0,1,5.267-6.888,20.427,20.427,0,0,1,7.7-3.7,37.724,37.724,0,0,1,9.269-1.114,22.93,22.93,0,0,1,9.014,1.671,25.521,25.521,0,0,1,6.634,3.95,18.47,18.47,0,0,1,4.052,4.608,8.066,8.066,0,0,1,1.367,3.647l30.082-15.294Z"/>
      <path d="M232.543,399.485a14.985,14.985,0,0,1,6.837,2.077,18.345,18.345,0,0,1,5.57,5.165,25.909,25.909,0,0,1,3.748,7.952,37.427,37.427,0,0,1,1.367,10.534,29.272,29.272,0,0,1-1.216,8.558,26.02,26.02,0,0,1-3.443,7.243,22.118,22.118,0,0,1-5.419,5.519,21.108,21.108,0,0,1-7.242,3.292l-6.786-16.206q.1.205,1.418-.456a14.753,14.753,0,0,0,2.785-1.873A13.341,13.341,0,0,0,232.8,428.3a5.28,5.28,0,0,0,.861-3.8,6.774,6.774,0,0,0-1.519-3.394,4.736,4.736,0,0,0-4.153-1.57,5.3,5.3,0,0,0-3.191,1.368,19.443,19.443,0,0,0-3.089,3.6q-3.443,5.164-6.026,9.571a52.106,52.106,0,0,1-5.419,7.7,21.908,21.908,0,0,1-6.381,5.166,18.935,18.935,0,0,1-8.913,1.874,18.026,18.026,0,0,1-8.711-2.026,19.317,19.317,0,0,1-6.281-5.368,24.284,24.284,0,0,1-3.848-7.7,33.572,33.572,0,0,1-1.418-9.015,27.884,27.884,0,0,1,1.57-9.774,23.9,23.9,0,0,1,4-7.09,18.327,18.327,0,0,1,5.52-4.507,20.441,20.441,0,0,1,6.128-2.127L197.8,416.1a17.405,17.405,0,0,0-2.482.912,9.371,9.371,0,0,0-2.532,1.671,9.871,9.871,0,0,0-1.976,2.532A6.923,6.923,0,0,0,190,424.6a5.988,5.988,0,0,0,1.266,3.7,4.467,4.467,0,0,0,3.8,1.671,4.517,4.517,0,0,0,3.394-1.57,54.843,54.843,0,0,0,3.9-4.913q2.636-4.656,5.267-8.964a41.122,41.122,0,0,1,5.976-7.646,27.483,27.483,0,0,1,7.546-5.368,22.768,22.768,0,0,1,9.977-2.027Z"/>
      <path d="M174.708,344.082h17.016V361.2h58.341v17.016H191.724v17.117H174.708Z"/>
      <path d="M174.708,286.756a21.829,21.829,0,0,1,1.722-8.812,18.808,18.808,0,0,1,4.913-6.736,22.456,22.456,0,0,1,7.7-4.3,31.433,31.433,0,0,1,10.078-1.52,30.613,30.613,0,0,1,9.926,1.52,23.084,23.084,0,0,1,7.7,4.3,19.034,19.034,0,0,1,5.014,6.736,21.286,21.286,0,0,1,1.772,8.812v5.672h26.537v17.32H174.708V286.756Z"/>
      <path d="M233.049,242.393V222.237h17.016v37.172H174.708V242.393Z"/>
      <path d="M230.213,177.975v14.686l19.852,6.685v19.346l-75.357-22.081V173.923l75.357-22.081v19.346Z"/>
      <path d="M233.353,123.482a9.513,9.513,0,0,0-2.228-7.241,16.76,16.76,0,0,0-6.077-4.407l8.2-14.686q1.822.912,4.659,2.583a24.043,24.043,0,0,1,5.57,4.709,27.17,27.17,0,0,1,4.71,7.749,30.013,30.013,0,0,1,1.976,11.6v.1a30.494,30.494,0,0,1-2.432,12.914,23.326,23.326,0,0,1-6.532,8.508,26.407,26.407,0,0,1-9.521,4.811,51.514,51.514,0,0,1-11.293,1.823h-15.6A37.36,37.36,0,0,1,193.8,150.07a29.535,29.535,0,0,1-9.673-5.267,25.927,25.927,0,0,1-6.837-8.761,27.513,27.513,0,0,1-2.583-12.256v-.1a29.511,29.511,0,0,1,1.722-10.635,26.076,26.076,0,0,1,4.457-7.647,23.561,23.561,0,0,1,6.178-5.166,36.459,36.459,0,0,1,6.887-3.089l8.205,14.686a22.531,22.531,0,0,0-3.748,1.672,15.342,15.342,0,0,0-3.443,2.582,12.263,12.263,0,0,0-2.432,3.444,8.423,8.423,0,0,0-.81,4.052,11.458,11.458,0,0,0,4.1,8.255,13.966,13.966,0,0,0,9.268,3.089H219.78a14.21,14.21,0,0,0,9.369-3.14A11.473,11.473,0,0,0,233.353,123.482Z"/>
      <path d="M191.724,44.075V73.246h12.155V51.773h17.015V73.246h12.155V44.075h17.016V90.262H174.708V44.075Z"/>
    </g>
    <g>
      <path d="M89.65,83.681V54.51H77.5V75.982H60.48V54.51H31.309V37.494h75.358V83.681Z"/>
      <path d="M106.667,105.153H31.309V88.137h75.358Z"/>
      <path d="M31.309,139.489,55.821,129.36v-.2H31.309V112.142h75.358v22.992a25.864,25.864,0,0,1-1.976,10.787,18.235,18.235,0,0,1-5.266,6.888,20.432,20.432,0,0,1-7.7,3.7,37.71,37.71,0,0,1-9.268,1.114,22.948,22.948,0,0,1-9.014-1.671A25.528,25.528,0,0,1,66.81,152a18.482,18.482,0,0,1-4.051-4.608,8.071,8.071,0,0,1-1.368-3.647L31.309,159.037Z"/>
      <path d="M48.832,212.516A14.987,14.987,0,0,1,42,210.438a18.333,18.333,0,0,1-5.57-5.165,25.892,25.892,0,0,1-3.748-7.951,37.426,37.426,0,0,1-1.368-10.534,29.312,29.312,0,0,1,1.216-8.559,26,26,0,0,1,3.444-7.242,22.118,22.118,0,0,1,5.419-5.519,21.108,21.108,0,0,1,7.242-3.292l6.786,16.206q-.1-.206-1.418.456a14.721,14.721,0,0,0-2.785,1.873,13.27,13.27,0,0,0-2.634,2.988,5.279,5.279,0,0,0-.861,3.8,6.769,6.769,0,0,0,1.519,3.394,4.736,4.736,0,0,0,4.153,1.57,5.307,5.307,0,0,0,3.191-1.368,19.481,19.481,0,0,0,3.089-3.6q3.443-5.165,6.026-9.571a52.171,52.171,0,0,1,5.419-7.7,21.924,21.924,0,0,1,6.381-5.166,18.935,18.935,0,0,1,8.913-1.874,18.027,18.027,0,0,1,8.711,2.027,19.279,19.279,0,0,1,6.28,5.368,24.255,24.255,0,0,1,3.849,7.7,33.566,33.566,0,0,1,1.418,9.015,27.907,27.907,0,0,1-1.57,9.774,23.9,23.9,0,0,1-4,7.09,18.339,18.339,0,0,1-5.52,4.507,20.441,20.441,0,0,1-6.128,2.127L83.573,195.9a17.619,17.619,0,0,0,2.482-.912,9.387,9.387,0,0,0,2.532-1.671,9.868,9.868,0,0,0,1.975-2.532,6.925,6.925,0,0,0,.811-3.393,5.98,5.98,0,0,0-1.267-3.7,4.465,4.465,0,0,0-3.8-1.671,4.514,4.514,0,0,0-3.393,1.57,54.515,54.515,0,0,0-3.9,4.913q-2.636,4.656-5.267,8.964a41.085,41.085,0,0,1-5.977,7.646,27.453,27.453,0,0,1-7.546,5.368,22.76,22.76,0,0,1-9.976,2.027Z"/>
      <path d="M106.667,267.919H89.65V250.8H31.309V233.785H89.65V216.668h17.017Z"/>
      <path d="M106.667,325.245a21.838,21.838,0,0,1-1.722,8.813,18.809,18.809,0,0,1-4.913,6.734,22.441,22.441,0,0,1-7.7,4.305,31.433,31.433,0,0,1-10.078,1.519,30.614,30.614,0,0,1-9.926-1.519,23.058,23.058,0,0,1-7.7-4.305,19.035,19.035,0,0,1-5.014-6.734,21.278,21.278,0,0,1-1.772-8.813v-5.672H31.309v-17.32h75.358v22.992Z"/>
      <path d="M48.326,369.608v20.157H31.309V352.592h75.358v17.016Z"/>
      <path d="M51.162,434.026V419.34l-19.853-6.685V393.31l75.358,22.08v22.688L31.309,460.159V440.812Z"/>
      <path d="M48.021,488.518a9.519,9.519,0,0,0,2.229,7.243,16.772,16.772,0,0,0,6.077,4.406l-8.2,14.685q-1.822-.91-4.659-2.582a24.049,24.049,0,0,1-5.571-4.71,27.2,27.2,0,0,1-4.71-7.749,30.024,30.024,0,0,1-1.975-11.6v-.1A30.481,30.481,0,0,1,33.64,475.2a23.315,23.315,0,0,1,6.532-8.508,26.407,26.407,0,0,1,9.521-4.811,51.454,51.454,0,0,1,11.293-1.822h15.6a37.326,37.326,0,0,1,10.989,1.873,29.545,29.545,0,0,1,9.673,5.267,25.927,25.927,0,0,1,6.837,8.761,27.516,27.516,0,0,1,2.583,12.256v.1a29.509,29.509,0,0,1-1.722,10.636,26.1,26.1,0,0,1-4.457,7.648,23.561,23.561,0,0,1-6.179,5.165,36.354,36.354,0,0,1-6.886,3.088l-8.2-14.685a22.568,22.568,0,0,0,3.748-1.672,15.364,15.364,0,0,0,3.443-2.582,12.3,12.3,0,0,0,2.432-3.444,8.41,8.41,0,0,0,.809-4.052,11.456,11.456,0,0,0-4.1-8.255,13.961,13.961,0,0,0-9.268-3.089H61.6a14.214,14.214,0,0,0-9.37,3.14A11.481,11.481,0,0,0,48.021,488.518Z"/>
      <path d="M89.65,567.926V538.755H77.5v21.472H60.48V538.755H48.326v29.171H31.309V521.739h75.358v46.187Z"/>
    </g>
  </g>
</svg>
