<svg xmlns="http://www.w3.org/2000/svg" width="480.995" height="574.453" viewBox="0 0 480.995 574.453">
  <path d="M464.309,154.608c-.578-2.63.32-3.883,2.62-6.68,3.042-3.7,6.089-7.4,9.049-11.164,1.877-2.388,5.3-5.137,5-7.3-.485-3.438-3.147-6.849-5.657-9.563-.792-.857-4.083.395-6.157.953-3.8,1.021-7.581,2.121-11.3,3.405-10.359,3.579-15.913-.054-20.575-5.969-3.435-4.359-2.722-11.482,1.6-18.165,2.236-3.454,4.182-7.1,6.465-10.52,1.676-2.511,1.991-5.237-.524-6.694-3.29-1.907-5.141-7.977-10.835-4.131-3.985,2.692-8.228,5.014-12.42,7.387-5.952,3.369-13.589,3.188-17.817-.3-6.61-5.456-8.153-11.26-5.145-19.31,1.433-3.835,2.674-7.754,4.32-11.5,1.809-4.113-.61-6.244-3.555-7.865-2.715-1.494-5.195-4.973-8.994-1.01-3.318,3.463-7.377,6.219-11.116,9.278-9.454,7.731-20.96,4.135-25.224-4.7-3.727-7.723-.293-14.956.574-22.287.371-3.131,1.253-5.739-2.276-6.535-3.736-.842-7.379-6.144-11.663-.137-3.96,5.554-8.271,11.078-13.37,15.542-5.9,5.171-17.984,2.743-21.275-4.282-2.07-4.417-2.585-9.835-2.7-14.83C303.1,8.2,303.218,7.966,293.428,5.859A28.458,28.458,0,0,1,290,4.567c-2.683,5.091-5.356,9.973-7.848,14.945-2.79,5.567-6.867,9.64-13.214,10.341-7.135.79-13.276-1.452-16.133-8.55-2.013-5-3.95-10.308-4.382-15.6-.612-7.5-5.712-4.838-9.647-5.558-4.793-.877-5.438,2.481-6.329,5.605-1.4,4.915-2.09,10.107-4.051,14.775-4.737,11.274-19.9,13.207-25.938,4.953a84.241,84.241,0,0,1-7.831-13.217c-3.213-6.68-3.865-7.046-11.127-5.3-3.682.885-4.873,2.678-5.15,6.425-.465,6.288-.508,13.075-2.991,18.647C170.4,43.167,154.109,44.4,146.344,32.1c-2.793-4.421-6.2-8.454-9.193-12.477-3.414,1.445-6.237,2.348-8.724,3.818-1.21.714-2.587,2.534-2.513,3.772a111.851,111.851,0,0,0,1.756,12.145c1.463,8.546-1.436,15.7-7.317,19.291a16.745,16.745,0,0,1-21.1-3.2c-2.513-2.788-5.8-4.865-8.592-7.423-4.408-4.041-7.552.17-10.362,2.112-1.6,1.107-2.343,4.879-1.922,7.166.761,4.128,2.682,8.044,4.124,12.046C84.751,75.6,83.6,81.385,78.76,85.663c-5.448,4.82-11.965,6.758-19.034,3.144a106.843,106.843,0,0,1-10.3-5.837c-6.724-4.441-9.32-4.2-13.635,2.522-.884,1.378-.686,4.164.1,5.764,2.42,4.9,5.872,9.334,8.014,14.336,4.784,11.168-3.39,22.948-15.406,21.752-6.537-.651-12.834-3.489-19.329-4.937-1.44-.322-4.124.6-4.735,1.747-1.516,2.847-6.415,4.91-3.56,9.03,3.089,4.459,7.115,8.263,10.333,12.644,2.411,3.282,3.785,6.032,4.119,8.681,4.541.015,64.45-.074,67.874.117,5.827-6.441,11.814-12.755,18.082-18.754,15.688-15.017,33.929-26.444,53.59-35.425,7.663-3.5,16.077-5.561,24.341-7.432,2.554-.578,6.469.845,8.518,2.712,9.942,9.057,21.647,8.735,33.694,7.236,4.914-.612,9.784-1.8,14.707-2.046,7.009-.347,12.1-4.43,16.164-9,7.405-8.337,15.707-9.2,26.106-7.367a205.671,205.671,0,0,1,46.136,14.079c17.577,7.6,34.091,17.183,48.305,30.075a337.954,337.954,0,0,1,25.132,25.961C403.816,154.54,455.061,154.989,464.309,154.608ZM217.539,87.245c-11.276-.529-19.408-7.808-18.887-17.553.7-13.149,11.219-20.813,23.307-20.155,11.554.628,17.732,8.377,17.24,21.582C238.914,78.742,226.9,87.685,217.539,87.245ZM437.1,464.669a16.159,16.159,0,0,1,.441-16.528c-2.344-.2-69.011-.138-74.5-.141a199.37,199.37,0,0,1-54.483,29.8c-2.541.9-5.336,1.073-9.344,1.837-3.376-1.545-8.1-2.706-11.5-5.488-5.744-4.709-11.7-7.834-19.209-7.211-10.28.852-20.7,1.091-30.752,3.118-4.762.959-9.637,4.719-13.007,8.5-7.168,8.046-15,11.508-25.7,8.285-12.267-3.7-24.976-6.086-36.991-10.429-16.36-5.913-31.719-18.031-45.628-28.247-3.423-.19-76.077-.333-81.025-.262,2.033,3.319,3.6,7.983,2.181,11.914-2.118,5.859-5.4,11.369-8.682,16.718-3.46,5.643-3.585,6.736,1.373,11.251.607.553,1.206,1.115,1.807,1.676,2.4,2.237,4.526,2.833,7.669.591a119.7,119.7,0,0,1,14.215-8.2c5.272-2.757,10.85-3.033,15.518.878,5.345,4.477,8.043,10.2,5.348,17.451-1.9,5.11-3.086,10.515-5.321,15.46-1.812,4.011.3,5.961,2.987,7.38,3.094,1.634,5.96,5.958,10.262,1.825a130.207,130.207,0,0,1,10.123-9.1c6.009-4.667,12.753-8.115,20.1-3.542,6,3.735,8.329,9.942,7.418,17.012-.5,3.9-1.491,7.738-2.247,11.606s-1.831,7.366,3.584,9.509c7.348,2.909,8.922,3.174,12.5-1.656,2.34-3.161,4.233-6.757,7-9.467,3-2.933,6.469-6.36,10.291-7.29,10.012-2.437,17.566,4.027,18.534,13.66.564,5.623,1.165,11.272,1.181,16.91.009,3.129,1.155,4.374,3.957,4.855,1.507.259,2.946.92,4.454,1.159,3.482.552,5.978.254,7.666-3.987a67.118,67.118,0,0,1,9.2-16.435c6.908-8.833,19.235-7.895,24.552,1.53,3.074,5.449,4.136,12.125,5.566,18.371,1.161,5.074,4.019,6.605,8.9,6.468,4.913-.138,6.933-2.474,8.187-7.041a102.6,102.6,0,0,1,6.829-18.653c2.954-5.92,12.5-7.9,18.589-5.283,7.442,3.2,9.192,10.309,12.154,16.56,4.114,8.682,3.96,8.555,13,7.791,3.855-.326,5.123-2.068,5.21-5.579.12-4.881.371-9.763.688-14.636.471-7.219,5.695-13.589,12.346-15.216a16.788,16.788,0,0,1,18.372,7.374c2.067,3.152,4.822,5.92,6.5,9.247,2.954,5.86,6.9,4.671,11.3,2.342a14.456,14.456,0,0,0,3.512-2.115,4.38,4.38,0,0,0,1.376-3.066c-.485-3.872-1.751-7.686-1.9-11.552-.182-4.787-.817-10.159.99-14.3,4.761-10.909,18.686-12.612,27.149-4.126,3.151,3.16,6.88,5.768,9.885,9.048,3.919,4.279,6.789,1.028,9.814-.908,3.189-2.04,4.528-4.437,2.907-8.68-2.782-7.277-6.439-14.415-5.261-22.769,1.109-7.853,11.008-15.026,18.334-12.07,6.6,2.664,12.836,6.315,19.013,9.906,5.395,3.137,6.918-2.122,9.845-4.13,2.5-1.716,3.148-4.124,1.306-7.079C442.658,474.662,439.887,469.656,437.1,464.669ZM256.774,524.038c-10.4-.36-20.768-9.651-19.936-21.579.8-11.4,11.29-21.8,21.922-21.229,10.17.549,21.156,10.431,19.349,22.151C277.54,515.19,267.909,524.422,256.774,524.038Z"/>
</svg>
