<svg xmlns="http://www.w3.org/2000/svg" width="154.916" height="154.916" viewBox="0 0 154.916 154.916">
  <g>
    <path d="M68.007,48.6a128.661,128.661,0,0,0-31.471,3.716c-2.467.613-4.321,2.467-4.321,6.168s2.467,6.789,6.168,6.169c1.847,0,2.468-.621,3.7-.621A119,119,0,0,1,68,60.944c17.279,0,35.172,4.314,47.516,11.1,1.847.613,2.467,1.234,3.7,1.234,3.708,0,6.176-2.468,6.789-6.169a7.24,7.24,0,0,0-3.7-6.168C106.879,52.921,87.133,48.6,68.007,48.6Z" fill="#fff"/>
    <path d="M113.675,82.544A91.67,91.67,0,0,0,66.78,70.2c-10.49,0-17.9,1.847-25.3,3.7-3.087,1.234-4.321,2.467-4.321,5.555a4.863,4.863,0,0,0,4.935,4.935,5.546,5.546,0,0,0,3.087-.62A97.9,97.9,0,0,1,66.16,81.3c16.038,0,30.849,3.7,41.34,10.49a8.817,8.817,0,0,0,3.7,1.234c3.08,0,4.934-2.467,5.562-5.548A6.292,6.292,0,0,0,113.675,82.544Z" fill="#fff"/>
    <path d="M106.879,101.807A78.4,78.4,0,0,0,68.62,91.938a107.987,107.987,0,0,0-24.681,3.087c-2.468,0-3.7,1.855-3.7,4.322a4.223,4.223,0,0,0,4.321,4.322,26.782,26.782,0,0,1,3.088-.621,108.084,108.084,0,0,1,20.36-2.467c12.337,0,24.06,3.08,33.317,8.635,1.233.614,1.854,1.234,3.088,1.234,1.847,0,3.7-1.234,4.934-4.321C109.346,103.661,108.113,103.041,106.879,101.807Z" fill="#fff"/>
    <path d="M0,0V154.916H154.916V0ZM77.458,142.389a64.932,64.932,0,1,1,64.931-64.931A64.931,64.931,0,0,1,77.458,142.389Z" fill="#fff"/>
  </g>
</svg>
