<svg xmlns="http://www.w3.org/2000/svg" width="690.274" height="579.525" viewBox="0 0 690.274 579.525">
  <g>
    <g>
      <path d="M80.654,298.29a22.848,22.848,0,0,1-2.894,9.786,32.4,32.4,0,0,1-7.222,8.813A45.575,45.575,0,0,1,59.409,323.9a59.792,59.792,0,0,1-14.747,4.4,41.134,41.134,0,0,1-11.985.416,31.333,31.333,0,0,1-10.148-2.929,23.753,23.753,0,0,1-7.74-6.029,23.153,23.153,0,0,1-4.623-9.039l22.68-13.128q-.283.189.641,1.816a15.756,15.756,0,0,0,2.63,3.332,14.5,14.5,0,0,0,4.189,2.854,7.11,7.11,0,0,0,5.321.253,11.81,11.81,0,0,0,4.746-2.881,7.436,7.436,0,0,0,2.193-6.021,5.893,5.893,0,0,0-1.922-4,21.2,21.2,0,0,0-5.04-3.329q-7.239-3.426-13.415-5.874a58.408,58.408,0,0,1-10.79-5.5,23.3,23.3,0,0,1-7.244-7.419q-2.634-4.36-2.641-11.653a26.743,26.743,0,0,1,2.82-12.319,33.877,33.877,0,0,1,7.506-9.824,42.76,42.76,0,0,1,10.773-7.083,54.056,54.056,0,0,1,12.619-4.1,38.669,38.669,0,0,1,13.69-.227,27.82,27.82,0,0,1,9.935,3.722,19.547,19.547,0,0,1,6.324,6.408,23.166,23.166,0,0,1,2.989,7.81L57.332,255.119a19.855,19.855,0,0,0-1.281-3.15,10.056,10.056,0,0,0-2.347-3.038,10.941,10.941,0,0,0-3.549-2.071,9.254,9.254,0,0,0-4.753-.28,10.184,10.184,0,0,0-5.173,2.61,7.155,7.155,0,0,0-2.335,5.563,5.011,5.011,0,0,0,2.207,4.229,59.7,59.7,0,0,0,6.886,4.11q6.526,2.456,12.561,4.991a45.174,45.174,0,0,1,10.718,6.27A29.207,29.207,0,0,1,77.8,283.3a27.144,27.144,0,0,1,2.855,13.059Z"/>
      <path d="M158.13,206.376l.032,23.108L134.2,233.615l.107,79.232-23.828,4.107-.108-79.233L86.4,241.853l-.032-23.108Z"/>
      <path d="M230.5,217.017l-40.847,7.04.023,16.507,30.066-5.182.031,23.111L189.7,263.675l.023,16.5,40.846-7.04.032,23.11L165.928,307.4l-.139-102.34,64.675-11.146Z"/>
      <path d="M304.53,204.257l-40.846,7.04.022,16.508,30.067-5.182.031,23.11-30.066,5.182.022,16.5,40.847-7.04.031,23.111-64.675,11.146L239.824,192.3,304.5,181.15Z"/>
      <path d="M337.8,254.66l28.224-4.865.032,23.11L314,281.877l-.139-102.34,23.829-4.107Z"/>
      <path d="M455.23,234.833a16.029,16.029,0,0,0,10.135-4.774,28.9,28.9,0,0,0,6.159-9.316l20.581,7.6q-1.272,2.694-3.608,6.95a42.116,42.116,0,0,1-6.586,8.7,47.427,47.427,0,0,1-27.076,13.745l-.142.025q-10.779,1.857-18.087-.185a25.835,25.835,0,0,1-11.928-6.818,28.68,28.68,0,0,1-6.752-11.768,62.407,62.407,0,0,1-2.575-14.9l-.029-21.184a53.78,53.78,0,0,1,2.605-15.376,49.166,49.166,0,0,1,7.355-14.408,46.408,46.408,0,0,1,12.256-11.4,45.293,45.293,0,0,1,17.157-6.464l.142-.025a40.939,40.939,0,0,1,14.9-.229,30.263,30.263,0,0,1,10.715,4.207,25.036,25.036,0,0,1,7.246,7.145,39.768,39.768,0,0,1,4.338,8.608l-20.551,14.687a24.49,24.49,0,0,0-2.346-4.687,16.277,16.277,0,0,0-3.622-4.054,13.761,13.761,0,0,0-4.827-2.47,11.465,11.465,0,0,0-5.677-.123,19.983,19.983,0,0,0-11.549,7.564,21.57,21.57,0,0,0-4.311,13.333l.027,19.943q.011,7.569,4.416,11.965T455.23,234.833Z"/>
      <path d="M525.467,143.066l.139,102.34-23.829,4.107-.139-102.34Z"/>
      <path d="M605.742,129.231l.031,23.107-23.967,4.131.108,79.232-23.829,4.107-.108-79.232-23.97,4.131-.031-23.107Z"/>
      <path d="M690.274,114.662l-28.3,56.058.07,51.171-22.408,3.862-.069-51.171-27.159-46.5,26.662-4.595,12.373,22.082,12.165-26.311Z"/>
      <path d="M64.032,436.409l-23.111,3.983L30.442,472.5,0,477.749,34.59,356.754l35.7-6.153,34.9,109.017-30.441,5.247Z"/>
      <path d="M138.629,427.879l31.718-5.466.035,25.97-58.495,10.082-.157-115.006,26.778-4.615Z"/>
      <path d="M207.325,416.04l31.718-5.467.035,25.971-58.5,10.081-.156-115L207.2,327Z"/>
      <path d="M321.837,333.221l-45.9,7.911.025,18.55,33.788-5.823.035,25.971L276,385.653l.025,18.547,45.9-7.911.035,25.97-72.68,12.527-.156-115.006,72.68-12.526Z"/>
      <path d="M418.707,290.552l-31.8,63,.078,57.5-25.181,4.34-.078-57.5-30.52-52.255,29.962-5.164,13.9,24.815,13.671-29.567Z"/>
      <path d="M457.4,373.405a18.008,18.008,0,0,0,11.389-5.366,32.454,32.454,0,0,0,6.921-10.468l23.129,8.538q-1.43,3.027-4.054,7.81a47.355,47.355,0,0,1-7.4,9.781,53.3,53.3,0,0,1-30.428,15.447l-.159.027q-12.114,2.088-20.326-.207a29.042,29.042,0,0,1-13.4-7.662,32.215,32.215,0,0,1-7.588-13.225,70.119,70.119,0,0,1-2.893-16.741l-.033-23.806a60.426,60.426,0,0,1,2.927-17.279,55.22,55.22,0,0,1,8.266-16.191,52.108,52.108,0,0,1,13.773-12.811,50.9,50.9,0,0,1,19.28-7.265l.159-.027q9.719-1.675,16.74-.258a34.009,34.009,0,0,1,12.041,4.727,28.126,28.126,0,0,1,8.143,8.03,44.676,44.676,0,0,1,4.875,9.673l-23.094,16.5a27.6,27.6,0,0,0-2.637-5.267,18.3,18.3,0,0,0-4.07-4.555,15.47,15.47,0,0,0-5.424-2.776,12.889,12.889,0,0,0-6.38-.139,22.461,22.461,0,0,0-12.979,8.5,24.239,24.239,0,0,0-4.844,14.983l.03,22.411q.012,8.507,4.963,13.446T457.4,373.405Z"/>
      <path d="M565.455,349.989l-23.111,3.984-10.48,32.109-30.441,5.247,34.59-120.994,35.7-6.154,34.9,109.018-30.441,5.246Z"/>
      <path d="M673.4,246.656l.035,25.967L646.5,277.265l.121,89.039-26.778,4.615-.121-89.039-26.937,4.643-.035-25.968Z"/>
    </g>
    <g>
      <path d="M538.855,122.875c-.981-2.535-.278-3.923,1.586-7.067,2.466-4.159,4.937-8.317,7.311-12.528,1.5-2.671,4.5-5.94,3.863-8.05-1.012-3.355-4.192-6.348-7.113-8.67-.922-.733-4.012,1.022-6,1.9-3.63,1.6-7.236,3.282-10.745,5.134-9.783,5.163-15.882,2.393-21.442-2.791-4.1-3.82-4.481-11.035-1.193-18.367,1.7-3.79,3.08-7.724,4.831-11.488,1.286-2.763,1.181-5.531-1.551-6.6-3.576-1.4-6.355-7.167-11.445-2.454-3.561,3.3-7.436,6.267-11.253,9.278-5.42,4.276-13.066,5.27-17.821,2.438-7.433-4.427-9.864-9.98-8.1-18.472.84-4.047,1.475-8.146,2.542-12.132,1.172-4.381-1.569-6.134-4.756-7.3-2.938-1.073-5.947-4.162-9.127.376-2.777,3.964-6.4,7.338-9.663,10.964-8.241,9.165-20.273,7.348-25.885-.809-4.9-7.131-2.591-14.875-2.854-22.321-.112-3.18.368-5.918-3.275-6.169-3.856-.266-8.306-4.994-11.656,1.657-3.1,6.148-6.547,12.322-10.947,17.56-5.1,6.066-17.519,5.5-21.882-1-2.744-4.088-4.091-9.414-4.978-14.378-1.781-9.978-1.7-10.226-11.787-10.822A28.8,28.8,0,0,1,341.9,0c-1.893,5.492-3.809,10.772-5.53,16.115-1.928,5.983-5.369,10.673-11.592,12.349-7,1.884-13.467.592-17.409-6.049-2.777-4.68-5.526-9.676-6.771-14.892-1.763-7.39-6.442-3.948-10.478-4.061-4.916-.138-5.043,3.311-5.452,6.565-.642,5.118-.53,10.4-1.769,15.361-2.991,11.976-17.819,16.235-25.113,8.93a85.129,85.129,0,0,1-9.844-11.981c-4.232-6.17-4.939-6.435-11.915-3.576-3.537,1.449-4.45,3.421-4.149,7.2.5,6.344,1.5,13.121-.117,19.061-3.239,11.873-19.3,15.6-28.937,4.536-3.466-3.981-7.488-7.479-11.089-11.033-3.183,1.966-5.86,3.3-8.116,5.15-1.1.9-2.191,2.926-1.926,4.15a112.839,112.839,0,0,0,3.618,11.845c2.774,8.3.982,15.883-4.333,20.369a16.9,16.9,0,0,1-21.537.054c-2.937-2.394-6.536-3.96-9.713-6.083-5.019-3.353-7.508,1.331-10.012,3.7-1.428,1.351-1.588,5.227-.815,7.445,1.393,4,3.912,7.611,5.965,11.382,3.2,5.879,2.941,11.83-1.226,16.842-4.693,5.645-10.9,8.581-18.5,6.062a107.687,107.687,0,0,1-11.173-4.238c-7.391-3.4-9.944-2.759-13.215,4.612-.67,1.511-.044,4.259.99,5.735,3.168,4.52,7.292,8.408,10.2,13.068,6.489,10.405.146,23.413-12.025,24.068-6.621.356-13.339-1.508-20.041-1.954-1.486-.1-4.022,1.234-4.455,2.472-1.074,3.073-5.644,5.884-2.163,9.556,3.768,3.972,8.369,7.148,12.253,11.024,2.909,2.9,4.7,5.435,5.443,8.026,4.532-.683,64.282-9.983,67.727-10.32,4.822-7.321,9.824-14.54,15.154-21.489,13.341-17.392,29.781-31.595,48.013-43.578,7.106-4.67,15.182-8.02,23.139-11.156,2.459-.969,6.583-.152,8.914,1.395,11.311,7.507,22.938,5.385,34.725,2.037,4.807-1.365,9.482-3.3,14.356-4.3,6.938-1.423,11.389-6.279,14.74-11.468,6.106-9.455,14.255-11.59,24.91-11.363a207.528,207.528,0,0,1,48.188,6.951c18.7,4.878,36.651,11.9,52.812,22.575a340.865,340.865,0,0,1,29.063,22.033C478.5,132.108,529.688,124.676,538.855,122.875ZM282.329,93.619C271,94.825,261.767,88.814,260.788,79.012c-1.32-13.224,7.991-22.486,20.151-23.689,11.623-1.15,18.977,5.63,20.517,18.879C302.344,81.85,291.737,92.618,282.329,93.619Z" fill="#5c130a"/>
      <path d="M559.384,436.365a16.31,16.31,0,0,1-2.1-16.556c-2.369.158-68.863,10.474-74.34,11.315a201.218,201.218,0,0,1-49.769,38.1c-2.4,1.285-5.157,1.891-9.038,3.27-3.605-1.023-8.5-1.454-12.312-3.707-6.455-3.815-12.877-6.016-20.272-4.24-10.123,2.431-20.482,4.271-30.2,7.838-4.6,1.69-8.888,6.191-11.668,10.482-5.914,9.128-13.2,13.787-24.363,12.216-12.806-1.8-25.851-2.231-38.5-4.715-17.23-3.384-34.414-13.111-49.861-21.163-3.444.337-75.942,11.366-80.867,12.2,2.538,3,4.821,7.409,4.007,11.55-1.212,6.17-3.64,12.172-6.09,18.012-2.584,6.162-2.54,7.271,3.1,11.013.691.458,1.375.927,2.06,1.393,2.737,1.863,4.951,2.131,7.742-.589a120.819,120.819,0,0,1,12.919-10.369c4.835-3.56,10.357-4.694,15.616-1.51,6.02,3.645,9.59,8.935,8.017,16.586-1.108,5.39-1.461,10.964-2.93,16.241-1.192,4.28,1.216,5.9,4.114,6.9,3.337,1.155,6.862,5.027,10.518.244a131.243,131.243,0,0,1,8.7-10.637c5.278-5.58,11.474-10.056,19.507-6.624,6.561,2.8,9.837,8.637,10.015,15.83.1,3.968-.3,7.948-.457,11.923s-.693,7.629,5.038,8.935c7.777,1.772,9.389,1.8,12.213-3.573,1.848-3.514,3.184-7.392,5.531-10.522,2.541-3.386,5.475-7.339,9.145-8.855,9.614-3.969,18.143,1.317,20.589,10.778,1.428,5.522,2.9,11.065,3.779,16.687.49,3.12,1.824,4.186,4.694,4.235,1.543.026,3.08.464,4.621.471,3.559.015,6-.666,7.034-5.156a67.8,67.8,0,0,1,6.648-17.809c5.534-9.874,17.975-10.833,24.729-2.249,3.9,4.963,5.99,11.459,8.376,17.47,1.938,4.883,5.025,5.971,9.871,5.084,4.879-.892,6.535-3.533,7.083-8.282a103.646,103.646,0,0,1,3.945-19.657c2.037-6.361,11.253-9.8,17.732-8.129,7.915,2.047,10.754,8.871,14.67,14.651,5.439,8.028,5.265,7.925,14.171,5.772,3.8-.917,4.792-2.85,4.339-6.366-.631-4.888-1.131-9.8-1.564-14.707-.641-7.273,3.591-14.431,9.976-17.077a16.946,16.946,0,0,1,19.461,4.531c2.547,2.827,5.721,5.165,7.905,8.226,3.848,5.392,7.6,3.6,11.628.6a14.586,14.586,0,0,0,3.178-2.649,4.421,4.421,0,0,0,.9-3.271c-1.079-3.788-2.928-7.4-3.669-11.232-.918-4.747-2.378-10.008-1.212-14.418,3.072-11.615,16.7-15.455,26.449-8.29,3.629,2.667,7.75,4.7,11.252,7.506,4.567,3.665,6.93-.019,9.65-2.415,2.868-2.526,3.835-5.123,1.565-9.106-3.894-6.832-8.64-13.389-8.748-21.9-.1-8,8.67-16.683,16.433-14.86,6.994,1.642,13.776,4.326,20.49,6.958,5.864,2.3,6.575-3.181,9.186-5.633,2.234-2.1,2.506-4.6.214-7.263C566.468,445.478,562.934,440.911,559.384,436.365Zm-170.755,86.95c-10.433,1.241-22.2-6.434-23.205-18.46-.959-11.491,7.91-23.487,18.6-24.549,10.23-1.015,22.708,7.153,22.708,19.122C407.984,511.3,399.8,521.987,388.629,523.315Z" fill="#5c130a"/>
    </g>
  </g>
</svg>
