<svg width="43" height="41" viewBox="0 0 43 41" fill="none" xmlns="http://www.w3.org/2000/svg">
<path d="M21.75 3.56999C12.125 3.56999 4.25 11.4275 4.25 21.105C4.25 29.855 10.655 37.1175 19.02 38.43V26.18H14.575V21.105H19.02V17.2375C19.02 12.845 21.6275 10.43 25.635 10.43C27.5425 10.43 29.5375 10.7625 29.5375 10.7625V15.085H27.3325C25.1625 15.085 24.48 16.4325 24.48 17.815V21.105H29.345L28.5575 26.18H24.48V38.43C28.6038 37.7787 32.3589 35.6746 35.0674 32.4976C37.7759 29.3205 39.2594 25.2799 39.25 21.105C39.25 11.4275 31.375 3.56999 21.75 3.56999Z" fill="#F9F8F7"/>
</svg>
