<svg xmlns="http://www.w3.org/2000/svg" width="697.248" height="778.007" viewBox="0 0 697.248 778.007">
  <g>
    <g>
      <path d="M167.581,140.234a163.192,163.192,0,0,1-4.768,39.968,90.376,90.376,0,0,1-15.707,33.236A76.894,76.894,0,0,1,118.5,236.156q-17.669,8.415-43.192,8.414H27.064V35.9H69.136q24.4,0,42.912,7.995A86.435,86.435,0,0,1,142.9,65.77a91.032,91.032,0,0,1,18.512,33.1A134.68,134.68,0,0,1,167.581,140.234Z" transform="translate(0.004 -35.898)"/>
      <path d="M312.025,244.57,293.233,189.6H252.564l-18.51,54.972H180.483L241.626,35.9h62.826L365.6,244.57Z" transform="translate(0.004 -35.898)"/>
      <path d="M465.724,244.57,437.677,176.7h-.562V244.57H390V35.9h63.667q17.946,0,29.87,5.47a50.465,50.465,0,0,1,19.072,14.585,56.539,56.539,0,0,1,10.238,21.316,104.4,104.4,0,0,1,3.085,25.663,63.548,63.548,0,0,1-4.627,24.962,70.765,70.765,0,0,1-10.939,18.371A51.107,51.107,0,0,1,487.6,157.483q-6.456,3.788-10.1,3.788l42.35,83.3Z" transform="translate(0.004 -35.898)"/>
      <path d="M689.817,35.9V83.019h-47.4V244.57H595.3V83.019H547.9V35.9Z" transform="translate(0.004 -35.898)"/>
    </g>
    <g>
      <path d="M115.27,813.905,87.223,746.031h-.562v67.874H39.542V605.233h63.667q17.946,0,29.87,5.47a50.473,50.473,0,0,1,19.072,14.585A56.539,56.539,0,0,1,162.389,646.6a104.4,104.4,0,0,1,3.085,25.663,63.548,63.548,0,0,1-4.627,24.962A70.781,70.781,0,0,1,149.908,715.6a51.093,51.093,0,0,1-12.762,11.218q-6.454,3.787-10.1,3.787l42.35,83.3Z" transform="translate(0.004 -35.898)"/>
      <path d="M323.377,813.905l-18.792-54.972H263.916l-18.511,54.972h-53.57l61.143-208.672H315.8l61.143,208.672Z" transform="translate(0.004 -35.898)"/>
      <path d="M509.9,605.233v47.121H462.5V813.905H415.376V652.354h-47.4V605.233Z" transform="translate(0.004 -35.898)"/>
      <path d="M678.457,765.384a41.478,41.478,0,0,1-5.749,18.931,50.785,50.785,0,0,1-14.3,15.426,71.729,71.729,0,0,1-22.016,10.378,103.571,103.571,0,0,1-29.17,3.786,81.138,81.138,0,0,1-23.7-3.365A72.08,72.08,0,0,1,563.464,801,61.25,61.25,0,0,1,548.178,786a58.532,58.532,0,0,1-9.116-20.054l44.876-18.791q-.564.282,1.262,3.926a41.1,41.1,0,0,0,5.189,7.713,36.876,36.876,0,0,0,8.274,7.293,14.619,14.619,0,0,0,10.518,2.384,18.728,18.728,0,0,0,9.395-4.207q4.627-3.642,4.348-11.5a14.668,14.668,0,0,0-3.786-8.835,53.9,53.9,0,0,0-9.957-8.555q-14.3-9.531-26.5-16.688a144.394,144.394,0,0,1-21.316-15,60.653,60.653,0,0,1-14.3-17.67q-5.193-9.814-5.189-24.682,0-13.738,5.61-24.12a53.407,53.407,0,0,1,14.865-17.39,67.175,67.175,0,0,1,21.315-10.658,92.989,92.989,0,0,1,24.962-3.927q15.421,0,27.067,4.348a66.139,66.139,0,0,1,19.632,11.079A50.827,50.827,0,0,1,667.8,635.945a56.732,56.732,0,0,1,5.89,16.969L632.46,669.182a48.9,48.9,0,0,0-2.524-6.872,26.136,26.136,0,0,0-4.628-7.012,27.352,27.352,0,0,0-7.012-5.469,19.165,19.165,0,0,0-9.4-2.244,16.56,16.56,0,0,0-10.237,3.506q-4.628,3.511-4.628,10.517a12.5,12.5,0,0,0,4.348,9.4,151.84,151.84,0,0,0,13.6,10.8q12.9,7.3,24.822,14.585a113.773,113.773,0,0,1,21.175,16.548,76.151,76.151,0,0,1,14.866,20.894q5.607,11.643,5.609,27.627Z" transform="translate(0.004 -35.898)"/>
    </g>
    <g>
      <path d="M141.916,320.377V367.5h-47.4V529.049H47.4V367.5H0v-47.12Z" transform="translate(0.004 -35.898)"/>
      <path d="M318.611,367.5H237.836v33.656H297.3v47.119H237.836V481.93h80.775v47.119H190.717V320.377H318.611Z" transform="translate(0.004 -35.898)"/>
      <path d="M510.17,480.527a41.48,41.48,0,0,1-5.748,18.932,50.809,50.809,0,0,1-14.305,15.426A71.781,71.781,0,0,1,468.1,525.263a103.6,103.6,0,0,1-29.17,3.786,81.155,81.155,0,0,1-23.7-3.365,72.07,72.07,0,0,1-20.052-9.537,61.25,61.25,0,0,1-15.287-15.005,58.54,58.54,0,0,1-9.116-20.054L415.652,462.3q-.565.28,1.262,3.926a41.069,41.069,0,0,0,5.188,7.713,36.931,36.931,0,0,0,8.275,7.293,14.613,14.613,0,0,0,10.518,2.383,18.716,18.716,0,0,0,9.394-4.207q4.629-3.64,4.348-11.5a14.663,14.663,0,0,0-3.785-8.835,53.937,53.937,0,0,0-9.957-8.554q-14.307-9.533-26.506-16.689a144.18,144.18,0,0,1-21.315-15,60.607,60.607,0,0,1-14.3-17.67q-5.194-9.815-5.19-24.681,0-13.74,5.609-24.12a53.434,53.434,0,0,1,14.866-17.39A67.16,67.16,0,0,1,415.371,324.3a92.936,92.936,0,0,1,24.961-3.927q15.422,0,27.066,4.348A66.085,66.085,0,0,1,487.031,335.8a50.8,50.8,0,0,1,12.481,15.285,56.667,56.667,0,0,1,5.89,16.969l-41.228,16.267a49.023,49.023,0,0,0-2.526-6.872,26.115,26.115,0,0,0-4.627-7.012,27.365,27.365,0,0,0-7.011-5.468,19.167,19.167,0,0,0-9.4-2.244,16.556,16.556,0,0,0-10.236,3.5q-4.629,3.512-4.629,10.518a12.506,12.506,0,0,0,4.348,9.4,151.555,151.555,0,0,0,13.6,10.8q12.9,7.3,24.821,14.585A113.815,113.815,0,0,1,489.7,428.079a76.15,76.15,0,0,1,14.866,20.895q5.607,11.642,5.609,27.627Z" transform="translate(0.004 -35.898)"/>
      <path d="M697.244,320.377V367.5h-47.4V529.049H602.727V367.5h-47.4v-47.12Z" transform="translate(0.004 -35.898)"/>
    </g>
  </g>
</svg>
