<svg xmlns="http://www.w3.org/2000/svg" width="720.219" height="774.881" viewBox="0 0 720.219 774.881">
  <g>
    <g>
      <path d="M150,146.661a170.7,170.7,0,0,1-4.986,41.8,94.5,94.5,0,0,1-16.427,34.759,80.435,80.435,0,0,1-29.919,23.76q-18.479,8.8-45.172,8.8H3.041V37.544h44q25.52,0,44.879,8.36a90.436,90.436,0,0,1,32.266,22.879A95.242,95.242,0,0,1,143.544,103.4,140.828,140.828,0,0,1,150,146.661Z" transform="translate(0 -37.544)"/>
      <path d="M301.061,255.778l-19.654-57.492H238.875l-19.359,57.492H163.49L227.436,37.544h65.705l63.944,218.234Z" transform="translate(0 -37.544)"/>
      <path d="M491.429,37.544h52.212V255.778H493.774L435.109,148.421V255.778H382.9V37.544h50.16l58.372,107.064Z" transform="translate(0 -37.544)"/>
      <path d="M720.219,37.544l-81.252,109.41,80.958,108.824H658.913l-35.2-47.225v47.225H574.436V37.544h49.278V88.289l35.493-50.745Z" transform="translate(0 -37.544)"/>
    </g>
    <g>
      <path d="M139.4,481.917a41.485,41.485,0,0,1-5.749,18.932,50.806,50.806,0,0,1-14.3,15.425,71.724,71.724,0,0,1-22.017,10.378,103.566,103.566,0,0,1-29.17,3.786,81.143,81.143,0,0,1-23.7-3.365A72.094,72.094,0,0,1,24.4,517.537,61.25,61.25,0,0,1,9.115,502.531,58.506,58.506,0,0,1,0,482.478l44.876-18.791q-.565.281,1.262,3.925a41.086,41.086,0,0,0,5.188,7.713,36.86,36.86,0,0,0,8.275,7.293A14.612,14.612,0,0,0,70.118,485a18.719,18.719,0,0,0,9.4-4.207q4.628-3.642,4.347-11.5a14.662,14.662,0,0,0-3.786-8.835,53.871,53.871,0,0,0-9.957-8.555q-14.3-9.531-26.5-16.688a144.329,144.329,0,0,1-21.315-15,60.657,60.657,0,0,1-14.3-17.67Q2.8,392.729,2.805,377.861q0-13.738,5.609-24.12a53.394,53.394,0,0,1,14.865-17.389A67.183,67.183,0,0,1,44.6,325.693a92.982,92.982,0,0,1,24.962-3.926q15.421,0,27.066,4.347a66.154,66.154,0,0,1,19.633,11.079,50.827,50.827,0,0,1,12.48,15.286,56.73,56.73,0,0,1,5.891,16.968L93.4,385.715a48.775,48.775,0,0,0-2.524-6.872,26.088,26.088,0,0,0-4.628-7.012,27.374,27.374,0,0,0-7.012-5.469,19.159,19.159,0,0,0-9.4-2.244A16.56,16.56,0,0,0,59.6,367.624q-4.627,3.511-4.628,10.518a12.507,12.507,0,0,0,4.347,9.4,151.85,151.85,0,0,0,13.6,10.8q12.9,7.3,24.821,14.585a113.781,113.781,0,0,1,21.176,16.548,76.141,76.141,0,0,1,14.865,20.894q5.607,11.643,5.61,27.627Z" transform="translate(0 -37.544)"/>
      <path d="M245.974,484.16q12.055.843,20.053-6.17a46.4,46.4,0,0,0,12.2-16.828L318.9,483.88q-2.523,5.049-7.152,12.9A66.548,66.548,0,0,1,298.7,512.208a75.313,75.313,0,0,1-21.456,13.042q-13.041,5.469-32.114,5.469h-.28q-21.318,0-35.76-6.732a64.548,64.548,0,0,1-23.56-18.09,73.1,73.1,0,0,1-13.323-26.364,142.762,142.762,0,0,1-5.048-31.273V405.067a103.46,103.46,0,0,1,5.189-30.431,81.83,81.83,0,0,1,14.585-26.785,71.82,71.82,0,0,1,24.26-18.932q14.58-7.152,33.937-7.152h.281q17.1,0,29.449,4.768a72.236,72.236,0,0,1,21.176,12.341,65.252,65.252,0,0,1,14.3,17.108,100.943,100.943,0,0,1,8.554,19.073l-40.668,22.718A62.409,62.409,0,0,0,273.6,387.4a42.53,42.53,0,0,0-7.153-9.536,33.991,33.991,0,0,0-9.536-6.731,23.263,23.263,0,0,0-11.219-2.243q-14.3,1.124-22.858,11.358t-8.555,25.664v40.668q0,15.428,8.695,25.944T245.974,484.16Z" transform="translate(0 -37.544)"/>
      <path d="M502.883,447.139a111.585,111.585,0,0,1-4.908,33.936,76.159,76.159,0,0,1-14.305,26.5,62.605,62.605,0,0,1-23.419,17.108q-14.029,6.036-32.535,5.75h-.28q-20.478.276-34.779-6.451a62.286,62.286,0,0,1-23.279-18.371,75.2,75.2,0,0,1-13.042-26.784,121.615,121.615,0,0,1-4.067-31.693V321.486H400.79V443.492a63.8,63.8,0,0,0,1.543,14.3,35.125,35.125,0,0,0,4.908,11.78,25.434,25.434,0,0,0,8.414,7.993,26.16,26.16,0,0,0,24.121,0,24.169,24.169,0,0,0,8.274-7.993,37.189,37.189,0,0,0,4.768-11.78,64.032,64.032,0,0,0,1.542-14.3V321.486h48.523Z" transform="translate(0 -37.544)"/>
      <path d="M717.16,321.767V530.438H667.236V457.516l-25.523,72.922H611.422l-26.084-75.167v75.167H535.414V321.767h47.961l43.192,121.164,43.474-121.164Z" transform="translate(0 -37.544)"/>
    </g>
    <g>
      <path d="M120.581,698.346q13.1,0,22.118,5.383a47.06,47.06,0,0,1,14.7,13.533,57.16,57.16,0,0,1,8.293,17.753,67.784,67.784,0,0,1,2.62,17.752,70.448,70.448,0,0,1-3.638,22.7A56.9,56.9,0,0,1,153.9,794.527a50.168,50.168,0,0,1-17.9,13.1q-10.772,4.8-25.028,4.8H40.261V595.908H90.606q16,0,27.938,4.074t19.5,11.059a45.09,45.09,0,0,1,11.35,16.3,52.937,52.937,0,0,1,3.783,20.08,66.008,66.008,0,0,1-3.056,20.662,58.567,58.567,0,0,1-7.857,16.006,40.109,40.109,0,0,1-10.622,10.476Q125.815,698.35,120.581,698.346Z" transform="translate(0 -37.544)"/>
      <path d="M355.431,725.7a115.781,115.781,0,0,1-5.093,35.213,79,79,0,0,1-14.842,27.5,64.988,64.988,0,0,1-24.3,17.752q-14.556,6.261-33.758,5.966h-.292q-21.246.287-36.085-6.694a64.645,64.645,0,0,1-24.155-19.061,78.07,78.07,0,0,1-13.532-27.792,126.229,126.229,0,0,1-4.22-32.885V595.326H249.5V721.918a66.2,66.2,0,0,0,1.6,14.843,36.459,36.459,0,0,0,5.092,12.222,26.373,26.373,0,0,0,8.731,8.294,27.15,27.15,0,0,0,25.028,0,25.073,25.073,0,0,0,8.585-8.294,38.583,38.583,0,0,0,4.947-12.222,66.49,66.49,0,0,0,1.6-14.843V595.326h50.346Z" transform="translate(0 -37.544)"/>
      <path d="M527.419,595.617v48.891L451.754,763.243h75.665v48.891H389.186V763.243l78.283-118.735H389.186V595.617Z" transform="translate(0 -37.544)"/>
      <path d="M702.319,595.617v48.891L626.654,763.243h75.665v48.891H564.086V763.243l78.283-118.735H564.086V595.617Z" transform="translate(0 -37.544)"/>
    </g>
  </g>
</svg>
