<svg xmlns="http://www.w3.org/2000/svg" width="662.753" height="610.838" viewBox="0 0 662.753 610.838">
  <g>
    <g>
      <path d="M140.517,140.234a163.192,163.192,0,0,1-4.768,39.968,90.392,90.392,0,0,1-15.707,33.236,76.894,76.894,0,0,1-28.608,22.718q-17.67,8.415-43.193,8.414H0V35.9H42.071q24.4,0,42.912,7.995A86.448,86.448,0,0,1,115.835,65.77a91.047,91.047,0,0,1,18.512,33.1A134.68,134.68,0,0,1,140.517,140.234Z" transform="translate(0 -35.898)"/>
      <path d="M284.961,244.57,266.169,189.6H225.5L206.989,244.57h-53.57L214.562,35.9h62.826L338.531,244.57Z" transform="translate(0 -35.898)"/>
      <path d="M438.659,244.57,410.612,176.7h-.561V244.57H362.932V35.9H426.6q17.945,0,29.87,5.47a50.481,50.481,0,0,1,19.072,14.585,56.523,56.523,0,0,1,10.237,21.316,104.35,104.35,0,0,1,3.085,25.663,63.548,63.548,0,0,1-4.627,24.962A70.763,70.763,0,0,1,473.3,146.265a51.093,51.093,0,0,1-12.762,11.218q-6.456,3.788-10.1,3.788l42.351,83.3Z" transform="translate(0 -35.898)"/>
      <path d="M662.753,35.9V83.019h-47.4V244.57h-47.12V83.019h-47.4V35.9Z" transform="translate(0 -35.898)"/>
    </g>
    <g>
      <path d="M75.728,646.736,47.681,578.862h-.562v67.874H0V438.064H63.667q17.946,0,29.87,5.47a50.473,50.473,0,0,1,19.072,14.585,56.539,56.539,0,0,1,10.238,21.316,104.4,104.4,0,0,1,3.085,25.663,63.548,63.548,0,0,1-4.627,24.962,70.748,70.748,0,0,1-10.939,18.371A51.093,51.093,0,0,1,97.6,559.649q-6.454,3.788-10.1,3.788l42.35,83.3Z" transform="translate(0 -35.898)"/>
      <path d="M283.835,646.736l-18.792-54.972H224.374l-18.511,54.972h-53.57l61.143-208.672h62.826l61.143,208.672Z" transform="translate(0 -35.898)"/>
      <path d="M470.353,438.064v47.121h-47.4V646.736H375.834V485.185h-47.4V438.064Z" transform="translate(0 -35.898)"/>
      <path d="M638.915,598.215a41.478,41.478,0,0,1-5.749,18.931,50.785,50.785,0,0,1-14.305,15.426,71.729,71.729,0,0,1-22.016,10.378,103.571,103.571,0,0,1-29.17,3.786,81.138,81.138,0,0,1-23.7-3.365,72.08,72.08,0,0,1-20.054-9.536,61.25,61.25,0,0,1-15.286-15.006,58.511,58.511,0,0,1-9.115-20.054L544.4,579.984q-.564.282,1.262,3.926a41.1,41.1,0,0,0,5.189,7.713,36.876,36.876,0,0,0,8.274,7.293,14.619,14.619,0,0,0,10.518,2.384,18.728,18.728,0,0,0,9.395-4.207q4.628-3.642,4.348-11.5a14.668,14.668,0,0,0-3.786-8.835,53.871,53.871,0,0,0-9.957-8.555q-14.3-9.531-26.5-16.688a144.394,144.394,0,0,1-21.316-15,60.653,60.653,0,0,1-14.3-17.67q-5.193-9.815-5.189-24.682,0-13.738,5.61-24.12a53.407,53.407,0,0,1,14.865-17.39,67.2,67.2,0,0,1,21.315-10.658,92.989,92.989,0,0,1,24.962-3.927q15.421,0,27.067,4.348a66.139,66.139,0,0,1,19.632,11.079,50.84,50.84,0,0,1,12.481,15.285,56.732,56.732,0,0,1,5.89,16.969l-41.229,16.268a48.9,48.9,0,0,0-2.524-6.872,26.136,26.136,0,0,0-4.628-7.012,27.352,27.352,0,0,0-7.012-5.469,19.165,19.165,0,0,0-9.4-2.244,16.56,16.56,0,0,0-10.237,3.506q-4.628,3.511-4.628,10.517a12.5,12.5,0,0,0,4.348,9.4,151.84,151.84,0,0,0,13.6,10.8q12.9,7.3,24.822,14.585a113.74,113.74,0,0,1,21.175,16.548,76.166,76.166,0,0,1,14.866,20.894q5.607,11.643,5.609,27.627Z" transform="translate(0 -35.898)"/>
    </g>
  </g>
</svg>
