<svg xmlns="http://www.w3.org/2000/svg" width="731.536" height="724.269" viewBox="0 0 731.536 724.269">
  <g>
    <rect y="258.022" width="731.536" height="237.741"/>
    <path d="M686.379,224.192c-.838-3.814.464-5.631,3.8-9.687,4.411-5.366,8.83-10.728,13.122-16.188,2.722-3.463,7.688-7.45,7.247-10.585-.7-4.985-4.564-9.93-8.2-13.867-1.148-1.242-5.921.573-8.929,1.382-5.505,1.481-10.993,3.077-16.38,4.938-15.021,5.19-23.075-.078-29.835-8.656-4.981-6.32-3.947-16.649,2.326-26.339,3.243-5.009,6.064-10.294,9.375-15.255,2.43-3.642,2.887-7.594-.76-9.708-4.77-2.765-7.454-11.566-15.712-5.989-5.778,3.9-11.93,7.271-18.009,10.711-8.632,4.885-19.705,4.623-25.837-.438-9.584-7.913-11.821-16.329-7.459-28C593.2,90.948,595,85.266,597.388,79.84c2.623-5.964-.884-9.053-5.155-11.4-3.936-2.167-7.533-7.212-13.041-1.464-4.811,5.02-10.7,9.018-16.119,13.452-13.708,11.211-30.393,6-36.576-6.813-5.406-11.2-.425-21.687.832-32.317.537-4.54,1.817-8.322-3.3-9.477-5.417-1.221-10.7-8.909-16.912-.2-5.742,8.053-11.993,16.063-19.387,22.537-8.562,7.5-26.079,3.977-30.851-6.209-3-6.406-3.747-14.262-3.92-21.506-.346-14.557-.172-14.89-14.368-17.944a41.345,41.345,0,0,1-4.965-1.875c-3.89,7.383-7.766,14.462-11.379,21.671-4.047,8.073-9.958,13.979-19.162,15-10.347,1.144-19.251-2.107-23.393-12.4-2.92-7.252-5.729-14.947-6.355-22.626-.887-10.879-8.283-7.015-13.989-8.06-6.95-1.271-7.886,3.6-9.178,8.128-2.032,7.128-3.029,14.656-5.873,21.425-6.869,16.348-28.854,19.152-37.612,7.183a122.239,122.239,0,0,1-11.356-19.166c-4.659-9.687-5.6-10.218-16.135-7.686-5.338,1.284-7.066,3.884-7.468,9.317-.673,9.118-.736,18.96-4.336,27.04-7.2,16.149-30.82,17.933-42.081.107-4.05-6.411-9-12.259-13.33-18.092-4.95,2.1-9.043,3.4-12.65,5.535-1.754,1.036-3.751,3.676-3.644,5.471a162.15,162.15,0,0,0,2.546,17.61c2.122,12.393-2.082,22.767-10.61,27.974a24.28,24.28,0,0,1-30.593-4.637c-3.645-4.042-8.412-7.054-12.459-10.763-6.393-5.86-10.951.246-15.026,3.062-2.322,1.606-3.4,7.075-2.786,10.392,1.1,5.986,3.888,11.664,5.979,17.468,3.259,9.047,1.586,17.441-5.427,23.645-7.9,6.988-17.351,9.8-27.6,4.558a155.057,155.057,0,0,1-14.937-8.464c-9.75-6.44-13.515-6.093-19.771,3.657-1.283,2-1,6.038.149,8.359,3.51,7.111,8.514,13.534,11.621,20.787,6.937,16.195-4.916,33.276-22.34,31.542-9.479-.943-18.61-5.06-28.028-7.159-2.088-.466-5.981.871-6.867,2.533-2.2,4.13-9.3,7.12-5.162,13.1,4.48,6.466,10.317,11.981,14.984,18.334,3.495,4.759,5.488,8.748,5.973,12.588,6.584.022,93.456-.107,98.421.17,8.45-9.34,17.132-18.495,26.22-27.195,22.749-21.775,49.2-38.345,77.71-51.368,11.111-5.076,23.312-8.065,35.3-10.777,3.7-.838,9.381,1.226,12.352,3.932,14.417,13.134,31.39,12.667,48.859,10.493,7.125-.887,14.187-2.614,21.326-2.967,10.163-.5,17.544-6.423,23.438-13.058,10.739-12.089,22.777-13.336,37.856-10.682a298.185,298.185,0,0,1,66.9,20.415c25.488,11.02,49.435,24.917,70.046,43.612,12.567,11.4,25.227,24.955,36.443,37.645C598.66,224.093,672.969,224.744,686.379,224.192ZM328.547,126.511c-16.352-.767-28.143-11.322-27.388-25.454,1.019-19.066,16.268-30.179,33.8-29.226,16.755.912,25.713,12.148,25,31.3C359.542,114.181,342.125,127.149,328.547,126.511ZM676.607,556.58a24.686,24.686,0,0,1,.672-25.246c-3.579-.31-105.409-.21-113.794-.214-25.266,19.222-52.878,34.809-83.22,45.513-3.88,1.369-8.149,1.639-14.272,2.807-5.156-2.361-12.377-4.133-17.56-8.383-8.774-7.193-17.872-11.965-29.342-11.014-15.7,1.3-31.619,1.666-46.972,4.762-7.273,1.466-14.72,7.209-19.867,12.986C341.3,590.081,329.333,595.37,313,590.446c-18.737-5.647-38.149-9.3-56.5-15.929-24.99-9.033-48.449-27.542-69.7-43.146-5.228-.291-116.2-.508-123.76-.4,3.1,5.069,5.5,12.193,3.33,18.2-3.235,8.948-8.25,17.365-13.26,25.534-5.286,8.621-5.476,10.29,2.1,17.186.928.845,1.843,1.7,2.76,2.559,3.664,3.418,6.914,4.329,11.715.9,6.772-4.832,14.3-8.656,21.712-12.53,8.052-4.211,16.572-4.633,23.7,1.341,8.163,6.839,12.284,15.575,8.167,26.655-2.9,7.806-4.713,16.062-8.126,23.615-2.769,6.127.458,9.1,4.562,11.272,4.725,2.5,9.1,9.1,15.675,2.789a198.505,198.505,0,0,1,15.462-13.9c9.179-7.128,19.479-12.395,30.7-5.41,9.167,5.706,12.722,15.186,11.33,25.985-.768,5.957-2.276,11.819-3.432,17.727-1.159,5.927-2.8,11.251,5.475,14.525,11.223,4.443,13.629,4.849,19.09-2.529,3.575-4.829,6.466-10.321,10.7-14.461,4.581-4.479,9.881-9.715,15.719-11.136,15.294-3.721,26.832,6.152,28.309,20.866.863,8.589,1.781,17.217,1.805,25.83.013,4.778,1.764,6.68,6.045,7.415,2.3.395,4.5,1.4,6.8,1.77,5.319.843,9.131.388,11.71-6.089a102.572,102.572,0,0,1,14.048-25.1c10.553-13.491,29.381-12.058,37.5,2.338,4.695,8.322,6.318,18.519,8.5,28.06,1.773,7.75,6.139,10.089,13.591,9.88,7.5-.21,10.59-3.779,12.5-10.755a156.781,156.781,0,0,1,10.432-28.491c4.512-9.043,19.09-12.068,28.394-8.069,11.366,4.885,14.039,15.746,18.563,25.294,6.284,13.261,6.049,13.067,19.864,11.9,5.888-.5,7.824-3.159,7.957-8.521.184-7.457.567-14.913,1.052-22.357.718-11.025,8.7-20.756,18.857-23.241,11.052-2.7,21.811,1.724,28.063,11.263,3.156,4.815,7.365,9.043,9.926,14.125,4.512,8.951,10.543,7.135,17.253,3.577,1.852-.982,3.923-1.8,5.363-3.23,1.16-1.15,2.288-3.2,2.1-4.684-.74-5.915-2.673-11.739-2.9-17.645-.279-7.311-1.249-15.517,1.512-21.844,7.272-16.663,28.542-19.264,41.468-6.3,4.814,4.827,10.51,8.81,15.1,13.821,5.987,6.535,10.37,1.569,14.99-1.387,4.872-3.117,6.917-6.778,4.44-13.258-4.249-11.116-9.835-22.018-8.034-34.778,1.692-12,16.813-22.953,28-18.437,10.08,4.068,19.605,9.645,29.041,15.131,8.241,4.791,10.567-3.242,15.037-6.308,3.824-2.622,4.809-6.3,2-10.814C685.1,571.844,680.869,564.2,676.607,556.58Zm-273.361,95.2c-15.89-.549-31.722-14.741-30.451-32.96,1.216-17.406,17.245-33.3,33.485-32.426,15.534.839,32.314,15.933,29.554,33.834C434.964,638.265,420.254,652.367,403.246,651.779Z"/>
  </g>
</svg>
