<svg xmlns="http://www.w3.org/2000/svg" width="270" height="612" viewBox="0 0 270 612">
  <g>
    <rect width="270" height="612" fill="#fea621"/>
    <g>
      <g>
        <path d="M66.131,71.6a36.23,36.23,0,0,1-8.871-1.058,20.055,20.055,0,0,1-7.377-3.486A17.077,17.077,0,0,1,44.84,60.7a22.19,22.19,0,0,1-1.867-9.587V40.409H89.289v9.338a23.864,23.864,0,0,1-1.774,9.524,19.2,19.2,0,0,1-4.856,6.848,20.2,20.2,0,0,1-7.346,4.108A29.872,29.872,0,0,1,66.131,71.6Z"/>
        <path d="M78.83,103.719V85.79H71.36v13.2H60.9V85.79h-7.47v17.929H42.973V75.332H89.289v28.387Z"/>
        <path d="M55.174,129.8v-9.026l-12.2-4.109v-11.89l46.316,13.571v13.944L42.973,145.863v-11.89Z"/>
        <path d="M66.131,178.421a36.23,36.23,0,0,1-8.871-1.058,20.041,20.041,0,0,1-7.377-3.487,17.065,17.065,0,0,1-5.043-6.349,22.19,22.19,0,0,1-1.867-9.587V147.232H89.289v9.338a23.866,23.866,0,0,1-1.774,9.525,19.2,19.2,0,0,1-4.856,6.848,20.213,20.213,0,0,1-7.346,4.108A29.872,29.872,0,0,1,66.131,178.421Z"/>
        <path d="M78.83,227.1V209.173H71.36v13.2H60.9v-13.2H42.973V198.714H89.289V227.1Z"/>
        <path d="M61.462,262.087A24.721,24.721,0,0,1,53.929,261a16.9,16.9,0,0,1-5.883-3.174,13.9,13.9,0,0,1-3.8-5.2,17.469,17.469,0,0,1-1.276-7.222v-.062a17.463,17.463,0,0,1,1.431-7.719,13.835,13.835,0,0,1,4.078-5.167,16.7,16.7,0,0,1,5.945-2.9,27,27,0,0,1,7.035-.9H89.351v10.77H62.272a14.2,14.2,0,0,0-3.176.342,7.805,7.805,0,0,0-2.614,1.09,5.647,5.647,0,0,0-1.775,1.867,5.814,5.814,0,0,0,0,5.354,5.374,5.374,0,0,0,1.775,1.837,8.249,8.249,0,0,0,2.614,1.058,14.2,14.2,0,0,0,3.176.342H89.351v10.77Z"/>
        <path d="M53.244,282.381a5.85,5.85,0,0,0,1.37,4.451,10.293,10.293,0,0,0,3.735,2.708l-5.042,9.027q-1.12-.561-2.864-1.588a14.729,14.729,0,0,1-3.423-2.895,16.7,16.7,0,0,1-2.9-4.762,18.468,18.468,0,0,1-1.214-7.128v-.062A18.74,18.74,0,0,1,44.4,274.2a14.332,14.332,0,0,1,4.016-5.23,16.236,16.236,0,0,1,5.852-2.957,31.684,31.684,0,0,1,6.941-1.12H70.8a22.986,22.986,0,0,1,6.754,1.151,18.178,18.178,0,0,1,5.945,3.238,15.923,15.923,0,0,1,4.2,5.385,16.9,16.9,0,0,1,1.588,7.532v.062a18.152,18.152,0,0,1-1.058,6.537,16.049,16.049,0,0,1-2.74,4.7,14.462,14.462,0,0,1-3.8,3.175,22.509,22.509,0,0,1-4.233,1.9l-5.043-9.027a13.813,13.813,0,0,0,2.3-1.027,9.408,9.408,0,0,0,2.116-1.588,7.512,7.512,0,0,0,1.494-2.116,5.16,5.16,0,0,0,.5-2.49,7.042,7.042,0,0,0-2.521-5.074,8.577,8.577,0,0,0-5.7-1.9H61.586a8.735,8.735,0,0,0-5.758,1.93A7.057,7.057,0,0,0,53.244,282.381Z"/>
        <path d="M89.289,332.493,66.068,315.249,42.973,332.431V319.482L53,312.013H42.973V301.554H89.289v10.459H78.519l10.77,7.532Z"/>
        <path d="M89.289,345.69H42.973V335.232H89.289Z"/>
        <path d="M89.289,371.837v11.081H42.973V372.335l22.784-12.45H42.973V348.8H89.289v10.644L66.566,371.837Z"/>
        <path d="M51.564,418.65a22.665,22.665,0,0,1-3.269-2.833,19.338,19.338,0,0,1-2.77-3.673,19.932,19.932,0,0,1-1.9-4.451,17.926,17.926,0,0,1-.716-5.1v-.063a18.385,18.385,0,0,1,1.37-7.345,14.831,14.831,0,0,1,3.8-5.323,17.28,17.28,0,0,1,5.79-3.331,24.294,24.294,0,0,1,7.346-1.307H70.8a22.3,22.3,0,0,1,7.1,1.121,17.162,17.162,0,0,1,5.882,3.3,15.774,15.774,0,0,1,4.016,5.415,17.65,17.65,0,0,1,1.494,7.47v.063a17.771,17.771,0,0,1-1.463,6.879,14.3,14.3,0,0,1-2.957,4.233,13.513,13.513,0,0,1-3.362,2.4,22.378,22.378,0,0,0-2.614,1.431l-5.665-8.591q.684-.312,1.556-.715A6.017,6.017,0,0,0,76.4,407.1a6.423,6.423,0,0,0,1.277-1.774,6,6,0,0,0,.529-2.677,6.258,6.258,0,0,0-2.086-4.949,8.029,8.029,0,0,0-5.509-1.837H61.586a8.708,8.708,0,0,0-3.144.561,7.326,7.326,0,0,0-4.139,3.8,6.577,6.577,0,0,0-.623,2.864,6.385,6.385,0,0,0,.747,3.517,5.47,5.47,0,0,0,2.055,2.023h2.3v-4.918h8.964V418.65Z"/>
        <path d="M53.431,450.148v12.389H42.973V439.69H89.289v10.458Z"/>
        <path d="M55.174,488.5v-9.027l-12.2-4.109V463.47l46.316,13.571v13.944L42.973,504.557v-11.89Z"/>
        <path d="M53.742,536.865a9.205,9.205,0,0,1-4.2-1.276,11.28,11.28,0,0,1-3.424-3.175,15.911,15.911,0,0,1-2.3-4.887,22.959,22.959,0,0,1-.841-6.474,18,18,0,0,1,.747-5.26,16.005,16.005,0,0,1,2.116-4.451,13.6,13.6,0,0,1,3.331-3.393,12.986,12.986,0,0,1,4.451-2.023l4.171,9.96c-.042-.083-.333.009-.872.28a9.125,9.125,0,0,0-1.712,1.152,8.229,8.229,0,0,0-1.618,1.836,3.24,3.24,0,0,0-.529,2.335,4.153,4.153,0,0,0,.933,2.085,2.91,2.91,0,0,0,2.553.965,3.256,3.256,0,0,0,1.961-.84,11.941,11.941,0,0,0,1.9-2.21q2.117-3.176,3.7-5.883a32,32,0,0,1,3.332-4.731A13.44,13.44,0,0,1,71.36,507.7a11.642,11.642,0,0,1,5.478-1.152,11.084,11.084,0,0,1,5.353,1.245,11.864,11.864,0,0,1,3.861,3.3,14.9,14.9,0,0,1,2.365,4.731,20.63,20.63,0,0,1,.872,5.54,17.143,17.143,0,0,1-.965,6.008,14.666,14.666,0,0,1-2.459,4.357,11.3,11.3,0,0,1-3.393,2.771,12.59,12.59,0,0,1-3.766,1.307L75.1,526.656a10.845,10.845,0,0,0,1.525-.56,5.787,5.787,0,0,0,1.557-1.028,6.081,6.081,0,0,0,1.214-1.556,4.247,4.247,0,0,0,.5-2.085,3.676,3.676,0,0,0-.779-2.273,2.745,2.745,0,0,0-2.334-1.027,2.778,2.778,0,0,0-2.086.965,33.858,33.858,0,0,0-2.4,3.019q-1.62,2.862-3.237,5.51a25.3,25.3,0,0,1-3.673,4.7,16.907,16.907,0,0,1-4.638,3.3,14,14,0,0,1-6.132,1.245Z"/>
        <path d="M89.289,569.673H78.83V559.152H42.973V548.693H78.83v-10.52H89.289Z"/>
      </g>
      <g>
        <path d="M190.3,540.6a36.231,36.231,0,0,1,8.871,1.057,20.055,20.055,0,0,1,7.377,3.486,17.085,17.085,0,0,1,5.043,6.35,22.19,22.19,0,0,1,1.867,9.587v10.707H167.139V562.45a23.864,23.864,0,0,1,1.774-9.524,19.19,19.19,0,0,1,4.856-6.848,20.213,20.213,0,0,1,7.346-4.108A29.9,29.9,0,0,1,190.3,540.6Z"/>
        <path d="M177.6,508.477v17.93h7.469v-13.2h10.459v13.2H203v-17.93h10.458v28.388H167.139V508.477Z"/>
        <path d="M201.254,482.4v9.026l12.2,4.109v11.891L167.139,493.85V479.905l46.316-13.571v11.89Z"/>
        <path d="M190.3,433.776a36.23,36.23,0,0,1,8.871,1.059,20.024,20.024,0,0,1,7.377,3.486,17.069,17.069,0,0,1,5.043,6.35,22.182,22.182,0,0,1,1.867,9.586v10.708H167.139v-9.338a23.869,23.869,0,0,1,1.774-9.525,19.186,19.186,0,0,1,4.856-6.847,20.232,20.232,0,0,1,7.346-4.11A29.9,29.9,0,0,1,190.3,433.776Z"/>
        <path d="M177.6,385.1v17.929h7.469v-13.2h10.459v13.2h17.929v10.459H167.139V385.1Z"/>
        <path d="M194.966,350.11a24.751,24.751,0,0,1,7.533,1.09,16.921,16.921,0,0,1,5.883,3.174,13.9,13.9,0,0,1,3.8,5.2,17.472,17.472,0,0,1,1.276,7.222v.062a17.449,17.449,0,0,1-1.432,7.719,13.818,13.818,0,0,1-4.078,5.167,16.7,16.7,0,0,1-5.944,2.9,27.046,27.046,0,0,1-7.035.9H167.077V372.77h27.079a14.205,14.205,0,0,0,3.176-.342,7.8,7.8,0,0,0,2.614-1.089,5.66,5.66,0,0,0,1.775-1.868,5.816,5.816,0,0,0,0-5.355,5.4,5.4,0,0,0-1.775-1.836,8.249,8.249,0,0,0-2.614-1.058,14.264,14.264,0,0,0-3.176-.342H167.077V350.11Z"/>
        <path d="M203.184,329.816a5.85,5.85,0,0,0-1.37-4.451,10.313,10.313,0,0,0-3.735-2.708l5.042-9.027q1.12.561,2.863,1.588a14.756,14.756,0,0,1,3.424,2.894,16.74,16.74,0,0,1,2.9,4.763A18.49,18.49,0,0,1,213.518,330v.062a18.732,18.732,0,0,1-1.5,7.938,14.314,14.314,0,0,1-4.015,5.228,16.2,16.2,0,0,1-5.852,2.957,31.685,31.685,0,0,1-6.941,1.122h-9.587a22.956,22.956,0,0,1-6.754-1.153,18.145,18.145,0,0,1-5.945-3.236,15.943,15.943,0,0,1-4.2-5.385A16.906,16.906,0,0,1,167.139,330v-.063A18.15,18.15,0,0,1,168.2,323.4a16.018,16.018,0,0,1,2.74-4.7,14.494,14.494,0,0,1,3.8-3.175,22.545,22.545,0,0,1,4.234-1.9l5.043,9.027a13.821,13.821,0,0,0-2.3,1.028,9.375,9.375,0,0,0-2.116,1.587,7.517,7.517,0,0,0-1.494,2.117,5.154,5.154,0,0,0-.5,2.489,7.042,7.042,0,0,0,2.521,5.074,8.577,8.577,0,0,0,5.7,1.9h9.027a8.735,8.735,0,0,0,5.758-1.93A7.055,7.055,0,0,0,203.184,329.816Z"/>
        <path d="M167.139,279.7l23.22,17.244,23.1-17.181v12.948l-10.022,7.47h10.022v10.458H167.139V300.185h10.77l-10.77-7.533Z"/>
        <path d="M167.139,266.507h46.316v10.458H167.139Z"/>
        <path d="M167.139,240.36V229.279h46.316v10.583l-22.784,12.45h22.784v11.081H167.139V252.749l22.722-12.389Z"/>
        <path d="M204.864,193.547a22.718,22.718,0,0,1,3.269,2.833,19.333,19.333,0,0,1,2.769,3.673,19.934,19.934,0,0,1,1.9,4.451,17.961,17.961,0,0,1,.716,5.1v.063a18.393,18.393,0,0,1-1.37,7.346,14.848,14.848,0,0,1-3.8,5.322,17.28,17.28,0,0,1-5.79,3.331,24.3,24.3,0,0,1-7.346,1.307h-9.587a22.3,22.3,0,0,1-7.1-1.121,17.191,17.191,0,0,1-5.883-3.3,15.8,15.8,0,0,1-4.015-5.415,17.657,17.657,0,0,1-1.494-7.471v-.063a17.771,17.771,0,0,1,1.463-6.879,14.314,14.314,0,0,1,2.957-4.233,13.507,13.507,0,0,1,3.362-2.4,22.511,22.511,0,0,0,2.614-1.432l5.665,8.591q-.684.312-1.556.716a6,6,0,0,0-1.619,1.12,6.42,6.42,0,0,0-1.276,1.774,6,6,0,0,0-.529,2.677,6.258,6.258,0,0,0,2.086,4.949,8.029,8.029,0,0,0,5.509,1.837h9.027a8.7,8.7,0,0,0,3.143-.561,7.326,7.326,0,0,0,4.14-3.8,6.584,6.584,0,0,0,.623-2.865,6.385,6.385,0,0,0-.747-3.517,5.477,5.477,0,0,0-2.055-2.023h-2.3v4.918h-8.964V193.547Z"/>
        <path d="M203,162.049V149.66h10.458v22.847H167.139V162.049Z"/>
        <path d="M201.254,123.7v9.027l12.2,4.109v11.89l-46.316-13.571V121.212l46.316-13.571V119.53Z"/>
        <path d="M202.686,75.332a9.205,9.205,0,0,1,4.2,1.276,11.3,11.3,0,0,1,3.424,3.175,15.911,15.911,0,0,1,2.3,4.887,22.959,22.959,0,0,1,.841,6.474,18,18,0,0,1-.747,5.26,16.005,16.005,0,0,1-2.116,4.451,13.6,13.6,0,0,1-3.331,3.393,12.967,12.967,0,0,1-4.451,2.023l-4.171-9.96c.042.083.333-.009.872-.28a9.125,9.125,0,0,0,1.712-1.152,8.229,8.229,0,0,0,1.618-1.836,3.245,3.245,0,0,0,.529-2.335,4.157,4.157,0,0,0-.933-2.085,2.91,2.91,0,0,0-2.553-.965,3.254,3.254,0,0,0-1.961.84,12.013,12.013,0,0,0-1.9,2.21q-2.115,3.175-3.7,5.883a31.94,31.94,0,0,1-3.331,4.731,13.431,13.431,0,0,1-3.922,3.175,11.622,11.622,0,0,1-5.477,1.152,11.091,11.091,0,0,1-5.354-1.245,11.859,11.859,0,0,1-3.86-3.3,14.9,14.9,0,0,1-2.365-4.731,20.63,20.63,0,0,1-.872-5.54,17.143,17.143,0,0,1,.965-6.008,14.644,14.644,0,0,1,2.459-4.357,11.286,11.286,0,0,1,3.393-2.771,12.587,12.587,0,0,1,3.766-1.306l3.611,9.15a10.845,10.845,0,0,0-1.525.56,5.811,5.811,0,0,0-1.557,1.028,6.059,6.059,0,0,0-1.214,1.556,4.247,4.247,0,0,0-.5,2.085,3.681,3.681,0,0,0,.778,2.273,2.748,2.748,0,0,0,2.334,1.027,2.776,2.776,0,0,0,2.086-.965,33.647,33.647,0,0,0,2.4-3.019q1.62-2.862,3.237-5.51a25.3,25.3,0,0,1,3.673-4.7,16.907,16.907,0,0,1,4.638-3.3,14,14,0,0,1,6.132-1.245Z"/>
        <path d="M167.139,42.524H177.6V53.045h35.857V63.5H177.6v10.52H167.139Z"/>
      </g>
    </g>
  </g>
</svg>
