<svg xmlns="http://www.w3.org/2000/svg" width="270" height="612" viewBox="0 0 270 612">
  <g>
    <rect width="270" height="612" fill="#fea621"/>
    <g>
      <g>
        <path d="M84.544,99.354V72.241h-11.3V92.2H57.431V72.241H30.316V56.424H100.36v42.93Z"/>
        <path d="M100.36,119.312H30.316V103.5H100.36Z"/>
        <path d="M30.316,151.228,53.1,141.813v-.188H30.316V125.809H100.36V147.18a24.04,24.04,0,0,1-1.836,10.026,16.934,16.934,0,0,1-4.895,6.4,18.986,18.986,0,0,1-7.154,3.436,35.051,35.051,0,0,1-8.616,1.036,21.323,21.323,0,0,1-8.378-1.554,23.72,23.72,0,0,1-6.166-3.671,17.125,17.125,0,0,1-3.766-4.284,7.485,7.485,0,0,1-1.272-3.389L30.316,169.4Z"/>
        <path d="M46.6,219.106a13.934,13.934,0,0,1-6.355-1.93,17.065,17.065,0,0,1-5.179-4.8,24.126,24.126,0,0,1-3.483-7.39,34.787,34.787,0,0,1-1.271-9.791,27.244,27.244,0,0,1,1.13-7.956,24.166,24.166,0,0,1,3.2-6.731,20.549,20.549,0,0,1,5.036-5.131,19.648,19.648,0,0,1,6.731-3.06l6.308,15.064q-.095-.19-1.318.423a13.838,13.838,0,0,0-2.589,1.742,12.385,12.385,0,0,0-2.448,2.777,4.908,4.908,0,0,0-.8,3.53,6.286,6.286,0,0,0,1.413,3.155,4.4,4.4,0,0,0,3.859,1.459,4.924,4.924,0,0,0,2.966-1.271,18.052,18.052,0,0,0,2.871-3.343q3.2-4.8,5.6-8.9a48.6,48.6,0,0,1,5.037-7.155,20.382,20.382,0,0,1,5.932-4.8,17.594,17.594,0,0,1,8.284-1.741,16.747,16.747,0,0,1,8.1,1.883,17.919,17.919,0,0,1,5.837,4.989,22.547,22.547,0,0,1,3.578,7.156,31.185,31.185,0,0,1,1.317,8.379,25.9,25.9,0,0,1-1.459,9.084,22.2,22.2,0,0,1-3.718,6.591,17.071,17.071,0,0,1-5.131,4.189,19.05,19.05,0,0,1-5.7,1.977L78.9,203.666a16.458,16.458,0,0,0,2.306-.848,8.746,8.746,0,0,0,2.354-1.553,9.2,9.2,0,0,0,1.836-2.353,6.43,6.43,0,0,0,.753-3.154,5.561,5.561,0,0,0-1.177-3.437,4.151,4.151,0,0,0-3.53-1.553,4.2,4.2,0,0,0-3.155,1.459,51.223,51.223,0,0,0-3.624,4.566q-2.45,4.329-4.9,8.332a38.217,38.217,0,0,1-5.555,7.108,25.565,25.565,0,0,1-7.014,4.99,21.186,21.186,0,0,1-9.273,1.883Z"/>
        <path d="M100.36,270.6H84.544V254.692H30.316V238.876H84.544V222.965H100.36Z"/>
        <path d="M100.36,323.889a20.3,20.3,0,0,1-1.6,8.19,17.483,17.483,0,0,1-4.566,6.261,20.9,20.9,0,0,1-7.155,4,29.231,29.231,0,0,1-9.367,1.412,28.477,28.477,0,0,1-9.227-1.412,21.489,21.489,0,0,1-7.155-4,17.7,17.7,0,0,1-4.66-6.261,19.774,19.774,0,0,1-1.648-8.19v-5.273H30.316v-16.1H100.36v21.372Z"/>
        <path d="M46.133,365.123v18.735H30.316V349.307H100.36v15.816Z"/>
        <path d="M48.769,425V411.349l-18.453-6.213V387.153l70.044,20.525v21.088L30.316,449.29V431.308Z"/>
        <path d="M45.851,475.649a8.838,8.838,0,0,0,2.071,6.732,15.556,15.556,0,0,0,5.648,4.1l-7.626,13.652q-1.694-.849-4.33-2.4a22.364,22.364,0,0,1-5.178-4.376,25.3,25.3,0,0,1-4.378-7.2,27.921,27.921,0,0,1-1.835-10.78v-.094a28.362,28.362,0,0,1,2.259-12,21.672,21.672,0,0,1,6.072-7.908A24.544,24.544,0,0,1,47.4,450.89,47.888,47.888,0,0,1,57.9,449.2H72.4a34.739,34.739,0,0,1,10.215,1.741,27.507,27.507,0,0,1,8.992,4.9,24.123,24.123,0,0,1,6.354,8.144,25.564,25.564,0,0,1,2.4,11.391v.095a27.458,27.458,0,0,1-1.6,9.885,24.266,24.266,0,0,1-4.142,7.108,21.908,21.908,0,0,1-5.743,4.8,33.911,33.911,0,0,1-6.4,2.872l-7.625-13.652a20.878,20.878,0,0,0,3.483-1.553,14.221,14.221,0,0,0,3.2-2.4,11.369,11.369,0,0,0,2.26-3.2,7.792,7.792,0,0,0,.753-3.765,10.645,10.645,0,0,0-3.812-7.673,12.98,12.98,0,0,0-8.615-2.871H58.466a13.2,13.2,0,0,0-8.708,2.918A10.661,10.661,0,0,0,45.851,475.649Z"/>
        <path d="M84.544,549.459V522.345h-11.3V542.3H57.431V522.345h-11.3v27.114H30.316V506.528H100.36v42.931Z"/>
      </g>
      <g>
        <path d="M174.527,512.647v27.114h11.3V519.8h15.817v19.959h27.114v15.816H158.711v-42.93Z"/>
        <path d="M158.711,492.688h70.044v15.817H158.711Z"/>
        <path d="M228.755,460.773l-22.783,9.415v.188h22.783v15.816H158.711V464.821a24.035,24.035,0,0,1,1.836-10.025,16.94,16.94,0,0,1,4.9-6.4,18.983,18.983,0,0,1,7.155-3.436,35.037,35.037,0,0,1,8.615-1.036,21.307,21.307,0,0,1,8.379,1.555,23.735,23.735,0,0,1,6.166,3.67,17.148,17.148,0,0,1,3.766,4.285,7.49,7.49,0,0,1,1.271,3.388L228.755,442.6Z"/>
        <path d="M212.468,392.9a13.926,13.926,0,0,1,6.354,1.93,17.066,17.066,0,0,1,5.179,4.8,24.086,24.086,0,0,1,3.483,7.391,34.777,34.777,0,0,1,1.271,9.791,27.249,27.249,0,0,1-1.13,7.956,24.171,24.171,0,0,1-3.2,6.73,20.567,20.567,0,0,1-5.036,5.131,19.642,19.642,0,0,1-6.732,3.06l-6.307-15.064c.062.127.5-.014,1.317-.423a13.8,13.8,0,0,0,2.589-1.741,12.429,12.429,0,0,0,2.448-2.777,4.907,4.907,0,0,0,.8-3.532A6.293,6.293,0,0,0,212.091,413a4.4,4.4,0,0,0-3.859-1.459,4.923,4.923,0,0,0-2.966,1.272,17.994,17.994,0,0,0-2.871,3.341q-3.2,4.8-5.6,8.9a48.537,48.537,0,0,1-5.037,7.156,20.366,20.366,0,0,1-5.932,4.8,17.594,17.594,0,0,1-8.284,1.742,16.764,16.764,0,0,1-8.1-1.883,17.943,17.943,0,0,1-5.836-4.99,22.544,22.544,0,0,1-3.579-7.155,31.2,31.2,0,0,1-1.317-8.379,25.9,25.9,0,0,1,1.459-9.085,22.213,22.213,0,0,1,3.719-6.59,17.026,17.026,0,0,1,5.131-4.189,19.016,19.016,0,0,1,5.7-1.978l5.46,13.839a16.467,16.467,0,0,0-2.307.848,8.765,8.765,0,0,0-2.353,1.553,9.181,9.181,0,0,0-1.836,2.354,6.426,6.426,0,0,0-.753,3.153,5.56,5.56,0,0,0,1.177,3.438,4.149,4.149,0,0,0,3.53,1.552,4.2,4.2,0,0,0,3.154-1.459,51.075,51.075,0,0,0,3.624-4.566q2.449-4.329,4.9-8.332a38.2,38.2,0,0,1,5.554-7.108,25.6,25.6,0,0,1,7.014-4.99,21.189,21.189,0,0,1,9.273-1.883Z"/>
        <path d="M158.711,341.4h15.816V357.31h54.228v15.816H174.527v15.91H158.711Z"/>
        <path d="M158.711,288.113a20.285,20.285,0,0,1,1.6-8.19,17.469,17.469,0,0,1,4.565-6.261,20.879,20.879,0,0,1,7.155-4,29.231,29.231,0,0,1,9.367-1.412,28.477,28.477,0,0,1,9.227,1.412,21.444,21.444,0,0,1,7.155,4,17.691,17.691,0,0,1,4.66,6.261,19.774,19.774,0,0,1,1.648,8.19v5.273h24.666v16.1H158.711V288.113Z"/>
        <path d="M212.939,246.879V228.143h15.816V262.7H158.711V246.879Z"/>
        <path d="M210.3,187v13.651l18.452,6.213v17.983l-70.044-20.525V183.236l70.044-20.524v17.982Z"/>
        <path d="M213.221,136.352a8.838,8.838,0,0,0-2.072-6.731,15.57,15.57,0,0,0-5.648-4.1l7.626-13.651q1.695.847,4.33,2.4a22.349,22.349,0,0,1,5.179,4.377,25.342,25.342,0,0,1,4.378,7.2,27.945,27.945,0,0,1,1.835,10.781v.093a28.356,28.356,0,0,1-2.259,12,21.686,21.686,0,0,1-6.072,7.909,24.548,24.548,0,0,1-8.85,4.471,47.868,47.868,0,0,1-10.5,1.695h-14.5a34.713,34.713,0,0,1-10.215-1.742,27.492,27.492,0,0,1-8.991-4.9,24.113,24.113,0,0,1-6.355-8.144,25.577,25.577,0,0,1-2.4-11.391v-.095a27.435,27.435,0,0,1,1.6-9.885,24.238,24.238,0,0,1,4.141-7.108,21.924,21.924,0,0,1,5.743-4.8,33.793,33.793,0,0,1,6.4-2.872l7.625,13.651a21.013,21.013,0,0,0-3.484,1.554,14.292,14.292,0,0,0-3.2,2.4,11.429,11.429,0,0,0-2.26,3.2,7.815,7.815,0,0,0-.753,3.765,10.647,10.647,0,0,0,3.813,7.673,12.977,12.977,0,0,0,8.614,2.871h13.652a13.211,13.211,0,0,0,8.708-2.918A10.665,10.665,0,0,0,213.221,136.352Z"/>
        <path d="M174.527,62.543V89.657h11.3V69.7h15.817V89.657h11.3V62.543h15.816v42.931H158.711V62.543Z"/>
      </g>
    </g>
  </g>
</svg>
