<svg xmlns="http://www.w3.org/2000/svg" width="270" height="612" viewBox="0 0 270 612">
  <g>
    <rect width="270" height="612" fill="#fea621"/>
    <g>
      <g>
        <path d="M49.615,96.76A11.44,11.44,0,0,1,44.4,95.175a14.007,14.007,0,0,1-4.252-3.944,19.8,19.8,0,0,1-2.862-6.07,28.561,28.561,0,0,1-1.044-8.042,22.39,22.39,0,0,1,.928-6.534A19.885,19.885,0,0,1,39.8,65.057a16.889,16.889,0,0,1,4.137-4.214,16.113,16.113,0,0,1,5.529-2.513L54.642,70.7q-.078-.156-1.083.347a11.322,11.322,0,0,0-2.126,1.431,10.162,10.162,0,0,0-2.011,2.281,4.028,4.028,0,0,0-.657,2.9,5.154,5.154,0,0,0,1.16,2.59,3.616,3.616,0,0,0,3.17,1.2,4.046,4.046,0,0,0,2.435-1.044,14.867,14.867,0,0,0,2.359-2.745q2.628-3.943,4.6-7.308a39.82,39.82,0,0,1,4.137-5.876A16.725,16.725,0,0,1,71.5,60.533a14.457,14.457,0,0,1,6.8-1.43,13.769,13.769,0,0,1,6.649,1.546,14.741,14.741,0,0,1,4.8,4.1,18.537,18.537,0,0,1,2.938,5.877,25.606,25.606,0,0,1,1.083,6.882,21.307,21.307,0,0,1-1.2,7.462,18.222,18.222,0,0,1-3.054,5.412A14.019,14.019,0,0,1,85.3,93.821a15.651,15.651,0,0,1-4.679,1.624L76.138,84.079a13.573,13.573,0,0,0,1.894-.7,7.212,7.212,0,0,0,1.933-1.276,7.563,7.563,0,0,0,1.508-1.933,5.284,5.284,0,0,0,.619-2.591,4.566,4.566,0,0,0-.967-2.822,3.41,3.41,0,0,0-2.9-1.276,3.447,3.447,0,0,0-2.591,1.2,41.963,41.963,0,0,0-2.977,3.75q-2.013,3.555-4.021,6.843a31.393,31.393,0,0,1-4.562,5.838,20.99,20.99,0,0,1-5.76,4.1A17.39,17.39,0,0,1,50.7,96.76Z"/>
        <path d="M80.777,135.885V113.616H71.5v16.393H58.508V113.616H49.229v22.269H36.238v-35.26h57.53v35.26Z"/>
        <path d="M49,162.639a7.262,7.262,0,0,0,1.7,5.528,12.779,12.779,0,0,0,4.639,3.364l-6.263,11.212q-1.391-.7-3.556-1.972a18.309,18.309,0,0,1-4.253-3.6,20.726,20.726,0,0,1-3.6-5.915,22.913,22.913,0,0,1-1.508-8.853v-.078a23.275,23.275,0,0,1,1.856-9.859,17.8,17.8,0,0,1,4.987-6.5,20.17,20.17,0,0,1,7.269-3.673,39.32,39.32,0,0,1,8.622-1.391H70.8a28.459,28.459,0,0,1,8.389,1.43,22.543,22.543,0,0,1,7.385,4.021,19.8,19.8,0,0,1,5.22,6.688,21.015,21.015,0,0,1,1.972,9.357v.077a22.541,22.541,0,0,1-1.315,8.119,19.93,19.93,0,0,1-3.4,5.838,17.979,17.979,0,0,1-4.717,3.943,27.79,27.79,0,0,1-5.258,2.359l-6.263-11.212a17.242,17.242,0,0,0,2.861-1.276,11.716,11.716,0,0,0,2.629-1.972,9.365,9.365,0,0,0,1.855-2.629,6.416,6.416,0,0,0,.619-3.093,8.75,8.75,0,0,0-3.131-6.3A10.662,10.662,0,0,0,70.57,153.9H59.358a10.852,10.852,0,0,0-7.152,2.4A8.76,8.76,0,0,0,49,162.639Z"/>
        <path d="M59.126,230.142a29.6,29.6,0,0,1-8.467-1.276A18.37,18.37,0,0,1,43.12,224.5a21.745,21.745,0,0,1-5.18-7.229,21.233,21.233,0,0,1-1.779-8.622v-.077a21.047,21.047,0,0,1,1.779-8.545,23.121,23.121,0,0,1,5.1-7.307,18.962,18.962,0,0,1,7.346-4.291,30.91,30.91,0,0,1,8.737-1.353H72.581a21.8,21.8,0,0,1,14.3,5.644,23.283,23.283,0,0,1,5.1,7.269,20.98,20.98,0,0,1,1.779,8.583v.077a21.266,21.266,0,0,1-1.779,8.622,22.285,22.285,0,0,1-5.1,7.229,19.6,19.6,0,0,1-6.651,4.176,22.924,22.924,0,0,1-7.654,1.469Z"/>
        <path d="M93.768,262.772v13.764H36.238V263.391l28.3-15.465h-28.3V234.162h57.53v13.223L65.544,262.772Z"/>
        <path d="M65,319.526a44.942,44.942,0,0,1-11.019-1.314,24.908,24.908,0,0,1-9.163-4.33A21.2,21.2,0,0,1,38.558,306a27.567,27.567,0,0,1-2.32-11.908v-13.3h57.53v11.6a29.633,29.633,0,0,1-2.2,11.831,23.832,23.832,0,0,1-6.032,8.506,25.091,25.091,0,0,1-9.124,5.1A37.071,37.071,0,0,1,65,319.526Z"/>
        <path d="M93.768,365.3a16.672,16.672,0,0,1-1.315,6.727,14.366,14.366,0,0,1-3.75,5.142,17.159,17.159,0,0,1-5.877,3.286,24,24,0,0,1-7.693,1.16,23.381,23.381,0,0,1-7.578-1.16,17.619,17.619,0,0,1-5.877-3.286,14.518,14.518,0,0,1-3.827-5.142A16.24,16.24,0,0,1,56.5,365.3v-4.33H36.238V347.749h57.53V365.3Z"/>
        <path d="M49.229,399.169v15.388H36.238V386.179h57.53v12.99Z"/>
        <path d="M51.394,448.348V437.136l-15.156-5.1V417.264l57.53,16.856v17.32L36.238,468.3v-14.77Z"/>
        <path d="M49,489.947a7.263,7.263,0,0,0,1.7,5.529,12.791,12.791,0,0,0,4.639,3.364l-6.263,11.212q-1.391-.7-3.556-1.972a18.309,18.309,0,0,1-4.253-3.6,20.712,20.712,0,0,1-3.6-5.915,22.913,22.913,0,0,1-1.508-8.853v-.077a23.276,23.276,0,0,1,1.856-9.86,17.8,17.8,0,0,1,4.987-6.5,20.17,20.17,0,0,1,7.269-3.673A39.32,39.32,0,0,1,58.9,468.22H70.8a28.459,28.459,0,0,1,8.389,1.43,22.58,22.58,0,0,1,7.385,4.021,19.8,19.8,0,0,1,5.22,6.688,21.015,21.015,0,0,1,1.972,9.357v.077a22.541,22.541,0,0,1-1.315,8.119,19.93,19.93,0,0,1-3.4,5.838,17.979,17.979,0,0,1-4.717,3.943,27.79,27.79,0,0,1-5.258,2.359L72.813,498.84a17.325,17.325,0,0,0,2.861-1.276,11.8,11.8,0,0,0,2.629-1.971,9.384,9.384,0,0,0,1.855-2.63,6.413,6.413,0,0,0,.619-3.093,8.752,8.752,0,0,0-3.131-6.3,10.662,10.662,0,0,0-7.076-2.358H59.358a10.852,10.852,0,0,0-7.152,2.4A8.758,8.758,0,0,0,49,489.947Z"/>
        <path d="M80.777,550.568V528.3H71.5v16.392H58.508V528.3H49.229v22.269H36.238V515.309h57.53v35.259Z"/>
      </g>
      <g>
        <path d="M211.863,517.24a11.453,11.453,0,0,1,5.22,1.585,14.028,14.028,0,0,1,4.252,3.943,19.779,19.779,0,0,1,2.861,6.071,28.52,28.52,0,0,1,1.044,8.042,22.39,22.39,0,0,1-.927,6.534,19.941,19.941,0,0,1-2.629,5.528,16.906,16.906,0,0,1-4.137,4.214,16.161,16.161,0,0,1-5.529,2.514L206.837,543.3q.078.156,1.083-.348a11.265,11.265,0,0,0,2.126-1.43,10.162,10.162,0,0,0,2.011-2.281,4.037,4.037,0,0,0,.657-2.9,5.166,5.166,0,0,0-1.16-2.59,3.612,3.612,0,0,0-3.17-1.2,4.038,4.038,0,0,0-2.436,1.045,14.79,14.79,0,0,0-2.358,2.744q-2.628,3.943-4.6,7.307a39.637,39.637,0,0,1-4.136,5.876,16.755,16.755,0,0,1-4.871,3.945,14.46,14.46,0,0,1-6.805,1.43,13.773,13.773,0,0,1-6.65-1.546,14.737,14.737,0,0,1-4.794-4.1,18.505,18.505,0,0,1-2.938-5.877,25.606,25.606,0,0,1-1.083-6.882,21.3,21.3,0,0,1,1.2-7.462,18.233,18.233,0,0,1,3.055-5.412,14.007,14.007,0,0,1,4.214-3.441,15.6,15.6,0,0,1,4.679-1.624l4.484,11.366a13.582,13.582,0,0,0-1.9.7,7.223,7.223,0,0,0-1.932,1.276,7.546,7.546,0,0,0-1.508,1.933,5.284,5.284,0,0,0-.619,2.591,4.566,4.566,0,0,0,.967,2.822,3.41,3.41,0,0,0,2.9,1.276,3.449,3.449,0,0,0,2.591-1.2,41.706,41.706,0,0,0,2.976-3.751q2.013-3.553,4.022-6.841a31.33,31.33,0,0,1,4.561-5.839,21.019,21.019,0,0,1,5.761-4.1,17.417,17.417,0,0,1,7.616-1.546Z"/>
        <path d="M180.7,478.114v22.27h9.28V483.991h12.99v16.393h9.279v-22.27h12.99v35.26H167.711v-35.26Z"/>
        <path d="M212.482,451.361a7.261,7.261,0,0,0-1.7-5.528,12.77,12.77,0,0,0-4.638-3.363l6.262-11.213q1.392.7,3.557,1.972a18.325,18.325,0,0,1,4.253,3.6,20.734,20.734,0,0,1,3.6,5.914,22.945,22.945,0,0,1,1.507,8.854v.078a23.291,23.291,0,0,1-1.855,9.859,17.783,17.783,0,0,1-4.987,6.494,20.156,20.156,0,0,1-7.269,3.674,39.339,39.339,0,0,1-8.622,1.391H190.677a28.5,28.5,0,0,1-8.39-1.43,22.543,22.543,0,0,1-7.385-4.021,19.794,19.794,0,0,1-5.219-6.688,21,21,0,0,1-1.972-9.357v-.076a22.54,22.54,0,0,1,1.314-8.12,19.9,19.9,0,0,1,3.4-5.837,17.929,17.929,0,0,1,4.717-3.944,27.782,27.782,0,0,1,5.257-2.359l6.264,11.213a17.08,17.08,0,0,0-2.861,1.275,11.671,11.671,0,0,0-2.629,1.972,9.348,9.348,0,0,0-1.856,2.629,6.421,6.421,0,0,0-.619,3.092,8.75,8.75,0,0,0,3.132,6.3,10.665,10.665,0,0,0,7.075,2.358H202.12a10.853,10.853,0,0,0,7.153-2.4A8.765,8.765,0,0,0,212.482,451.361Z"/>
        <path d="M202.353,383.858a29.589,29.589,0,0,1,8.466,1.276,18.364,18.364,0,0,1,7.539,4.369,21.724,21.724,0,0,1,5.181,7.229,21.229,21.229,0,0,1,1.778,8.622v.077a21.05,21.05,0,0,1-1.778,8.545,23.11,23.11,0,0,1-5.1,7.306,18.959,18.959,0,0,1-7.346,4.292,30.957,30.957,0,0,1-8.737,1.353H188.9a21.791,21.791,0,0,1-14.305-5.645,23.3,23.3,0,0,1-5.1-7.267,21,21,0,0,1-1.778-8.584v-.077a21.279,21.279,0,0,1,1.778-8.622,22.292,22.292,0,0,1,5.1-7.229,19.587,19.587,0,0,1,6.65-4.176,22.91,22.91,0,0,1,7.655-1.469Z"/>
        <path d="M167.711,351.227V337.464H225.24v13.145l-28.3,15.465h28.3v13.764H167.711V366.615l28.224-15.388Z"/>
        <path d="M196.476,294.474a44.928,44.928,0,0,1,11.018,1.314,24.884,24.884,0,0,1,9.163,4.33,21.2,21.2,0,0,1,6.264,7.887,27.565,27.565,0,0,1,2.319,11.908v13.3H167.711v-11.6a29.612,29.612,0,0,1,2.2-11.831,23.842,23.842,0,0,1,6.031-8.506,25.107,25.107,0,0,1,9.124-5.1A37.078,37.078,0,0,1,196.476,294.474Z"/>
        <path d="M167.711,248.7a16.668,16.668,0,0,1,1.314-6.727,14.366,14.366,0,0,1,3.75-5.142,17.159,17.159,0,0,1,5.877-3.286,23.979,23.979,0,0,1,7.694-1.16,23.359,23.359,0,0,1,7.578,1.16,17.638,17.638,0,0,1,5.877,3.286,14.53,14.53,0,0,1,3.827,5.142,16.253,16.253,0,0,1,1.354,6.727v4.33H225.24v13.223H167.711V248.7Z"/>
        <path d="M212.25,214.831V199.443h12.99v28.378H167.711v-12.99Z"/>
        <path d="M210.085,165.652v11.212l15.155,5.1v14.768L167.711,179.88V162.56L225.24,145.7v14.77Z"/>
        <path d="M212.482,124.053a7.267,7.267,0,0,0-1.7-5.53,12.805,12.805,0,0,0-4.638-3.363l6.262-11.212q1.392.7,3.557,1.972a18.325,18.325,0,0,1,4.253,3.6,20.7,20.7,0,0,1,3.6,5.915,22.933,22.933,0,0,1,1.507,8.853v.077a23.292,23.292,0,0,1-1.855,9.86,17.8,17.8,0,0,1-4.987,6.5,20.17,20.17,0,0,1-7.269,3.673,39.339,39.339,0,0,1-8.622,1.391H190.677a28.5,28.5,0,0,1-8.39-1.43,22.58,22.58,0,0,1-7.385-4.021,19.794,19.794,0,0,1-5.219-6.688,21,21,0,0,1-1.972-9.357v-.077a22.539,22.539,0,0,1,1.314-8.119,19.91,19.91,0,0,1,3.4-5.838,17.944,17.944,0,0,1,4.717-3.943,27.782,27.782,0,0,1,5.257-2.359l6.264,11.212a17.244,17.244,0,0,0-2.861,1.275,11.761,11.761,0,0,0-2.629,1.972,9.367,9.367,0,0,0-1.856,2.63,6.425,6.425,0,0,0-.619,3.093,8.75,8.75,0,0,0,3.132,6.3,10.66,10.66,0,0,0,7.075,2.358H202.12a10.853,10.853,0,0,0,7.153-2.4A8.761,8.761,0,0,0,212.482,124.053Z"/>
        <path d="M180.7,63.432V85.7h9.28V69.309h12.99V85.7h9.279V63.432h12.99V98.691H167.711V63.432Z"/>
      </g>
    </g>
  </g>
</svg>
