<svg xmlns="http://www.w3.org/2000/svg" width="270" height="612" viewBox="0 0 270 612">
  <g>
    <rect width="270" height="612" fill="#fea621"/>
    <g>
      <g>
        <path d="M100.36,93.645H84.544V77.734H30.316V61.918H84.544V46.007H100.36Z"/>
        <path d="M100.36,133.279V149.1H30.316V133.279H57.431V114.544H30.316V98.728H100.36v15.816H73.247v18.735Z"/>
        <path d="M100.36,172.35H30.316V156.533H100.36Z"/>
        <path d="M30.316,204.265,53.1,194.851v-.189H30.316V178.846H100.36v21.371a24.04,24.04,0,0,1-1.836,10.026,16.934,16.934,0,0,1-4.895,6.4,18.971,18.971,0,0,1-7.154,3.436,35.051,35.051,0,0,1-8.616,1.036,21.323,21.323,0,0,1-8.378-1.554,23.72,23.72,0,0,1-6.166-3.671,17.125,17.125,0,0,1-3.766-4.284,7.481,7.481,0,0,1-1.272-3.389L30.316,222.435Z"/>
        <path d="M65.339,275.156a54.744,54.744,0,0,1-13.416-1.6,30.335,30.335,0,0,1-11.156-5.272,25.8,25.8,0,0,1-7.626-9.6,33.551,33.551,0,0,1-2.825-14.5V227.989H100.36V242.11a36.089,36.089,0,0,1-2.682,14.4,29.026,29.026,0,0,1-7.344,10.356,30.554,30.554,0,0,1-11.109,6.213A45.2,45.2,0,0,1,65.339,275.156Z"/>
        <path d="M100.36,330.889a20.3,20.3,0,0,1-1.6,8.19,17.483,17.483,0,0,1-4.566,6.261,20.9,20.9,0,0,1-7.155,4,29.231,29.231,0,0,1-9.367,1.412,28.477,28.477,0,0,1-9.227-1.412,21.489,21.489,0,0,1-7.155-4,17.7,17.7,0,0,1-4.66-6.261,19.774,19.774,0,0,1-1.648-8.19v-5.273H30.316v-16.1H100.36v21.372Z"/>
        <path d="M46.133,372.123v18.735H30.316V356.307H100.36v15.816Z"/>
        <path d="M48.769,432V418.349l-18.453-6.213V394.153l70.044,20.525v21.088L30.316,456.29V438.308Z"/>
        <path d="M45.851,482.649a8.838,8.838,0,0,0,2.071,6.732,15.556,15.556,0,0,0,5.648,4.1l-7.626,13.652q-1.694-.849-4.33-2.4a22.364,22.364,0,0,1-5.178-4.376,25.3,25.3,0,0,1-4.378-7.2,27.921,27.921,0,0,1-1.835-10.78v-.094a28.362,28.362,0,0,1,2.259-12,21.672,21.672,0,0,1,6.072-7.908A24.544,24.544,0,0,1,47.4,457.89,47.888,47.888,0,0,1,57.9,456.2H72.4a34.739,34.739,0,0,1,10.215,1.741,27.507,27.507,0,0,1,8.992,4.9,24.123,24.123,0,0,1,6.354,8.144,25.564,25.564,0,0,1,2.4,11.391v.095a27.458,27.458,0,0,1-1.6,9.885,24.266,24.266,0,0,1-4.142,7.108,21.908,21.908,0,0,1-5.743,4.8,33.911,33.911,0,0,1-6.4,2.872l-7.625-13.652a20.878,20.878,0,0,0,3.483-1.553,14.221,14.221,0,0,0,3.2-2.4,11.369,11.369,0,0,0,2.26-3.2,7.792,7.792,0,0,0,.753-3.765,10.645,10.645,0,0,0-3.812-7.673,12.98,12.98,0,0,0-8.615-2.871H58.466a13.2,13.2,0,0,0-8.708,2.918A10.661,10.661,0,0,0,45.851,482.649Z"/>
        <path d="M84.544,556.459V529.345h-11.3V549.3H57.431V529.345h-11.3v27.114H30.316V513.528H100.36v42.931Z"/>
      </g>
      <g>
        <path d="M158.369,515.033h15.817v15.911h54.227v15.817H174.186v15.91H158.369Z"/>
        <path d="M158.369,475.4V459.583h70.044V475.4H201.3v18.735h27.114V509.95H158.369V494.134h27.113V475.4Z"/>
        <path d="M158.369,436.329h70.044v15.816H158.369Z"/>
        <path d="M228.413,404.413l-22.783,9.414v.19h22.783v15.816H158.369V408.462a24.057,24.057,0,0,1,1.836-10.027,16.946,16.946,0,0,1,4.9-6.4,18.978,18.978,0,0,1,7.154-3.436,35.037,35.037,0,0,1,8.615-1.036,21.343,21.343,0,0,1,8.379,1.553,23.766,23.766,0,0,1,6.166,3.672,17.159,17.159,0,0,1,3.766,4.283,7.5,7.5,0,0,1,1.271,3.39l27.961-14.216Z"/>
        <path d="M193.391,333.522a54.8,54.8,0,0,1,13.416,1.6,30.319,30.319,0,0,1,11.156,5.272,25.818,25.818,0,0,1,7.626,9.6,33.553,33.553,0,0,1,2.824,14.5v16.192H158.369V366.567a36.087,36.087,0,0,1,2.683-14.4,28.984,28.984,0,0,1,7.344-10.355,30.547,30.547,0,0,1,11.109-6.214A45.2,45.2,0,0,1,193.391,333.522Z"/>
        <path d="M158.369,277.79a20.282,20.282,0,0,1,1.6-8.19,17.463,17.463,0,0,1,4.565-6.261,20.879,20.879,0,0,1,7.155-4,29.21,29.21,0,0,1,9.368-1.412,28.448,28.448,0,0,1,9.226,1.412,21.449,21.449,0,0,1,7.156,4,17.7,17.7,0,0,1,4.66,6.261,19.786,19.786,0,0,1,1.647,8.19v5.272h24.666v16.1H158.369V277.79Z"/>
        <path d="M212.6,236.556V217.82h15.816v34.552H158.369V236.556Z"/>
        <path d="M209.961,176.679V190.33l18.452,6.213v17.982L158.369,194V172.913l70.044-20.524v17.982Z"/>
        <path d="M212.879,126.029a8.841,8.841,0,0,0-2.071-6.731,15.562,15.562,0,0,0-5.649-4.1l7.626-13.651q1.695.847,4.33,2.4a22.328,22.328,0,0,1,5.179,4.377,25.342,25.342,0,0,1,4.378,7.2,27.924,27.924,0,0,1,1.835,10.78v.094a28.356,28.356,0,0,1-2.259,12,21.674,21.674,0,0,1-6.072,7.908,24.542,24.542,0,0,1-8.85,4.472,47.868,47.868,0,0,1-10.5,1.694h-14.5a34.685,34.685,0,0,1-10.215-1.741,27.51,27.51,0,0,1-8.991-4.895,24.1,24.1,0,0,1-6.354-8.144,25.568,25.568,0,0,1-2.4-11.392v-.094a27.435,27.435,0,0,1,1.6-9.885,24.238,24.238,0,0,1,4.141-7.108,21.909,21.909,0,0,1,5.744-4.8,33.757,33.757,0,0,1,6.4-2.872l7.625,13.651a21.013,21.013,0,0,0-3.484,1.554,14.292,14.292,0,0,0-3.2,2.4,11.414,11.414,0,0,0-2.259,3.2,7.8,7.8,0,0,0-.753,3.766A10.646,10.646,0,0,0,178,133.8a12.977,12.977,0,0,0,8.614,2.871h13.652a13.211,13.211,0,0,0,8.708-2.918A10.667,10.667,0,0,0,212.879,126.029Z"/>
        <path d="M174.186,52.22V79.334h11.3V59.375H201.3V79.334h11.3V52.22h15.816V95.15H158.369V52.22Z"/>
      </g>
    </g>
  </g>
</svg>
